<?xml version="1.0" standalone="no"?>
<!DOCTYPE svg PUBLIC "-//W3C//DTD SVG 1.1//EN" "http://www.w3.org/Graphics/SVG/1.1/DTD/svg11.dtd" >
<svg xmlns="http://www.w3.org/2000/svg">
<metadata></metadata>
<defs>
<font id="pf_agora_slab_probold_italic" horiz-adv-x="1185" >
<font-face units-per-em="2048" ascent="1536" descent="-512" />
<missing-glyph horiz-adv-x="587" />
<glyph unicode="&#xfb01;" horiz-adv-x="1306" d="M-252 -422l49 189q53 -10 84 -12.5t64 -2.5q98 0 146 80t65 242q25 203 40 329.5t24 203.5t12.5 117t7.5 69h-174l18 149l176 39q4 33 8 63.5t8 61.5q14 113 50 190.5t97.5 124.5t151 67.5t209.5 20.5q66 0 147 -11t152 -32l-51 -194q-78 16 -131 21t-113 5 q-92 0 -140 -22.5t-70.5 -65.5t-30.5 -103t-17 -136h285q49 0 141.5 10t184.5 27q10 -4 16 -8.5t14 -8.5q-16 -129 -28.5 -237.5t-23.5 -204.5t-21.5 -183t-22.5 -173q41 2 82 13t76 27l57 -120q-41 -37 -86 -63.5t-90 -44t-85 -25t-71 -7.5q-96 0 -129.5 41t-33.5 111 q0 20 8 94t20.5 171t25.5 204.5t25 198.5h-366l-68 -592q-16 -139 -38.5 -259t-70.5 -210t-130 -141.5t-217 -51.5q-111 0 -236 39z" />
<glyph unicode="&#xfb02;" horiz-adv-x="1306" d="M-252 -422q10 45 23.5 93t25.5 93q53 -10 83 -12t63 -2q49 0 83.5 16.5t59.5 52.5t41 93t27 139q6 43 14 108.5t16.5 140.5t17.5 153.5t17 146.5t13.5 119t7.5 74h-168l16 149l172 39q10 121 39 217t86 162.5t146.5 102.5t222.5 36q47 0 101 -5t112 -19l198 36l56 -32 q-14 -125 -33 -293t-38.5 -344t-38.5 -347t-34 -302q41 2 81 13t77 27l59 -127q-86 -76 -173 -105.5t-152 -29.5q-80 0 -125 38t-45 108v9t1 12t2 26.5t5 50.5q2 20 11 99t21.5 185.5t27 229.5t27.5 232.5t22.5 192.5t13.5 112q-37 6 -75 10t-73 4q-96 0 -160.5 -39 t-78.5 -149l-13 -121h250q-6 -45 -11 -89t-9 -89h-252l-68 -592q-16 -139 -38.5 -259t-70.5 -210t-130 -141.5t-217 -51.5q-57 0 -115.5 11.5t-120.5 27.5z" />
<glyph horiz-adv-x="0" />
<glyph horiz-adv-x="682" />
<glyph unicode=" "  horiz-adv-x="587" />
<glyph unicode="&#x09;" horiz-adv-x="587" />
<glyph unicode="&#xa0;" horiz-adv-x="587" />
<glyph unicode="!" horiz-adv-x="559" d="M94 98q0 72 45 118t117 46q63 0 97 -39t34 -100q0 -66 -50 -106t-116 -40q-59 0 -93 34t-34 87zM176 391l96 1051h260q-4 -29 -15 -109t-27.5 -184.5t-34 -223t-33.5 -226t-28.5 -190.5t-18.5 -118h-199z" />
<glyph unicode="&#x22;" horiz-adv-x="720" d="M231 918l27 493h227l-98 -493h-156zM516 918l25 493h225l-94 -493h-156z" />
<glyph unicode="#" horiz-adv-x="1163" d="M113 403l26 138h168l96 268h-165l26 135h185l126 361h150l-123 -361h227l127 361h150l-127 -361h147l-26 -135h-166l-96 -268h161l-26 -138h-180l-138 -403h-151l135 403h-225l-140 -403h-151l137 403h-147zM461 541h227l92 268h-225z" />
<glyph unicode="$" d="M104 106q12 76 21.5 152t19.5 152h156l-18 -158q37 -18 76.5 -27.5t80.5 -15.5l54 422q-61 20 -113.5 49t-90.5 68.5t-60.5 92t-22.5 122.5q0 92 30.5 162.5t83 120.5t120 81t143.5 43l18 143h82l-203 -1667h-86q6 41 11.5 84t11.5 80q-80 10 -162 33t-152 63zM424 993 q2 -57 26.5 -84.5t71.5 -48.5l37 311q-53 -16 -93 -57t-42 -119v-2zM545 -154q53 416 104 832t103 835h82l-17 -139q61 -6 132 -24.5t124 -53.5q-10 -72 -19.5 -147.5t-17.5 -149.5h-157l22 154q-23 12 -50.5 19.5t-55.5 11.5l-50 -398q59 -23 117 -50t102 -67t71.5 -96.5 t27.5 -134.5q0 -94 -31 -167.5t-85 -126t-130 -84t-166 -44.5q-6 -41 -11 -85t-11 -85h-84zM674 221q74 16 119 63.5t45 133.5q0 55 -32 89t-89 56z" />
<glyph unicode="%" horiz-adv-x="1781" d="M102 862q0 76 17.5 166t63.5 168t125 129t200 51q90 0 149.5 -26.5t95 -71.5t51 -105.5t15.5 -128.5q0 -90 -20.5 -181t-67.5 -163.5t-124 -117.5t-191 -45q-90 0 -149.5 25.5t-96.5 69.5t-52.5 103.5t-15.5 126.5zM303 848q0 -72 27.5 -117t101.5 -45q53 0 89 33 t57.5 84t30.5 114.5t9 124.5q0 35 -5 68t-18 58.5t-35.5 41t-59.5 15.5q-66 0 -105 -44t-59.5 -104.5t-26.5 -125t-6 -103.5zM483 -41l815 1491h164l-813 -1491h-166zM1081 315q0 78 18.5 168t64.5 168t125 130.5t200 52.5q90 0 149.5 -27t95 -73t50 -106.5t14.5 -125.5 q0 -92 -20.5 -183.5t-66.5 -164t-124 -117.5t-190 -45q-90 0 -150.5 25.5t-97.5 69.5t-52.5 102.5t-15.5 125.5zM1284 303q0 -72 27.5 -116t101.5 -44q51 0 87 32t58.5 82t31.5 113.5t9 127.5q0 35 -5 67.5t-18 58t-36.5 41t-58.5 15.5q-66 0 -105 -44t-59.5 -104.5 t-26.5 -124t-6 -104.5z" />
<glyph unicode="&#x26;" horiz-adv-x="1859" d="M59 662q18 127 79 264t168.5 250.5t263 187.5t364.5 74q182 0 308 -54.5t205 -143.5t113.5 -201.5t34.5 -227.5q0 -53 -7 -106.5t-17 -102.5q51 2 89 8t66.5 18.5t52 32t46.5 46.5q18 -27 38.5 -53.5t43.5 -53.5q-33 -45 -69 -73.5t-81 -46t-104.5 -28t-136.5 -16.5 q-45 -102 -118 -189t-166 -152.5t-206 -102.5t-238 -37q-121 0 -207.5 32.5t-142 91t-82 136.5t-26.5 168q0 162 46 282.5t116.5 201.5t156.5 122t166 41q61 0 108.5 -19.5t78 -50t47 -68.5t16.5 -75t-18.5 -85t-71.5 -89v-4q78 14 155 14q53 0 113 -9t119 -23q12 43 16 87 t4 89q0 106 -29.5 192t-88 147.5t-144.5 94.5t-200 33q-152 0 -268.5 -55.5t-200.5 -144.5t-136.5 -200.5t-76.5 -224.5zM561 414q0 -133 67.5 -206t209.5 -73q63 0 130.5 23.5t130 66.5t115 103.5t86.5 134.5q-61 16 -120.5 26.5t-116.5 10.5q-20 0 -52 -3t-68 -9.5 t-74.5 -14.5t-73.5 -20q-20 23 -31.5 59.5t-24.5 71.5q57 41 83 75.5t26 67.5q0 35 -20.5 55.5t-55.5 20.5q-31 0 -66.5 -19.5t-68.5 -65.5t-54.5 -121t-21.5 -183z" />
<glyph unicode="'" horiz-adv-x="473" d="M217 918l27 493h227l-98 -493h-156z" />
<glyph unicode="(" horiz-adv-x="659" d="M133 406q0 186 42 346.5t107.5 294t145.5 236.5t154 177l106 -86q-35 -45 -91 -136t-108.5 -222t-90.5 -300t-38 -372q0 -119 14.5 -214t34 -170t42 -130t38.5 -92l-129 -84q-43 57 -83.5 135t-72.5 174t-51.5 208t-19.5 235z" />
<glyph unicode=")" horiz-adv-x="659" d="M-6 -258q35 45 91 134t110.5 220t93.5 302t39 378q0 117 -14.5 212t-35 170t-44 130t-39.5 90l127 80q45 -59 87 -137t73.5 -172t51 -202.5t19.5 -227.5q0 -190 -44 -355t-111.5 -300.5t-146.5 -239t-149 -170.5z" />
<glyph unicode="*" horiz-adv-x="837" d="M172 1100q2 16 13.5 46t25.5 62.5t28.5 60t22.5 40.5q14 -10 41 -26.5t55.5 -35t55 -35t43.5 -24.5q-2 18 -4 51t-5.5 68.5t-5.5 68.5t-2 51q12 2 42 4.5t64 2.5t64.5 -2t42.5 -5q-6 -18 -16 -51t-22.5 -68.5t-22.5 -68.5t-17 -51l230 115q6 -12 14 -41t13.5 -61 t8.5 -63.5t1 -50.5l-246 -22q12 -12 32.5 -34.5t43 -47.5t43 -47.5t33.5 -34.5q-10 -12 -35 -31.5t-52.5 -39t-54 -36t-41.5 -22.5q-6 16 -16 47t-20.5 65t-20.5 64.5t-16 46.5l-127 -221q-12 4 -35 20.5t-47.5 36t-45 39t-28.5 31.5l42 36t56.5 48.5t55 48t40.5 35.5z" />
<glyph unicode="+" d="M213 535l20 170h328l41 337h170l-43 -337h324l-21 -170h-321l-45 -349h-168l41 349h-326z" />
<glyph unicode="," horiz-adv-x="520" d="M16 -172q53 41 86 82t48 100q-39 8 -61.5 38t-22.5 75q0 66 43.5 116t121.5 50q68 0 103 -47t35 -113q0 -57 -26 -115.5t-68 -111t-95 -95.5t-106 -69z" />
<glyph unicode="-" horiz-adv-x="780" d="M119 449l26 202h545l-26 -202h-545z" />
<glyph unicode="." horiz-adv-x="518" d="M68 115q0 37 14 68.5t37.5 54t54.5 36t64 13.5q57 0 94 -40t37 -100q0 -37 -14.5 -67.5t-38 -53t-54.5 -36t-61 -13.5q-57 0 -95 40t-38 98z" />
<glyph unicode="/" horiz-adv-x="737" d="M-45 -68l700 1514h193l-701 -1514h-192z" />
<glyph unicode="0" d="M80 510q0 86 11 184.5t38 195.5t72 186t112.5 158t160.5 109.5t216 40.5q139 0 231.5 -47t146.5 -127t75.5 -183t21.5 -216q0 -147 -31.5 -294.5t-102 -265.5t-187.5 -192.5t-285 -74.5q-135 0 -226 41t-147.5 112.5t-81 167.5t-24.5 205zM354 492q0 -66 11.5 -121.5 t38 -96.5t68.5 -63.5t106 -22.5q88 0 147 57.5t96 149.5t53.5 207t16.5 229q0 63 -9.5 126t-33 112t-64.5 79t-104 30q-74 0 -127 -38t-89 -98.5t-57.5 -136.5t-33 -151.5t-15.5 -145t-4 -116.5z" />
<glyph unicode="1" d="M135 0l21 186h280l117 938l-305 -39l-8 156l372 125h244l-145 -1180h276l-22 -186h-830z" />
<glyph unicode="2" d="M29 0l18 170q109 86 239 189.5t243.5 213t189.5 217t76 203.5q0 82 -53.5 126t-151.5 44q-51 0 -139.5 -20.5t-204.5 -85.5l-78 172q135 88 259 122.5t222 34.5q193 0 309.5 -88t116.5 -264q0 -121 -65.5 -236.5t-162.5 -223t-211 -203t-210 -174.5l2 -11h397l21 158h201 l-41 -344h-977z" />
<glyph unicode="3" d="M35 72q4 8 16 34.5t24.5 56.5t24 56.5t15.5 34.5q59 -20 106 -32.5t87 -19.5t75 -10.5t70 -3.5q63 0 123.5 16.5t105.5 48.5t72.5 79t27.5 108q0 98 -70.5 149.5t-176.5 51.5q-23 0 -51.5 -2t-71.5 -8l-31 166q205 37 305 104.5t100 147.5q0 53 -42 95t-140 42 q-70 0 -151.5 -20.5t-194.5 -69.5q-4 8 -13 32.5t-19.5 54t-19.5 55.5t-13 34q135 66 250.5 94.5t226.5 28.5q106 0 181 -24.5t121 -64.5t67.5 -93.5t21.5 -110.5q0 -43 -14.5 -89t-46 -91t-82 -83t-119.5 -65v-10q123 -29 191.5 -114t68.5 -195q0 -96 -40 -183.5t-116 -152 t-184.5 -102t-245.5 -37.5q-49 0 -107.5 4t-117 15t-114.5 28.5t-99 44.5z" />
<glyph unicode="4" d="M55 387l21 166q39 45 93 110.5t115.5 140.5t127 155.5t127 155.5t115 140.5t91.5 110.5h308q-8 -68 -21.5 -174.5t-28 -221t-26.5 -221t-21 -174.5h195q-2 -10 -5 -36.5t-7 -57t-8.5 -58.5t-4.5 -36h-194l-25 -203h131q-2 -10 -5 -35.5t-6 -56.5t-6 -57.5t-5 -34.5h-520 q2 8 5 34.5t7 57.5t7 56.5t3 35.5h121l27 203h-611zM317 575h373q6 51 14.5 120t17.5 141.5t18.5 141.5t15.5 120h-11l-22 -27.5t-28.5 -37t-29 -38t-22.5 -28.5q-37 -43 -79 -93.5t-85 -102.5t-84 -102.5t-78 -93.5z" />
<glyph unicode="5" d="M63 76l80 192q115 -41 187.5 -54t138.5 -13q70 0 130 16t105.5 51t71 88.5t25.5 128.5q0 51 -19.5 89t-52.5 63t-76 37t-92 12q-106 0 -225 -51l-129 76l115 655h790l-41 -328h-205l17 138h-365l-49 -324q27 8 73 19.5t109 11.5q92 0 171 -22.5t135.5 -71t88 -120 t31.5 -169.5q0 -129 -48 -225.5t-128 -162t-184.5 -98t-216.5 -32.5q-47 0 -102.5 4t-114 14t-115.5 28.5t-105 47.5z" />
<glyph unicode="6" d="M109 481q0 186 40.5 351t123.5 288t210 193.5t299 70.5q104 0 190.5 -18t127.5 -37l-66 -190q-70 27 -138.5 34t-109.5 7q-92 0 -158.5 -41t-111.5 -100.5t-70.5 -128t-35.5 -124.5l8 -6q33 18 72.5 33.5t81.5 28t84 18.5t79 6q74 0 139.5 -21.5t114.5 -66.5t77 -112.5 t28 -161.5q0 -125 -42 -221.5t-115 -163t-171 -101t-211 -34.5q-125 0 -211 36.5t-138 102t-74.5 158t-22.5 200.5zM379 461q0 -49 8 -96.5t29.5 -84t60.5 -59t103 -22.5q119 0 185 80.5t66 212.5q0 80 -40 131t-144 51q-53 0 -96 -11.5t-76 -25.5t-55.5 -28.5t-30.5 -18.5 q-4 -33 -7 -64.5t-3 -64.5z" />
<glyph unicode="7" d="M193 0l669 1176h-403l-23 -195h-209l47 383h881l-16 -168l-678 -1196h-268z" />
<glyph unicode="8" d="M76 340q0 49 14 106.5t47 112.5t86 105.5t131 89.5q-66 45 -100.5 101t-34.5 132q0 86 39 160t106.5 128t160 85t198.5 31q78 0 151.5 -19.5t131 -61.5t92.5 -104.5t35 -148.5t-50.5 -173t-175.5 -169q82 -45 132.5 -122t50.5 -187q0 -80 -35 -157t-104.5 -135.5 t-173 -94t-238.5 -35.5q-113 0 -199 26.5t-144.5 74.5t-89 112.5t-30.5 142.5zM354 362q0 -72 51.5 -120.5t155.5 -48.5q68 0 116 18t79.5 49t46 69t14.5 77q0 82 -64.5 135t-211.5 112q-106 -70 -146.5 -147.5t-40.5 -143.5zM483 1004q0 -37 18.5 -63t49.5 -48.5t72 -42 t88 -43.5q96 66 131 123t35 104q0 57 -40.5 105.5t-140.5 48.5q-61 0 -102 -21.5t-65.5 -50.5t-35 -60.5t-10.5 -51.5z" />
<glyph unicode="9" d="M141 39l60 188q70 -25 139.5 -32t110.5 -7q92 0 158.5 41t111.5 100.5t69.5 128t34.5 124.5l-6 6q-66 -37 -155 -61.5t-164 -24.5q-74 0 -139.5 21.5t-114.5 65.5t-77 112.5t-28 162.5q0 125 42 221.5t115 163t171 101t213 34.5q125 0 210 -36.5t137 -103t75.5 -158 t23.5 -199.5q0 -188 -40.5 -352t-124.5 -287t-211 -193.5t-299 -70.5q-104 0 -188.5 18t-123.5 37zM406 877q0 -80 39 -131.5t145 -51.5q51 0 94 11.5t76 25.5t54.5 28.5t31.5 18.5q4 33 7 66t3 63q0 49 -7 96.5t-28.5 84t-60.5 59t-103 22.5q-121 0 -186 -80.5t-65 -211.5z " />
<glyph unicode=":" horiz-adv-x="514" d="M74 119q0 37 14 67.5t38 54t54.5 36t63.5 12.5q57 0 93 -39t36 -96q0 -37 -13.5 -69t-36 -55.5t-53 -36.5t-63.5 -13q-59 0 -96 39.5t-37 99.5zM147 731q0 37 14.5 67.5t39 53t55 35t61.5 12.5q59 0 95.5 -38t36.5 -97q0 -37 -14.5 -68.5t-37 -55.5t-53.5 -37t-63 -13 q-59 0 -96.5 41t-37.5 100z" />
<glyph unicode=";" horiz-adv-x="514" d="M20 -172q53 41 87 82t49 100q-39 8 -61.5 38t-22.5 75q0 66 44 116t122 50q68 0 102.5 -47t34.5 -113q0 -57 -26.5 -115.5t-68.5 -111t-94.5 -95.5t-105.5 -69zM147 731q0 37 14.5 67.5t39 53t55 35t61.5 12.5q59 0 95.5 -38t36.5 -97q0 -37 -14.5 -68.5t-37 -55.5 t-53.5 -37t-63 -13q-59 0 -96.5 41t-37.5 100z" />
<glyph unicode="&#x3c;" d="M166 539l18 147l936 442l-24 -206l-682 -312q23 -12 70.5 -35.5t107 -55.5t125 -65.5t125 -65.5t106.5 -56.5t72 -36.5l-25 -199z" />
<glyph unicode="=" d="M164 369l20 163h844l-22 -163h-842zM205 696l20 166h842l-20 -166h-842z" />
<glyph unicode="&#x3e;" d="M113 96l24 205l686 313q-25 12 -71.5 37t-107 54.5t-126 64.5t-125 64.5t-107.5 54t-71 37.5l25 202l829 -442l-18 -147z" />
<glyph unicode="?" horiz-adv-x="985" d="M164 1047l41 329q121 43 230.5 59.5t193.5 16.5q186 0 283.5 -80t97.5 -209q0 -63 -17.5 -114.5t-48.5 -94.5t-70.5 -80.5t-85.5 -70.5q-70 -51 -120 -90t-81.5 -76t-47 -76t-15.5 -90v-68l-221 -28q-4 33 -6 62.5t-2 54.5q0 68 18.5 123t53 103t85 93t113.5 92 t108.5 98.5t45.5 116.5q0 49 -38 85t-132 36q-39 0 -84 -6t-88 -19l-23 -167h-190zM272 98q0 63 45 112.5t117 49.5q59 0 95 -37t36 -90q0 -72 -50 -115t-114 -43q-57 0 -93 35t-36 88z" />
<glyph unicode="@" horiz-adv-x="1886" d="M178 608q0 184 70.5 342t193.5 273.5t289 181t354 65.5q152 0 276 -42t212 -120.5t136 -191t48 -252.5q0 -127 -38 -228t-102.5 -172t-148.5 -110t-174 -39q-111 0 -170 49.5t-59 145.5v19.5t2 19.5q-4 0 -6 -2q-29 -68 -66 -111t-75.5 -65.5t-75.5 -30.5t-62 -8 q-102 0 -164.5 66.5t-62.5 201.5q0 106 25.5 201.5t76 166t125 111.5t172.5 41q41 0 90.5 -11t94.5 -30l37 45l143 -14q-12 -66 -26.5 -139.5t-25 -145t-17.5 -135t-7 -106.5q0 -53 20.5 -86t73.5 -33q37 0 80 21.5t81 67.5t63.5 120t25.5 176q0 221 -134 345t-378 124 q-154 0 -287 -54.5t-231 -147.5t-154.5 -220t-56.5 -274q0 -119 33 -218.5t99.5 -172t164.5 -112.5t227 -40q47 0 117 7t158 36l37 -123q-78 -37 -168 -51.5t-162 -14.5q-164 0 -290 50.5t-211 140.5t-129 213t-44 270zM758 629q0 -74 25.5 -111t66.5 -37q23 0 49.5 14.5 t54 48.5t56 90t57.5 140q8 45 14 86t17 86q-41 14 -74 19.5t-57 5.5q-59 0 -99.5 -34t-65 -85t-34.5 -111.5t-10 -111.5z" />
<glyph unicode="A" horiz-adv-x="1462" d="M-12 0l20 193h115l561 1216h350l252 -1216h109l-23 -193h-514l21 193h127l-37 196h-486l-86 -196h129l-22 -193h-516zM567 578h369l-62 340l-43 262h-6l-106 -250z" />
<glyph unicode="B" horiz-adv-x="1361" d="M31 0q2 14 5 41t7 55.5t7 55t5 41.5h142l125 1024h-138l25 190h731q195 0 285 -90t90 -234q0 -49 -10.5 -97t-36 -93t-68.5 -85t-108 -69v-2q57 -20 95 -54t58.5 -75t28.5 -85t8 -83q0 -106 -38 -188t-103.5 -138.5t-151.5 -85t-184 -28.5h-774zM481 193h248 q129 0 191.5 70.5t62.5 180.5q0 76 -48 132.5t-151 56.5h-249q-6 -47 -13.5 -104.5t-14.5 -117t-13.5 -116.5t-12.5 -102zM557 813h223q111 0 175.5 65.5t64.5 165.5q0 78 -45 125.5t-146 47.5h-223z" />
<glyph unicode="C" horiz-adv-x="1236" d="M127 559q0 92 12.5 193.5t44 199t86 185.5t138.5 154.5t199.5 105.5t271.5 39q109 0 200.5 -15.5t163.5 -42.5l-49 -395h-203l25 207q-31 8 -71 14t-81 6q-113 0 -194.5 -46t-136 -129t-80 -197.5t-25.5 -251.5q0 -190 87 -274.5t280 -84.5q25 0 61.5 3t79.5 8.5t87 13.5 t85 18l37 -217q-43 -16 -98.5 -30.5t-115 -23.5t-118.5 -14t-111 -5q-164 0 -273.5 43t-177 119.5t-96 183t-28.5 233.5z" />
<glyph unicode="D" horiz-adv-x="1447" d="M35 0l20 193h146l125 1024h-136l25 192h621q160 0 266 -45t169.5 -124t90.5 -184.5t27 -228.5q0 -164 -39 -314.5t-123 -264t-219.5 -181t-327.5 -67.5h-645zM487 193h168q61 0 136 25.5t140.5 94t110.5 190.5t45 314q0 125 -28.5 203t-72.5 122t-99.5 59.5t-108.5 15.5 h-166z" />
<glyph unicode="E" horiz-adv-x="1290" d="M35 0l20 193h140l124 1024h-133l23 190h1104l-51 -406h-201l26 216h-483l-49 -398l440 10l-22 -198l-441 10l-53 -448h520l29 225h205l-51 -418h-1147z" />
<glyph unicode="F" horiz-adv-x="1257" d="M35 0l20 193h142l125 1024h-136l23 190h1096l-52 -406h-200l26 216h-473l-49 -398l434 8l-22 -196l-434 10l-56 -448h187l-23 -193h-608z" />
<glyph unicode="G" horiz-adv-x="1370" d="M127 559q0 92 13.5 193.5t47 199t90 185.5t142.5 154.5t204.5 105.5t278.5 39q111 0 207 -15.5t168 -42.5l-45 -387h-203l25 203q-33 10 -77 15t-87 5q-119 0 -206 -48t-144.5 -133t-85 -201.5t-27.5 -251.5q0 -176 70.5 -273.5t242.5 -97.5q41 0 90.5 6t90.5 18l41 332 h-164l20 174h520l-20 -174h-100l-62 -510q-117 -41 -232.5 -58t-226.5 -17q-162 0 -271.5 45t-176 122.5t-95 183t-28.5 228.5z" />
<glyph unicode="H" horiz-adv-x="1560" d="M35 0l20 193h138l126 1024h-137l23 192h547l-23 -192h-125l-49 -392h547l49 392h-125l25 192h546l-22 -192h-137l-125 -1024h135l-21 -193h-548l24 193h123l53 446h-547l-53 -446h125l-22 -193h-547z" />
<glyph unicode="I" horiz-adv-x="831" d="M88 0l23 193h135l125 1024h-135l24 192h553l-25 -192h-133l-127 -1024h136l-23 -193h-553z" />
<glyph unicode="J" horiz-adv-x="868" d="M-119 -170q125 43 203 91t123 107.5t65.5 131t32.5 157.5l111 900l-201 2l23 190h661l-22 -192h-177l-110 -889q-18 -145 -61.5 -263t-121 -206t-194.5 -145.5t-281 -84.5z" />
<glyph unicode="K" horiz-adv-x="1431" d="M35 0l20 193h138l124 1024h-135l23 190h543l-23 -190h-131l-49 -416l495 416h-110l22 190h525l-23 -190h-121l-436 -365l371 -657h112l-22 -195h-535l25 195h115l-277 491l-174 -145l-43 -348h125l-23 -193h-536z" />
<glyph unicode="L" horiz-adv-x="1241" d="M35 0l20 193h142l125 1024h-136l23 190h567l-24 -190h-144l-127 -1024h498l31 258h204l-55 -451h-1124z" />
<glyph unicode="M" horiz-adv-x="1912" d="M31 0l22 190h140l122 1024h-135q4 47 10.5 96.5t12.5 96.5h485l105 -338q27 -78 50 -158t48 -161l72 -248h10l98 190q53 100 105.5 198.5t105.5 196.5l170 320h498q-6 -47 -13.5 -96t-11.5 -97h-127q-31 -256 -61.5 -510.5t-63.5 -513.5h125l-22 -190h-519q4 47 9.5 95 t11.5 95h119l100 830h-4q-23 -41 -44.5 -84t-43.5 -84l-148 -274q-51 -94 -102 -187.5t-100 -185.5h-238l-104 323l-152 492h-6l-100 -830h127q-6 -47 -12.5 -95t-10.5 -95h-528z" />
<glyph unicode="N" horiz-adv-x="1617" d="M31 0l22 190h137q29 258 62 512t63 512h-135q4 47 10.5 96.5t12.5 96.5h440l191 -387l196 -412l92 -190h11l98 796h-137l24 193h533q-6 -47 -12.5 -96t-10.5 -97h-133q-37 -305 -74 -607t-75 -607h-275q-59 115 -114.5 227.5t-110.5 225.5q-8 16 -37 73.5t-60.5 123 t-61.5 122.5t-38 76q-23 45 -45 90t-43 92q-2 0 -3 -1t-3 -1q-27 -211 -52.5 -419t-49.5 -419h137q-6 -47 -12.5 -95t-10.5 -95h-536z" />
<glyph unicode="O" horiz-adv-x="1470" d="M127 565q0 170 43 328t132 277.5t225.5 191.5t320.5 72q154 0 260 -46.5t174 -127t98.5 -190t30.5 -239.5q0 -182 -47 -337.5t-137 -269t-223.5 -179t-305.5 -65.5q-150 0 -257 41.5t-176.5 118.5t-103.5 184.5t-34 240.5zM424 559q0 -180 68.5 -275.5t222.5 -95.5 q106 0 181 52.5t123 142.5t69.5 209t21.5 252q0 78 -12.5 147.5t-43 121.5t-83.5 83t-135 31q-117 0 -196 -59.5t-127 -154.5t-68.5 -215t-20.5 -239z" />
<glyph unicode="P" horiz-adv-x="1257" d="M35 0l20 193h135l125 1024h-133l23 192h651q215 0 316.5 -100.5t101.5 -278.5q0 -88 -28.5 -175t-90 -155.5t-157 -111.5t-226.5 -43h-254l-45 -352h176l-22 -193h-592zM541 731h182q49 0 94 17.5t80 52.5t55.5 87t20.5 124q0 104 -51.5 154.5t-141.5 50.5h-180z" />
<glyph unicode="Q" horiz-adv-x="1474" d="M127 565q0 170 43 328t132 277.5t225.5 191.5t320.5 72q154 0 260 -46.5t174 -127t98.5 -190t30.5 -239.5q0 -258 -92 -459.5t-270 -299.5l286 -80l-116 -228l-607 226q-127 10 -219 55t-151.5 120t-87 176t-27.5 224zM424 559q0 -180 68.5 -275.5t222.5 -95.5 q106 0 181 52.5t123 142.5t69.5 209t21.5 252q0 78 -12.5 147.5t-43 121.5t-83.5 83t-135 31q-117 0 -196 -59.5t-127 -154.5t-68.5 -215t-20.5 -239z" />
<glyph unicode="R" horiz-adv-x="1368" d="M39 0l20 193h131l125 1024h-129l25 192h678q211 0 308 -99.5t97 -260.5q0 -61 -15 -125t-49 -120t-88.5 -101.5t-131.5 -69.5l145 -440l156 -21l4 -164q-29 -10 -63.5 -16t-69.5 -10.5t-65 -6.5t-48 -2q-84 0 -121 38t-59 112l-141 461h-230l-45 -391h143l-22 -193h-555z M543 768h198q45 0 90.5 13.5t81 43t58 78.5t22.5 121q0 100 -50 146.5t-140 46.5h-207z" />
<glyph unicode="S" horiz-adv-x="1220" d="M49 84l37 326h201l-21 -168q59 -27 132 -37t126 -10q152 0 227.5 57t75.5 149q0 49 -19.5 82t-59 55.5t-99 41t-137.5 38.5q-80 23 -145.5 52.5t-110.5 71.5t-69.5 98.5t-24.5 134.5q0 111 41 195.5t114.5 142t177 87.5t226.5 30q43 0 99.5 -4.5t114.5 -15.5t113.5 -27.5 t100.5 -41.5l-41 -321h-201l21 166q-53 20 -108.5 27.5t-102.5 7.5q-109 0 -180.5 -52.5t-71.5 -154.5q0 -39 22.5 -69t60.5 -51.5t86 -38.5t97 -32q84 -25 160 -51.5t132 -68t90 -104t34 -157.5q0 -119 -45 -205.5t-127 -144t-197.5 -86.5t-255.5 -29q-53 0 -114.5 5.5 t-125 17.5t-123 32.5t-110.5 51.5z" />
<glyph unicode="T" horiz-adv-x="1251" d="M104 991l52 418h1181l-51 -418h-201l29 226h-250l-125 -1024h164l-22 -193h-609l23 193h162l127 1024h-252l-27 -226h-201z" />
<glyph unicode="U" horiz-adv-x="1503" d="M162 1217l22 192h523l-21 -192h-129l-88 -711q-4 -35 -5 -66q0 -251 265 -252q131 0 217 77t107 241l88 711h-127l24 192h523l-25 -192h-119l-86 -699q-16 -125 -59 -224t-118 -169t-182.5 -106.5t-254.5 -36.5q-158 0 -265.5 38.5t-169.5 110.5q-62 73 -84 175 q-12 57 -13 122q0 52 8 109l83 680h-114z" />
<glyph unicode="V" horiz-adv-x="1421" d="M123 1214l22 195h521l-23 -195h-123l117 -639l55 -323h8l134 323l270 639h-123l23 195h518l-23 -195h-113l-546 -1214h-351l-260 1214h-106z" />
<glyph unicode="W" horiz-adv-x="2070" d="M121 1214l24 195h539l-22 -195h-125l73 -645l31 -303h4l121 301l225 557l-16 90h-123l25 195h532l-23 -195h-137l117 -651l49 -268h4l103 293l219 626h-127l24 195h537l-25 -195h-118q-20 -55 -57.5 -150t-82.5 -212t-94 -244t-94 -243.5t-82 -213t-55 -151.5h-342 l-103 580l-30 200h-9l-84 -205l-239 -575h-357l-170 1214h-112z" />
<glyph unicode="X" horiz-adv-x="1402" d="M-16 0l22 195h96l439 557l-246 462h-143l24 195h569l-24 -195h-111l172 -335l271 335h-115l23 195h516l-23 -195h-108l-418 -501l282 -518h127l-20 -195h-576l25 195h117l-197 378l-293 -378h131l-22 -195h-518z" />
<glyph unicode="Y" horiz-adv-x="1323" d="M123 1214l22 195h506l-24 -195h-119l186 -458h8l304 458h-123l24 195h512l-24 -195h-101l-469 -657l-43 -364h154l-21 -193h-616l20 193h158l43 360l-297 661h-100z" />
<glyph unicode="Z" horiz-adv-x="1208" d="M-2 0l22 190l838 1029h-461l-30 -230h-201l53 420h1024l-20 -184l-842 -1032h545l32 258h203l-55 -451h-1108z" />
<glyph unicode="[" horiz-adv-x="618" d="M31 -326q12 109 30.5 251.5t38 301t40 325.5t40 325.5t36.5 301t32 253.5h424l-21 -162h-188q-12 -92 -25.5 -210t-30 -247t-33 -264t-32.5 -263t-30.5 -245t-26.5 -209h188q-2 -12 -4 -34.5l-4 -45t-5 -44t-5 -34.5h-424z" />
<glyph unicode="\" horiz-adv-x="737" d="M141 1446h193l328 -1514h-193z" />
<glyph unicode="]" horiz-adv-x="618" d="M-14 -326q2 12 4 34t5 44.5l6 45t5 34.5h184q12 92 26.5 209t30 245t33 263t33 264t29.5 246t27 211h-189q0 12 3 34.5t6.5 46t5.5 46t4 35.5h424l-215 -1758h-422z" />
<glyph unicode="^" horiz-adv-x="964" d="M76 731l452 662h134l286 -662h-182l-193 453l-307 -453h-190z" />
<glyph unicode="_" horiz-adv-x="993" d="M-88 -297l18 143h994l-19 -143h-993z" />
<glyph unicode="`" horiz-adv-x="1103" d="M381 1425l158 146l258 -367l-99 -90z" />
<glyph unicode="a" horiz-adv-x="1239" d="M82 326q0 143 34 270t101.5 222t169 150.5t234.5 55.5q119 0 243 -59l47 59l199 -12q-37 -236 -67.5 -444t-47.5 -373q43 4 78 16t76 33q2 -6 10 -23.5t18.5 -39t18.5 -39t12 -23.5q-33 -31 -73.5 -57.5t-83.5 -47t-84 -32t-76 -11.5q-80 0 -116 37t-42 98q-1 12 -1 23 q0 24 3 48q4 36 10 75h-10q-45 -80 -92 -133t-94 -85t-95 -44.5t-96 -12.5q-127 0 -201.5 86.5t-74.5 262.5zM356 371q0 -100 34 -149.5t87 -49.5q33 0 70 18.5t73.5 62.5t74.5 117.5t73 184.5l39 231q-53 18 -97 24.5t-75 6.5q-80 0 -133 -44t-86 -110.5t-46.5 -145.5 t-13.5 -146z" />
<glyph unicode="b" horiz-adv-x="1171" d="M41 1309l10 131q100 29 183 40t147 11q86 0 112.5 -33t26.5 -92q0 -12 -3 -50t-9 -91.5t-13.5 -117t-15.5 -124.5t-16 -117.5t-14 -93.5l10 -2q90 147 185 201.5t181 54.5q125 0 201 -87t76 -263q0 -141 -35 -268t-105.5 -222.5t-177 -150.5t-247.5 -55q-39 0 -88.5 5 t-105.5 17t-116.5 31.5t-117.5 48.5l-17 31q20 154 40 298t37 287.5t32.5 285.5t31.5 294zM379 217q51 -18 91 -24.5t71 -6.5q82 0 136 43t87 110t47 144.5t14 145.5q0 102 -36 148t-89 46q-33 0 -69.5 -18.5t-74.5 -63.5t-75 -117.5t-69 -181.5z" />
<glyph unicode="c" horiz-adv-x="991" d="M82 362q0 117 25.5 236t89 214t170 154.5t268.5 59.5q31 0 63.5 -3t64.5 -8t57.5 -12.5t39.5 -13.5q45 -16 64.5 -40.5t19.5 -65.5q0 -18 -6 -48t-15 -66t-22.5 -71.5t-26.5 -66.5l-145 8l6 174q-18 6 -44.5 9t-55.5 3q-70 0 -121 -33.5t-85 -91t-50.5 -134.5t-16.5 -160 q0 -104 46.5 -160t150.5 -56q61 0 121.5 10.5t138.5 32.5l53 -170q-37 -18 -84 -32.5t-99 -25.5t-105.5 -17t-102.5 -6q-113 0 -189.5 27.5t-122.5 78.5t-66.5 121t-20.5 153z" />
<glyph unicode="d" horiz-adv-x="1245" d="M82 326q0 147 35 274t104.5 220t172 147.5t237.5 54.5q47 0 97 -11.5t101 -27.5l35 293l-200 31l8 133q102 29 186 40t143 11q88 0 117 -38t29 -99q0 -14 -7 -70.5t-18.5 -142.5t-27 -198t-31.5 -236.5t-33.5 -256t-32.5 -255.5q41 4 82 17t78 32l57 -123 q-33 -31 -73.5 -58.5t-84.5 -48t-88 -32t-85 -11.5q-84 0 -116 42t-32 114q0 31 4 60.5t11 64.5h-11q-47 -84 -94 -137.5t-95 -84t-96 -42t-96 -11.5q-125 0 -200.5 86.5t-75.5 262.5zM354 371q0 -102 34 -150.5t89 -48.5q33 0 69 18.5t74.5 62.5t77.5 117.5t76 184.5 l33 231q-53 18 -97 24.5t-73 6.5q-82 0 -136.5 -44t-87 -110.5t-46 -145.5t-13.5 -146z" />
<glyph unicode="e" horiz-adv-x="1036" d="M82 383q0 111 27.5 225.5t94 207.5t177 153.5t276.5 60.5q141 0 229.5 -71.5t88.5 -202.5q0 -154 -147.5 -248t-473.5 -113q-2 -10 -2 -21.5v-21.5q0 -35 7.5 -67.5t29 -57t57 -40t95.5 -15.5q72 0 150.5 18.5t150.5 47.5l51 -156q-86 -47 -199.5 -73.5t-218.5 -26.5 q-121 0 -197.5 31.5t-119.5 87t-59.5 128t-16.5 154.5zM360 526q365 16 365 199q0 47 -26 78t-83 31q-113 0 -177 -82t-79 -226z" />
<glyph unicode="f" horiz-adv-x="821" d="M-246 -410l45 177q51 -10 82 -12.5t64 -2.5q94 0 143 68.5t72 232.5q16 123 30.5 242t25.5 218t19.5 173t12.5 109h-174q0 6 2 27.5t5 46t6 46t5 27.5l176 43l15 102q12 84 39.5 159t75.5 131.5t122 89t180 32.5q51 0 114 -7t132 -30l-45 -186q-47 10 -86 14t-70 4 q-39 0 -71.5 -11t-58 -40t-44 -79t-26.5 -128l-8 -65h276l-20 -176h-279q-18 -154 -33.5 -304.5t-31.5 -304.5q-16 -133 -41 -248.5t-74 -200.5t-132 -134t-214 -49q-51 0 -109.5 7t-124.5 29z" />
<glyph unicode="g" horiz-adv-x="1161" d="M66 -371l71 189q82 -33 156 -47.5t139 -14.5q80 0 130 22.5t82 63.5t48.5 101.5t26.5 136.5q0 4 3 28.5t7 53t7 52.5t3 26t-3 2t-5 2q-88 -145 -184 -199.5t-185 -54.5q-125 0 -201.5 85t-76.5 263q0 141 35 266t104.5 217t176 145.5t247.5 53.5q86 -2 202 -21.5 t226 -72.5l15 -31l-101 -789q-8 -51 -16 -113.5t-27.5 -125t-53.5 -120.5t-92.5 -103t-147.5 -73t-216 -28q-53 0 -106.5 7.5t-102.5 19.5t-90 27.5t-71 31.5zM356 383q0 -102 36 -149.5t91 -47.5q33 0 70 19.5t75 63.5t75.5 118t70.5 184l31 215q-53 18 -93 24.5t-73 6.5 q-82 0 -136 -42t-87 -106.5t-46.5 -140t-13.5 -145.5z" />
<glyph unicode="h" horiz-adv-x="1292" d="M78 1307l12 131q102 29 185 40t145 11q86 0 115.5 -29.5t29.5 -87.5q0 -18 -7 -92t-18.5 -168t-23.5 -191.5t-22 -160.5l8 -2q45 76 98 128t105.5 83.5t99.5 45t82 13.5q125 0 174 -60.5t49 -170.5q0 -45 -17.5 -194.5t-45.5 -407.5q76 6 153 43l53 -123 q-80 -74 -171 -110t-154 -36q-96 0 -130 41t-34 113q0 14 1 27.5t3 29.5q20 170 32.5 269.5t18.5 152.5t7 73.5t1 33.5q0 47 -19.5 76.5t-64.5 29.5q-31 0 -68.5 -19.5t-76.5 -62.5t-76 -112.5t-67 -167.5l-62 -453h-274q18 139 38.5 311t42 345t40 336t30.5 284z" />
<glyph unicode="i" horiz-adv-x="722" d="M96 844l8 133q100 29 178.5 40t131.5 11q82 0 110.5 -26.5t28.5 -79.5q0 -10 -6 -61.5t-14.5 -123t-19.5 -155.5t-21.5 -161t-18.5 -138.5t-10 -87.5q39 4 80 14t78 29l55 -123q-78 -72 -170 -109t-158 -37q-96 0 -132 43t-36 113q0 12 1 25.5t3 29.5l82 635zM266 1282 q0 84 50 136t124 52q61 0 104.5 -44t43.5 -109q0 -74 -48 -127t-126 -53q-61 0 -104.5 42t-43.5 103z" />
<glyph unicode="j" horiz-adv-x="651" d="M-115 -291q94 41 149.5 89t86.5 106.5t45 130t24 158.5l66 622l-170 29l10 133q100 29 176 40t129 11q82 0 114 -26.5t32 -79.5q0 -8 -4 -49.5t-10.5 -103.5t-14.5 -138t-17 -155t-17.5 -151.5t-14.5 -125.5q-16 -135 -50 -246t-96.5 -195t-157.5 -140t-233 -83z M256 1282q0 84 50 136t126 52q61 0 104.5 -44t43.5 -109q0 -74 -48.5 -127t-128.5 -53q-59 0 -103 42t-44 103z" />
<glyph unicode="k" horiz-adv-x="1105" d="M49 1305l8 131q96 29 181.5 44t144.5 15q78 0 107.5 -35t29.5 -92q0 -16 -5 -60t-13 -105.5t-18.5 -135.5t-22.5 -148.5t-23.5 -147.5t-21.5 -132h8q47 74 105.5 143.5t121 124t129 88t129.5 33.5q76 0 116 -44t54 -103l-92 -88q-43 22 -88 22h-4q-72 0 -137.5 -44 t-136.5 -124q31 -63 69.5 -137t76.5 -139.5t69.5 -117.5t50.5 -73q49 12 79.5 30.5t57.5 39.5l80 -98q-41 -51 -85 -86t-84 -56.5t-74 -31t-56 -9.5q-43 0 -78 17.5t-72 67.5t-82 142.5t-110 239.5q-29 -47 -54.5 -92t-48.5 -92l-34 -252h-269q45 322 90.5 649.5t79.5 630.5 q-14 2 -38.5 5t-50 6t-50.5 7.5t-39 6.5z" />
<glyph unicode="l" horiz-adv-x="669" d="M80 1309l8 131q102 29 187.5 40t140.5 11q78 0 109.5 -25.5t31.5 -81.5q0 -29 -8 -109.5t-21.5 -190t-30 -237.5t-32.5 -250t-29.5 -228.5t-21.5 -173.5q84 6 157 43l58 -123q-78 -72 -168 -109t-156 -37q-96 0 -134 40t-38 114q0 14 1 27.5t3 29.5l135 1098z" />
<glyph unicode="m" horiz-adv-x="1861" d="M70 844l8 131q102 31 177 42t134 11q84 0 109.5 -29.5t25.5 -78.5q0 -31 -6 -79t-14 -110h10q49 88 100.5 146.5t100.5 91t94 46t80 13.5q115 0 160 -64.5t45 -170.5v-26.5t-2 -33.5h8q45 82 97 139.5t102.5 92t95.5 50t80 15.5q111 0 164 -62.5t53 -170.5 q0 -47 -18.5 -193.5t-47.5 -406.5q41 2 76 13t74 30l53 -123q-78 -74 -167 -110t-155 -36q-96 0 -127.5 39t-31.5 111v26.5t4 32.5q16 137 27.5 230.5t17.5 155t9 96t3 53.5q0 41 -15.5 71.5t-62.5 30.5q-66 0 -136.5 -92t-125.5 -283q-4 -37 -13 -109.5t-18.5 -146 t-16.5 -130.5l-7 -56h-271q25 219 40.5 350t23.5 206t11 106.5t3 50.5q0 41 -16.5 70.5t-63.5 29.5q-66 0 -134 -89t-126 -282l-57 -442h-274q18 139 30.5 240.5t23.5 189.5t21.5 177t22.5 206z" />
<glyph unicode="n" horiz-adv-x="1308" d="M70 842l8 133q102 29 177 40t134 11q84 0 108.5 -28.5t24.5 -84.5q0 -33 -5 -80t-13 -102h8q49 88 106.5 145.5t112.5 90t105.5 46t85.5 13.5q117 0 167 -67.5t50 -182.5q0 -45 -18.5 -198.5t-45.5 -382.5q39 2 74 13t74 30q2 -6 10 -23.5t17.5 -39t16.5 -39t11 -23.5 q-41 -37 -87 -63.5t-91 -44t-85 -26t-71 -8.5q-90 0 -119.5 37t-29.5 109q0 10 2 34.5t4 41.5q10 100 20 187t17.5 154.5l12.5 112.5t5 64q0 41 -18.5 71.5t-63.5 30.5q-72 0 -152.5 -89t-140.5 -284l-59 -440h-272q18 139 30.5 239.5t23.5 188.5t21.5 177t24.5 206z" />
<glyph unicode="o" horiz-adv-x="1136" d="M82 401q0 119 32.5 230.5t100.5 200t173.5 141.5t250.5 53q117 0 199 -32.5t135 -91t77.5 -137.5t24.5 -171q0 -111 -31.5 -220.5t-99 -196.5t-174 -141t-256.5 -54q-117 0 -199 31.5t-134 88t-75.5 133t-23.5 166.5zM360 385q0 -43 8.5 -81t29 -66.5t54 -45t85.5 -16.5 q76 0 125 41t77.5 104.5t40 138.5t11.5 140q0 45 -8.5 86t-27 71.5t-51 48t-81.5 17.5q-78 0 -129.5 -45t-81 -110.5t-41 -142t-11.5 -140.5z" />
<glyph unicode="p" horiz-adv-x="1220" d="M-47 -428l22 186h129q14 125 31 261.5t33 272.5t32.5 269t28.5 250l-180 29l10 133q78 27 162 40t156 13q80 0 105 -32q23 -27 23 -75q0 -8 -1 -16q-2 -16 -7 -57t-16 -117h11q92 164 192 227.5t195 63.5q121 0 194.5 -88t73.5 -273q0 -143 -34 -268t-101.5 -217 t-169 -145.5t-234.5 -53.5q-47 0 -97 10.5t-101 26.5q-6 -53 -16.5 -125.5t-16.5 -128.5h164l-21 -186h-567zM428 211q51 -18 95 -25.5t75 -7.5q80 0 133 42t85 106.5t45 138.5t13 139q0 104 -33.5 153.5t-86.5 49.5q-33 0 -71 -17.5t-76 -61.5t-75.5 -117.5t-72.5 -184.5z " />
<glyph unicode="q" horiz-adv-x="1175" d="M82 326q0 141 36 268t106.5 222t177 150.5t247.5 55.5q37 0 88 -4t107.5 -15.5t117 -30t117.5 -46.5l15 -29q-6 -43 -17.5 -133t-25 -205t-28.5 -239.5t-28.5 -237.5t-22.5 -200t-14 -126h136l-21 -188h-561l20 188h148q18 174 32.5 292t26.5 181l-10 2 q-90 -145 -186.5 -200.5t-182.5 -55.5q-125 0 -201.5 86t-76.5 265zM356 373q0 -104 35 -151.5t90 -47.5q33 0 70 18.5t76 63.5t75.5 119t71.5 182l31 229q-53 20 -93 25.5t-71 5.5q-82 0 -136 -44t-87 -109.5t-47.5 -144.5t-14.5 -146z" />
<glyph unicode="r" horiz-adv-x="968" d="M90 842q0 6 1 25.5t2 41t3 41t2 25.5q102 29 170 40t127 11q84 0 109.5 -28.5t25.5 -86.5q0 -29 -6 -79t-14 -103h6q37 98 76 157.5t78 90.5t76.5 41t72.5 10q78 0 119 -48t49 -112l-123 -147q-35 20 -66.5 26.5t-58.5 6.5q-86 0 -154.5 -100.5t-115.5 -297.5 q-6 -43 -12 -92t-12.5 -97t-11.5 -92t-9 -75h-270q31 242 58.5 449.5t43.5 361.5z" />
<glyph unicode="s" horiz-adv-x="1007" d="M55 147q0 39 22.5 100.5t59.5 114.5l137 -6l-6 -172q29 -14 72 -20t84 -6q39 0 78 7t68.5 21.5t48 37t18.5 52.5q0 31 -18.5 53.5t-49 41t-69.5 35t-80 32.5q-59 25 -112.5 52.5t-93.5 60.5t-63.5 74t-23.5 92q0 76 35 134t95 98t143 60.5t182 20.5q55 0 116.5 -9 t111.5 -27.5t83 -47t33 -69.5q0 -18 -8.5 -47t-20.5 -60t-27.5 -60.5t-29.5 -52.5l-133 9l6 157q-49 25 -127 25q-33 0 -63.5 -5t-55.5 -17.5t-39 -34t-14 -52.5q0 -27 20.5 -48t53 -39.5t72.5 -35t79 -32.5q51 -23 101.5 -48.5t90 -59.5t64.5 -78t27 -101q0 -76 -35 -134.5 t-99.5 -98t-154.5 -61t-199 -21.5q-168 0 -273.5 42t-105.5 123z" />
<glyph unicode="t" horiz-adv-x="841" d="M82 825l16 152l166 41l103 244l186 20l-33 -276h291q-2 -14 -5 -39t-6 -52.5t-6 -52t-6 -37.5h-286l-60 -467q-2 -12 -3 -24t-1 -23q0 -55 27 -79.5t88 -24.5q25 0 77 6t105 19l37 -193q-35 -14 -79 -24.5t-89 -17.5t-84 -10t-61 -3q-160 0 -231.5 62.5t-71.5 191.5 q0 43 6 86l63 501h-143z" />
<glyph unicode="u" horiz-adv-x="1300" d="M72 844l12 129q98 29 179 41t140 12q78 0 105 -37t27 -100q0 -23 -5.5 -70t-11.5 -105.5t-15 -123t-15.5 -121.5t-11.5 -103.5t-5 -68.5q0 -47 17.5 -74.5t64.5 -27.5q33 0 69.5 19t75.5 64.5t75 117t67 173.5l59 435h262q-27 -197 -53.5 -406t-50.5 -405q43 2 80 13 t73 27l56 -120q-39 -37 -82 -62.5t-86 -43t-83 -26t-71 -8.5q-82 0 -114.5 37t-32.5 90q0 35 4 76t8 74h-10q-47 -80 -99.5 -132t-104.5 -83t-101.5 -43t-87.5 -12q-221 0 -222 208q0 90 20.5 241t49.5 386z" />
<glyph unicode="v" horiz-adv-x="1175" d="M14 887q86 72 162 107.5t131 35.5q43 0 71 -14.5t44 -42t24.5 -65.5t14.5 -83l67 -592h13q51 57 102 130t94 151t73 158t38 151l-139 -28l-35 120q78 53 156.5 86t146.5 33q66 0 106.5 -32.5t40.5 -110.5q0 -74 -25.5 -158t-68.5 -169t-99.5 -170t-117.5 -159.5 t-125.5 -138t-122.5 -106.5h-264l-106 811l-138 -33z" />
<glyph unicode="w" horiz-adv-x="1665" d="M16 883q92 72 172 107.5t144 35.5q23 0 43 -5t37.5 -20.5t29 -44t17.5 -75.5q16 -152 25.5 -320t19.5 -323h12q37 43 75 96t71.5 110.5t63.5 113.5t48 104q-4 41 -6 70.5t-6 70.5l-125 -33l-43 117q84 66 160.5 103.5t136.5 37.5q74 0 97.5 -47t29.5 -156l33 -600h12 q49 59 96 132t86 151t65.5 159t35.5 154q-33 -6 -65 -12t-64 -14l-31 118q84 57 157.5 89t153.5 32q45 -4 81 -34.5t36 -114.5q0 -109 -50.5 -238t-127 -254t-168.5 -232.5t-178 -170.5h-263q-6 90 -12 182t-14 184q-2 0 -2 1t-2 1q-29 -57 -66 -114.5t-73.5 -106.5 t-70.5 -88t-59 -59h-258q-18 201 -35.5 405.5t-39.5 405.5q-35 -8 -69 -17.5t-69 -17.5q-10 29 -20 58.5t-21 58.5z" />
<glyph unicode="x" horiz-adv-x="1134" d="M35 115q0 10 1 17t1 15q94 90 186 178.5t191 178.5q-35 72 -66 142.5t-63 141.5l-160 -43q-14 29 -27.5 60t-29.5 59q96 86 179 120t144 34q51 0 77 -21.5t42 -52.5q18 -39 32.5 -69.5t28 -59.5t27.5 -58.5t33 -66.5q66 82 129 165t129 165h29l149 -152q0 -18 -2 -28 l-346 -330l137 -301q45 6 83 22.5t77 38.5l92 -112q-43 -57 -90 -94t-90 -57.5t-82 -29t-68 -8.5q-53 0 -90 27t-66.5 75t-57 112.5t-62.5 142.5q-72 -92 -146.5 -183.5t-150.5 -179.5q-6 0 -12.5 -1t-12.5 -1q-37 35 -72.5 74t-72.5 80z" />
<glyph unicode="y" horiz-adv-x="1167" d="M-254 -309q0 16 2 26l90 72q55 -41 98.5 -49t86.5 -8q98 0 208.5 45t200.5 137q-23 104 -49.5 226t-54 243t-54 228.5t-47.5 181.5q-39 -8 -75.5 -15.5t-73.5 -17.5q-10 29 -20.5 59.5t-20.5 59.5q86 74 166 107.5t131 33.5q53 0 82.5 -19.5t44.5 -80.5q14 -61 34.5 -161 t42 -210.5t42 -219t34.5 -188.5q53 63 95.5 148.5t72 176.5t46 181t16.5 164q-35 -6 -69 -12t-68 -15l-33 125q76 59 149.5 90t139.5 31q72 0 104.5 -49t32.5 -160q0 -131 -45 -277.5t-124 -289.5t-187.5 -274.5t-235.5 -231.5t-267.5 -159.5t-283.5 -59.5q-33 0 -70 8 t-68.5 26.5t-52 49.5t-20.5 78z" />
<glyph unicode="z" horiz-adv-x="1048" d="M29 145l616 682h-319l-76 -190l-137 12l22 248q2 35 16.5 55.5t33 31.5t39 15.5t36.5 4.5h721l20 -142l-622 -688h395l92 211l123 -8l-33 -277q-4 -33 -19 -52t-34.5 -30.5t-41 -14.5t-36.5 -3h-776z" />
<glyph unicode="{" horiz-adv-x="632" d="M72 510l18 149q145 27 166 199l43 328q6 53 20.5 99t43 81t74.5 54.5t118 19.5h176l-20 -160h-58q-68 0 -93 -40t-32 -95l-39 -314q-10 -90 -46.5 -155.5t-120.5 -83.5v-4q47 -16 70.5 -46t32.5 -68t8 -81t-7 -84l-45 -358q-4 -25 -4 -49.5t8 -43t26.5 -30.5t53.5 -12h67 q-6 -39 -10 -78t-10 -78h-168q-72 0 -115 22.5t-64.5 61.5t-25.5 89t2 106l47 380q4 37 2 68t-14 55.5t-36.5 41t-67.5 26.5z" />
<glyph unicode="|" horiz-adv-x="616" d="M225 -299v1747h189v-1747h-189z" />
<glyph unicode="}" horiz-adv-x="645" d="M-51 -338l20 160h58q68 0 93 40t32 95l43 377q10 88 47 154.5t120 84.5v5q-47 16 -71.5 45.5t-33.5 67.5t-7 81t8 84l41 295q2 25 3 49.5t-7 43t-26.5 30.5t-53.5 12h-68q6 39 10.5 78t10.5 78h168q72 0 115 -22.5t64.5 -61.5t25.5 -89t-2 -106l-43 -317q-10 -72 11 -122 t105 -69l-18 -149q-145 -27 -166 -199l-47 -391q-6 -53 -20.5 -99t-43 -81t-75.5 -54.5t-117 -19.5h-176z" />
<glyph unicode="~" d="M154 549q57 115 128.5 166t153.5 51q51 0 108.5 -14.5t115 -32t112.5 -31.5t105 -14l143 98l88 -76q-53 -106 -124 -164.5t-159 -58.5q-63 0 -123.5 14.5t-116 33t-104.5 32.5t-90 14l-149 -96z" />
<glyph unicode="&#xa1;" horiz-adv-x="559" d="M43 -446l72 559l86 491h196l-35 -491l-59 -559h-260zM186 870q6 61 52.5 107.5t113.5 46.5q63 0 99 -40t32 -97q-4 -63 -50 -108.5t-118 -45.5q-61 0 -97 40t-32 97z" />
<glyph unicode="&#xa2;" d="M193 362q0 111 23.5 223.5t79.5 206t150.5 156t237.5 74.5l25 192h94l-25 -190q55 -4 110.5 -13.5t82.5 -21.5q45 -16 64.5 -40.5t19.5 -65.5q0 -18 -6.5 -48t-15.5 -66t-22.5 -71.5t-25.5 -66.5l-145 8l6 174q-16 4 -41 7t-51 5l-78 -635q59 0 118.5 10.5t135.5 32.5 l53 -170q-63 -31 -153.5 -52t-178.5 -27l-18 -152h-96l18 152q-102 4 -172 33.5t-112 79.5t-60 118t-18 147zM473 406q0 -162 109 -203l75 604q-94 -39 -139 -149.5t-45 -251.5z" />
<glyph unicode="&#xa3;" d="M72 0l14 184q43 25 73.5 62t51 80t33 89t20.5 93l21 110h-127l16 146h133l31 190q14 102 48 184.5t89 138.5t134 87t186 31q113 0 208 -21.5t158 -56.5l-28 -309h-191l16 153q-35 10 -69.5 17.5t-81.5 7.5q-53 0 -90 -16.5t-61.5 -48t-41 -78t-26.5 -105.5l-29 -174h313 l-14 -146h-323l-19 -122q-16 -92 -45 -177.5t-86 -132.5h668l-17 -186h-964z" />
<glyph unicode="&#xa5;" d="M123 1178q4 47 11 94t13 94h463l-24 -188h-109q35 -117 72 -229.5t74 -229.5h6q63 117 127.5 229.5t128.5 229.5h-111q4 47 9 94t12 94h467l-23 -188h-94l-277 -457h219l-12 -103h-923q4 27 7 51.5t7 51.5h213q-41 115 -81 228.5t-81 228.5h-94zM129 420l12 106h922 q-4 -29 -6 -54.5t-6 -51.5h-332v-2q-4 -55 -13.5 -114.5t-15.5 -119.5h152q-6 -47 -12.5 -92t-10.5 -92h-569l22 184h148q4 41 10 84t12 84l7 68h-320z" />
<glyph unicode="&#xa7;" horiz-adv-x="1042" d="M82 -182l37 280h178l-21 -149q74 -23 162 -23q90 0 137 41q47 20 67 52t20 75q0 55 -52.5 94t-158.5 84q-59 25 -113.5 52.5t-96.5 63.5t-68 83t-26 111q0 92 44.5 163.5t121.5 124.5q-47 41 -71.5 89.5t-24.5 113.5q0 16 2 25q4 80 42 140t99.5 100t140.5 59.5t167 19.5 q104 0 189 -19.5t136 -41.5q-10 -72 -18 -141.5t-17 -141.5h-182l21 154q-39 10 -72 16t-74 6q-76 -2 -130 -40t-54 -103q0 -33 21.5 -61.5t55.5 -52t72.5 -43t73.5 -36.5q45 -23 92 -47t84 -58t60.5 -78t23.5 -105q0 -70 -39 -142.5t-127 -142.5q66 -45 94.5 -110.5 t28.5 -131.5q0 -12 -2 -18q-4 -76 -41 -135.5t-98 -101.5t-145 -64.5t-181 -22.5q-96 0 -194.5 17.5t-163.5 44.5zM369 618q0 -59 54 -92.5t132 -68.5q23 -10 42 -18.5t42 -18.5q31 29 52.5 59.5t31.5 59.5q8 25 8 49q-2 37 -25.5 64.5t-60.5 50t-84 41.5t-94 42 q-47 -35 -72.5 -78.5t-25.5 -89.5z" />
<glyph unicode="&#xa8;" horiz-adv-x="1110" d="M324 1266q2 63 48 104t99 41t87 -34t32 -87q-4 -61 -47 -104t-103 -43q-53 0 -87 34.5t-29 88.5zM727 1266q2 63 47 104t98 41t87 -34t30 -87q-2 -61 -45 -104t-104 -43q-51 0 -83 34.5t-30 88.5z" />
<glyph unicode="&#xa9;" horiz-adv-x="1730" d="M115 676q0 160 59 301t162.5 245.5t244 166t302.5 61.5q164 0 304 -61.5t242.5 -166t161 -245.5t58.5 -301t-60.5 -301.5t-165 -245.5t-244 -165.5t-296.5 -61.5q-172 0 -313.5 61.5t-243 165.5t-156.5 245.5t-55 301.5zM236 676q0 -135 46 -254t131 -208t204.5 -140 t265.5 -51q133 0 250.5 51t204.5 140t138.5 208t51.5 254t-49 254t-135.5 208t-205 140t-255.5 51q-135 0 -253 -51t-206 -140t-138 -208t-50 -254zM449 659q0 86 20 176.5t74.5 165t145.5 122.5t233 48q78 0 140 -12t112 -29v-266h-134v140q-23 4 -54.5 8t-59.5 4 q-141 0 -206 -93t-65 -257q0 -172 66.5 -257t224.5 -85q18 0 46 2t58.5 5t61.5 9t55 12l31 -139q-59 -23 -143 -36t-158 -13q-129 0 -216 39t-138 105.5t-72.5 156.5t-21.5 194z" />
<glyph unicode="&#xaa;" horiz-adv-x="856" d="M90 807q0 98 24.5 180t74 140.5t121 90t163.5 31.5q35 0 76 -9t74 -26l28 37l152 -8q-12 -92 -22.5 -165.5t-19.5 -135t-16.5 -115t-13.5 -106.5q45 6 103 33q12 -20 23 -44t24 -46q-51 -45 -115 -75t-111 -30q-63 0 -88.5 31t-25.5 78q0 16 2 32.5t6 32.5h-4 q-57 -92 -124 -131t-130 -39q-92 0 -146.5 60.5t-54.5 183.5zM293 846q0 -139 78 -139q20 0 45.5 11t52.5 40.5t50.5 83t41.5 137.5l19 102q-35 12 -63 17.5t-48 5.5q-49 0 -82 -24.5t-54.5 -62.5t-30.5 -83t-9 -88z" />
<glyph unicode="&#xab;" horiz-adv-x="978" d="M88 365l10 77l375 367l102 -82l-247 -324l166 -319l-123 -86zM457 365l10 77l373 367l102 -82l-246 -324l164 -319l-121 -86z" />
<glyph unicode="&#xac;" d="M213 535l20 170h820l-62 -519h-170l43 349h-651z" />
<glyph unicode="&#xad;" horiz-adv-x="780" d="M119 449l26 202h545l-26 -202h-545z" />
<glyph unicode="&#xae;" horiz-adv-x="1226" d="M143 954q0 109 38 204t107.5 166t165 112t210.5 41t210 -41t163.5 -112t106.5 -166t38 -204t-38 -204t-107.5 -165.5t-165 -111.5t-207.5 -41q-113 0 -208.5 41t-165 111.5t-108.5 166t-39 203.5zM238 954q0 -88 30.5 -166.5t86 -137t134 -92.5t175.5 -34q100 0 179 34 t134 92.5t84 137t29 166.5t-31 167t-87.5 137.5t-135 92t-172.5 33.5t-172 -33.5t-134.5 -92t-88 -137.5t-31.5 -167zM416 670v88h55v416h-55v90h293q102 0 149 -49.5t47 -127.5q0 -39 -23.5 -85t-76.5 -68l84 -176l65 -8v-78q-23 -6 -51.5 -9.5t-46.5 -3.5 q-37 0 -54.5 15.5t-33.5 50.5l-88 186h-78v-153h60v-88h-246zM602 999h76q37 0 64.5 19t27.5 72q0 47 -25.5 66.5t-60.5 19.5h-82v-177z" />
<glyph unicode="&#xaf;" horiz-adv-x="1110" d="M301 1176l23 186h702l-25 -186h-700z" />
<glyph unicode="&#xb0;" horiz-adv-x="753" d="M121 1110q4 66 30.5 121t68.5 94t97.5 60.5t116.5 21.5t111.5 -23.5t86.5 -63.5t55.5 -94.5t17.5 -115.5q-2 -63 -28 -116.5t-67 -92.5t-96 -60.5t-117 -21.5q-63 0 -116.5 20.5t-90 59.5t-55 92t-14.5 119zM258 1106q-4 -66 37 -111t106 -45q66 0 114 42t50 114 q4 70 -40 116t-109 46q-66 0 -110 -47t-48 -115z" />
<glyph unicode="&#xb1;" d="M147 0l21 162h819l-20 -162h-820zM217 567l21 170h325l39 307h168l-37 -307h322l-21 -170h-321l-39 -311h-170l37 311h-324z" />
<glyph unicode="&#xb4;" horiz-adv-x="1110" d="M545 1198l315 369l137 -148l-364 -311z" />
<glyph unicode="&#xb6;" horiz-adv-x="1212" d="M156 973q0 98 34.5 184t95 148.5t143.5 98.5t179 36h668l-23 -189h-133l-207 -1673h-186l207 1673h-121l-205 -1673h-362l22 176h172l105 850h-31q-166 0 -262 100.5t-96 268.5z" />
<glyph unicode="&#xb7;" horiz-adv-x="514" d="M119 559q0 35 14 65.5t38 53t54.5 36t63.5 13.5q57 0 94 -38t37 -97q0 -37 -14.5 -68.5t-38 -55.5t-54 -37t-63.5 -13q-55 0 -93 41t-38 100z" />
<glyph unicode="&#xb8;" horiz-adv-x="980" d="M221 -414q113 10 182.5 41t69.5 80q0 20 -17.5 32.5t-43 18.5t-57 8.5t-60.5 2.5l-25 51q59 72 117.5 138.5t118.5 131.5q18 -14 36.5 -25.5t37.5 -23.5l-136 -154q92 -10 141.5 -50t49.5 -109q0 -41 -20.5 -84t-68.5 -79t-127 -60.5t-196 -24.5q-2 29 -2 53.5v52.5z" />
<glyph unicode="&#xba;" horiz-adv-x="784" d="M90 848q0 76 21.5 149.5t67.5 131t118 92t172 34.5q82 0 140.5 -22.5t96 -60t56 -90t18.5 -111.5q0 -70 -20.5 -141.5t-66.5 -130t-119.5 -95.5t-178.5 -37q-80 0 -138 21.5t-95 58.5t-54.5 88t-17.5 113zM297 836q2 -49 24.5 -86t88.5 -37q49 0 80.5 25.5t49 64.5 t23.5 85t6 87q-2 55 -24.5 95t-83.5 40q-51 0 -83 -27.5t-50.5 -68.5t-24.5 -89t-6 -89z" />
<glyph unicode="&#xbb;" horiz-adv-x="978" d="M45 84l244 319l-166 324l123 82l284 -367l-10 -77l-370 -367zM414 84l241 319l-166 324l125 82l283 -367l-10 -77l-373 -367z" />
<glyph unicode="&#xbf;" horiz-adv-x="985" d="M33 -172q0 111 55 191.5t133 144.5q76 57 132.5 100t93 83t54 81t17.5 94v68l215 26q4 -33 6 -61.5t2 -54.5q0 -74 -20.5 -129.5t-57 -103.5t-89 -92t-115.5 -93q-59 -45 -97 -86t-38 -100q0 -72 39.5 -106t128.5 -34q84 0 176 25l18 168h193l-39 -330 q-123 -41 -232.5 -58.5t-193.5 -17.5q-193 0 -287 76t-94 209zM477 860q0 70 51.5 114t112.5 44q57 0 93 -36t36 -87q0 -66 -45 -114t-117 -48q-57 0 -94 37t-37 90z" />
<glyph unicode="&#xc0;" horiz-adv-x="1462" d="M-12 0l20 193h115l561 1216h350l252 -1216h109l-23 -193h-514l21 193h127l-37 196h-486l-86 -196h129l-22 -193h-516zM535 1733l137 176l325 -301l-79 -107zM567 578h369l-62 340l-43 262h-6l-106 -250z" />
<glyph unicode="&#xc1;" horiz-adv-x="1462" d="M-12 0l20 193h115l561 1216h350l252 -1216h109l-23 -193h-514l21 193h127l-37 196h-486l-86 -196h129l-22 -193h-516zM567 578h369l-62 340l-43 262h-6l-106 -250zM760 1604l385 288l108 -170l-424 -225z" />
<glyph unicode="&#xc2;" horiz-adv-x="1462" d="M-12 0l20 193h115l561 1216h350l252 -1216h109l-23 -193h-514l21 193h127l-37 196h-486l-86 -196h129l-22 -193h-516zM467 1563l344 307h172l274 -305l-77 -86l-303 207l-349 -205zM567 578h369l-62 340l-43 262h-6l-106 -250z" />
<glyph unicode="&#xc3;" horiz-adv-x="1462" d="M-12 0l20 193h115l561 1216h350l252 -1216h109l-23 -193h-514l21 193h127l-37 196h-486l-86 -196h129l-22 -193h-516zM498 1585q47 98 104 142.5t121 44.5q43 0 87 -11.5t87 -26t84 -25.5t76 -11l123 80l67 -64q-41 -92 -96 -141t-125 -49q-49 0 -96 12t-90 27.5t-81 28 t-69 12.5l-119 -80zM567 578h369l-62 340l-43 262h-6l-106 -250z" />
<glyph unicode="&#xc4;" horiz-adv-x="1462" d="M-12 0l20 193h115l561 1216h350l252 -1216h109l-23 -193h-514l21 193h127l-37 196h-486l-86 -196h129l-22 -193h-516zM563 1626q4 57 47 95t92 38q53 0 86 -34t29 -87q-4 -57 -46 -96t-95 -39t-85 36t-28 87zM567 578h369l-62 340l-43 262h-6l-106 -250zM954 1626 q4 57 45 95t95 38q53 0 84.5 -34t27.5 -87q-4 -57 -45 -96t-98 -39q-53 0 -83 35t-26 88z" />
<glyph unicode="&#xc5;" horiz-adv-x="1462" d="M-12 0l20 193h115l561 1216h350l252 -1216h109l-23 -193h-514l21 193h127l-37 196h-486l-86 -196h129l-22 -193h-516zM567 578h369l-62 340l-43 262h-6l-106 -250zM639 1716q6 51 29.5 96.5t60.5 79t85 53t104 19.5q51 0 92 -19.5t68.5 -53t39.5 -79t6 -96.5t-29.5 -95 t-60.5 -77t-83 -52t-95 -19q-51 0 -94 19t-71.5 52t-43 78t-8.5 94zM768 1712q-6 -47 20.5 -83t81.5 -36q51 0 85 36t40 83q6 49 -19.5 85t-76.5 36q-53 0 -89 -35t-42 -86z" />
<glyph unicode="&#xc6;" horiz-adv-x="2039" d="M14 0l13 190h104l782 1215h1076l-21 -406h-201l11 215h-408q-4 -98 -11 -197t-11 -198l381 8l-11 -206l-381 12l-22 -443h448l13 226h204q-6 -104 -9 -208t-9 -208h-1079l10 190h143l11 222h-478q-37 -55 -72.5 -110.5t-70.5 -111.5h125l-12 -190h-525zM678 600h375 l39 608h-13q-98 -154 -200.5 -304t-200.5 -304z" />
<glyph unicode="&#xc7;" horiz-adv-x="1236" d="M127 559q0 92 12.5 193.5t44 199t86 185.5t138.5 154.5t199.5 105.5t271.5 39q109 0 200.5 -15.5t163.5 -42.5l-49 -395h-203l25 207q-31 8 -71 14t-81 6q-113 0 -194.5 -46t-136 -129t-80 -197.5t-25.5 -251.5q0 -190 87 -274.5t280 -84.5q25 0 61.5 3t79.5 8.5t87 13.5 t85 18l37 -217q-82 -31 -194.5 -50t-213.5 -23l-108 -123q92 -10 141 -50t49 -110q0 -41 -20.5 -84t-68.5 -79t-127 -60.5t-195 -24.5q-2 29 -2 53.5v53.5q113 10 182 40.5t69 79.5q0 20 -17 32.5t-43 19t-57.5 8.5t-60.5 2l-24 51q41 51 83 99.5t83 95.5q-139 10 -233.5 56 t-153 122t-83 177t-24.5 220z" />
<glyph unicode="&#xc8;" horiz-adv-x="1290" d="M35 0l20 193h140l124 1024h-133l23 190h1104l-51 -406h-201l26 216h-483l-49 -398l440 10l-22 -198l-441 10l-53 -448h520l29 225h205l-51 -418h-1147zM526 1733l138 176l325 -301l-80 -107z" />
<glyph unicode="&#xc9;" horiz-adv-x="1290" d="M35 0l20 193h140l124 1024h-133l23 190h1104l-51 -406h-201l26 216h-483l-49 -398l440 10l-22 -198l-441 10l-53 -448h520l29 225h205l-51 -418h-1147zM653 1604l385 288l109 -170l-424 -225z" />
<glyph unicode="&#xca;" horiz-adv-x="1290" d="M35 0l20 193h140l124 1024h-133l23 190h1104l-51 -406h-201l26 216h-483l-49 -398l440 10l-22 -198l-441 10l-53 -448h520l29 225h205l-51 -418h-1147zM420 1563l344 307h172l274 -305l-77 -86l-304 207l-348 -205z" />
<glyph unicode="&#xcb;" horiz-adv-x="1290" d="M35 0l20 193h140l124 1024h-133l23 190h1104l-51 -406h-201l26 216h-483l-49 -398l440 10l-22 -198l-441 10l-53 -448h520l29 225h205l-51 -418h-1147zM510 1626q4 57 47 95t92 38q53 0 86 -34t29 -87q-4 -57 -46 -96t-95 -39t-85 36t-28 87zM901 1626q4 57 45 95t94 38 t85 -34t28 -87q-4 -57 -45 -96t-98 -39q-53 0 -83 35t-26 88z" />
<glyph unicode="&#xcc;" horiz-adv-x="831" d="M88 0l23 193h135l125 1024h-135l24 192h553l-25 -192h-133l-127 -1024h136l-23 -193h-553zM219 1733l137 176l326 -301l-80 -107z" />
<glyph unicode="&#xcd;" horiz-adv-x="831" d="M88 0l23 193h135l125 1024h-135l24 192h553l-25 -192h-133l-127 -1024h136l-23 -193h-553zM424 1604l385 288l109 -170l-424 -225z" />
<glyph unicode="&#xce;" horiz-adv-x="831" d="M88 0l23 193h135l125 1024h-135l24 192h553l-25 -192h-133l-127 -1024h136l-23 -193h-553zM160 1563l344 307h172l274 -305l-78 -86l-303 207l-348 -205z" />
<glyph unicode="&#xcf;" horiz-adv-x="831" d="M88 0l23 193h135l125 1024h-135l24 192h553l-25 -192h-133l-127 -1024h136l-23 -193h-553zM238 1626q4 57 47 95t92 38q53 0 86 -34t29 -87q-4 -57 -46.5 -96t-95.5 -39t-85 36t-27 87zM629 1626q4 57 45 95t94 38t85 -34t28 -87q-4 -57 -45 -96t-99 -39q-53 0 -82.5 35 t-25.5 88z" />
<glyph unicode="&#xd0;" horiz-adv-x="1447" d="M35 0l20 193h146l55 458h-135l18 131h131l56 435h-136l25 192h621q160 0 266 -45t169.5 -124t90.5 -184.5t27 -228.5q0 -164 -39 -314.5t-123 -264t-219.5 -181t-327.5 -67.5h-645zM487 193h168q61 0 136 25.5t140.5 94t110.5 190.5t45 314q0 125 -28.5 203t-72.5 122 t-99.5 59.5t-108.5 15.5h-166l-53 -435h236l-17 -131h-235z" />
<glyph unicode="&#xd1;" horiz-adv-x="1617" d="M31 0l22 190h137q29 258 62 512t63 512h-135q4 47 10.5 96.5t12.5 96.5h440l191 -387l196 -412l92 -190h11l98 796h-137l24 193h533q-6 -47 -12.5 -96t-10.5 -97h-133q-37 -305 -74 -607t-75 -607h-275q-59 115 -114.5 227.5t-110.5 225.5q-8 16 -37 73.5t-60.5 123 t-61.5 122.5t-38 76q-23 45 -45 90t-43 92q-2 0 -3 -1t-3 -1q-27 -211 -52.5 -419t-49.5 -419h137q-6 -47 -12.5 -95t-10.5 -95h-536zM559 1630q47 98 104.5 142.5t120.5 44.5q43 0 87 -11.5t87 -26t84 -25.5t76 -11l123 80l68 -64q-41 -92 -96.5 -141t-125.5 -49 q-49 0 -96 12t-90 27.5t-81 28t-68 12.5l-119 -80z" />
<glyph unicode="&#xd2;" horiz-adv-x="1470" d="M127 565q0 170 43 328t132 277.5t225.5 191.5t320.5 72q154 0 260 -46.5t174 -127t98.5 -190t30.5 -239.5q0 -182 -47 -337.5t-137 -269t-223.5 -179t-305.5 -65.5q-150 0 -257 41.5t-176.5 118.5t-103.5 184.5t-34 240.5zM424 559q0 -180 68.5 -275.5t222.5 -95.5 q106 0 181 52.5t123 142.5t69.5 209t21.5 252q0 78 -12.5 147.5t-43 121.5t-83.5 83t-135 31q-117 0 -196 -59.5t-127 -154.5t-68.5 -215t-20.5 -239zM535 1733l137 176l325 -301l-79 -107z" />
<glyph unicode="&#xd3;" horiz-adv-x="1470" d="M127 565q0 170 43 328t132 277.5t225.5 191.5t320.5 72q154 0 260 -46.5t174 -127t98.5 -190t30.5 -239.5q0 -182 -47 -337.5t-137 -269t-223.5 -179t-305.5 -65.5q-150 0 -257 41.5t-176.5 118.5t-103.5 184.5t-34 240.5zM424 559q0 -180 68.5 -275.5t222.5 -95.5 q106 0 181 52.5t123 142.5t69.5 209t21.5 252q0 78 -12.5 147.5t-43 121.5t-83.5 83t-135 31q-117 0 -196 -59.5t-127 -154.5t-68.5 -215t-20.5 -239zM770 1604l385 288l109 -170l-424 -225z" />
<glyph unicode="&#xd4;" horiz-adv-x="1470" d="M127 565q0 170 43 328t132 277.5t225.5 191.5t320.5 72q154 0 260 -46.5t174 -127t98.5 -190t30.5 -239.5q0 -182 -47 -337.5t-137 -269t-223.5 -179t-305.5 -65.5q-150 0 -257 41.5t-176.5 118.5t-103.5 184.5t-34 240.5zM424 559q0 -180 68.5 -275.5t222.5 -95.5 q106 0 181 52.5t123 142.5t69.5 209t21.5 252q0 78 -12.5 147.5t-43 121.5t-83.5 83t-135 31q-117 0 -196 -59.5t-127 -154.5t-68.5 -215t-20.5 -239zM494 1563l344 307h172l274 -305l-78 -86l-303 207l-348 -205z" />
<glyph unicode="&#xd5;" horiz-adv-x="1470" d="M127 565q0 170 43 328t132 277.5t225.5 191.5t320.5 72q154 0 260 -46.5t174 -127t98.5 -190t30.5 -239.5q0 -182 -47 -337.5t-137 -269t-223.5 -179t-305.5 -65.5q-150 0 -257 41.5t-176.5 118.5t-103.5 184.5t-34 240.5zM424 559q0 -180 68.5 -275.5t222.5 -95.5 q106 0 181 52.5t123 142.5t69.5 209t21.5 252q0 78 -12.5 147.5t-43 121.5t-83.5 83t-135 31q-117 0 -196 -59.5t-127 -154.5t-68.5 -215t-20.5 -239zM524 1634q47 98 104.5 142.5t121.5 44.5q43 0 87 -11.5t87 -26t84 -25.5t75 -11l123 80l68 -64q-41 -92 -96 -141 t-125 -49q-49 0 -96.5 12t-90.5 27.5t-80.5 28t-68.5 12.5l-119 -80z" />
<glyph unicode="&#xd6;" horiz-adv-x="1470" d="M127 565q0 170 43 328t132 277.5t225.5 191.5t320.5 72q154 0 260 -46.5t174 -127t98.5 -190t30.5 -239.5q0 -182 -47 -337.5t-137 -269t-223.5 -179t-305.5 -65.5q-150 0 -257 41.5t-176.5 118.5t-103.5 184.5t-34 240.5zM424 559q0 -180 68.5 -275.5t222.5 -95.5 q106 0 181 52.5t123 142.5t69.5 209t21.5 252q0 78 -12.5 147.5t-43 121.5t-83.5 83t-135 31q-117 0 -196 -59.5t-127 -154.5t-68.5 -215t-20.5 -239zM573 1626q4 57 47.5 95t92.5 38q53 0 85.5 -34t28.5 -87q-4 -57 -46 -96t-95 -39t-85 36t-28 87zM965 1626q4 57 45 95 t94 38t85 -34t28 -87q-4 -57 -45.5 -96t-98.5 -39q-53 0 -82.5 35t-25.5 88z" />
<glyph unicode="&#xd8;" horiz-adv-x="1470" d="M39 -12q29 29 77 79t109 119q-92 135 -98 346q0 178 41 341t128 287t223 199t329 75q133 0 230.5 -35t162.5 -99l123 134h131l-190 -207q55 -78 79.5 -178.5t24.5 -217.5q0 -182 -46 -336.5t-137 -269t-223.5 -179t-304.5 -64.5q-141 0 -243.5 35.5t-173.5 101.5 q-29 -35 -61 -67t-60 -64h-121zM424 586q0 -45 2 -88t12 -84l621 688q-31 57 -84 91t-139 34q-115 0 -193 -56.5t-126 -147.5t-69.5 -206t-23.5 -231zM469 317q35 -63 94.5 -97t151.5 -34q106 0 181 52.5t122 142.5t69.5 210t22.5 253q0 43 -4 82t-14 75z" />
<glyph unicode="&#xd9;" horiz-adv-x="1503" d="M162 1217l22 192h523l-21 -192h-129l-88 -711q-37 -317 260 -318q131 0 217 77t107 241l88 711h-127l24 192h523l-25 -192h-119l-86 -699q-16 -125 -59 -224t-118 -169t-182.5 -106.5t-254.5 -36.5q-158 0 -265.5 38.5t-170 110.5t-84 174.5t-4.5 231.5l83 680h-114z M545 1733l137 176l326 -301l-80 -107z" />
<glyph unicode="&#xda;" horiz-adv-x="1503" d="M162 1217l22 192h523l-21 -192h-129l-88 -711q-37 -317 260 -318q131 0 217 77t107 241l88 711h-127l24 192h523l-25 -192h-119l-86 -699q-16 -125 -59 -224t-118 -169t-182.5 -106.5t-254.5 -36.5q-158 0 -265.5 38.5t-170 110.5t-84 174.5t-4.5 231.5l83 680h-114z M762 1604l385 288l108 -170l-424 -225z" />
<glyph unicode="&#xdb;" horiz-adv-x="1503" d="M162 1217l22 192h523l-21 -192h-129l-88 -711q-37 -317 260 -318q131 0 217 77t107 241l88 711h-127l24 192h523l-25 -192h-119l-86 -699q-16 -125 -59 -224t-118 -169t-182.5 -106.5t-254.5 -36.5q-158 0 -265.5 38.5t-170 110.5t-84 174.5t-4.5 231.5l83 680h-114z M485 1563l357 301h178l287 -299l-82 -84l-316 202l-360 -200z" />
<glyph unicode="&#xdc;" horiz-adv-x="1503" d="M162 1217l22 192h523l-21 -192h-129l-88 -711q-37 -317 260 -318q131 0 217 77t107 241l88 711h-127l24 192h523l-25 -192h-119l-86 -699q-16 -125 -59 -224t-118 -169t-182.5 -106.5t-254.5 -36.5q-158 0 -265.5 38.5t-170 110.5t-84 174.5t-4.5 231.5l83 680h-114z M586 1626q4 57 47 95t92 38q53 0 86 -34t29 -87q-4 -57 -46 -96t-96 -39q-53 0 -84.5 36t-27.5 87zM977 1626q4 57 45 95t94 38t85 -34t28 -87q-4 -57 -45 -96t-99 -39q-53 0 -82.5 35t-25.5 88z" />
<glyph unicode="&#xdd;" horiz-adv-x="1323" d="M123 1214l22 195h506l-24 -195h-119l186 -458h8l304 458h-123l24 195h512l-24 -195h-101l-469 -657l-43 -364h154l-21 -193h-616l20 193h158l43 360l-297 661h-100zM668 1602l385 288l108 -170l-424 -225z" />
<glyph unicode="&#xde;" horiz-adv-x="1257" d="M31 0l22 178h137l127 1043h-141l25 188h569l-22 -188h-146l-16 -115h235q221 0 323.5 -88t102.5 -256q0 -84 -29.5 -162t-90 -138.5t-154.5 -97t-223 -34.5h-256l-21 -152h150l-21 -178h-571zM512 496h186q49 0 94.5 14t81 45t56 80t20.5 117q0 100 -54 145t-146 45h-185 z" />
<glyph unicode="&#xdf;" horiz-adv-x="1318" d="M-254 -410l45 181q51 -10 82 -13.5t61 -3.5q80 0 124 45t72 160t49.5 310.5t58.5 496.5h-138q4 39 8.5 77t8.5 77h133q4 29 7 82t17.5 116.5t44 128t87 117.5t147.5 87t223 34q98 0 167 -24.5t111 -62.5t61.5 -83t19.5 -86q0 -74 -39 -133.5t-86 -109.5t-86 -91t-39 -78 q0 -51 53 -100t117.5 -107.5t118 -131t53.5 -171.5q0 -72 -29 -132t-81 -105t-128 -71t-170 -26q-74 0 -151.5 13.5t-141.5 33.5l58 179q61 -20 107 -28.5t93 -8.5q63 0 111.5 31.5t48.5 93.5q0 45 -22.5 85t-55 77.5t-71.5 75.5t-72 79t-55.5 88t-22.5 105q0 47 17.5 86 t44 69.5t58.5 58t58.5 54.5t44 54.5t17.5 60.5q0 18 -6.5 36.5t-22.5 35t-45 26.5t-72 10q-90 0 -140 -54.5t-60 -150.5q-27 -217 -51.5 -434t-49.5 -436q-16 -137 -39.5 -258t-71.5 -210t-130 -140t-217 -51h-23q-43 2 -97.5 11t-113.5 25z" />
<glyph unicode="&#xe0;" horiz-adv-x="1239" d="M82 326q0 143 34 270t101.5 222t169 150.5t234.5 55.5q119 0 243 -59l47 59l199 -12q-37 -236 -67.5 -444t-47.5 -373q43 4 78 16t76 33q2 -6 10 -23.5t18.5 -39t18.5 -39t12 -23.5q-33 -31 -73.5 -57.5t-83.5 -47t-84 -32t-76 -11.5q-80 0 -116 37t-42 98q-2 35 2 71 t10 75h-10q-45 -80 -92 -133t-94 -85t-95 -44.5t-96 -12.5q-127 0 -201.5 86.5t-74.5 262.5zM356 371q0 -100 34 -149.5t87 -49.5q33 0 70 18.5t73.5 62.5t74.5 117.5t73 184.5l39 231q-53 18 -97 24.5t-75 6.5q-80 0 -133 -44t-86 -110.5t-46.5 -145.5t-13.5 -146z M387 1425l158 146l258 -367l-98 -90z" />
<glyph unicode="&#xe1;" horiz-adv-x="1239" d="M82 326q0 143 34 270t101.5 222t169 150.5t234.5 55.5q119 0 243 -59l47 59l199 -12q-37 -236 -67.5 -444t-47.5 -373q43 4 78 16t76 33q2 -6 10 -23.5t18.5 -39t18.5 -39t12 -23.5q-33 -31 -73.5 -57.5t-83.5 -47t-84 -32t-76 -11.5q-80 0 -116 37t-42 98q-2 35 2 71 t10 75h-10q-45 -80 -92 -133t-94 -85t-95 -44.5t-96 -12.5q-127 0 -201.5 86.5t-74.5 262.5zM356 371q0 -100 34 -149.5t87 -49.5q33 0 70 18.5t73.5 62.5t74.5 117.5t73 184.5l39 231q-53 18 -97 24.5t-75 6.5q-80 0 -133 -44t-86 -110.5t-46.5 -145.5t-13.5 -146z M567 1198l316 369l137 -148l-365 -311z" />
<glyph unicode="&#xe2;" horiz-adv-x="1239" d="M82 326q0 143 34 270t101.5 222t169 150.5t234.5 55.5q119 0 243 -59l47 59l199 -12q-37 -236 -67.5 -444t-47.5 -373q43 4 78 16t76 33q2 -6 10 -23.5t18.5 -39t18.5 -39t12 -23.5q-33 -31 -73.5 -57.5t-83.5 -47t-84 -32t-76 -11.5q-80 0 -116 37t-42 98q-2 35 2 71 t10 75h-10q-45 -80 -92 -133t-94 -85t-95 -44.5t-96 -12.5q-127 0 -201.5 86.5t-74.5 262.5zM295 1178l340 305h174l272 -303l-77 -86l-302 206l-348 -204zM356 371q0 -100 34 -149.5t87 -49.5q33 0 70 18.5t73.5 62.5t74.5 117.5t73 184.5l39 231q-53 18 -97 24.5t-75 6.5 q-80 0 -133 -44t-86 -110.5t-46.5 -145.5t-13.5 -146z" />
<glyph unicode="&#xe3;" horiz-adv-x="1239" d="M82 326q0 143 34 270t101.5 222t169 150.5t234.5 55.5q119 0 243 -59l47 59l199 -12q-37 -236 -67.5 -444t-47.5 -373q43 4 78 16t76 33q2 -6 10 -23.5t18.5 -39t18.5 -39t12 -23.5q-33 -31 -73.5 -57.5t-83.5 -47t-84 -32t-76 -11.5q-80 0 -116 37t-42 98q-2 35 2 71 t10 75h-10q-45 -80 -92 -133t-94 -85t-95 -44.5t-96 -12.5q-127 0 -201.5 86.5t-74.5 262.5zM326 1233q47 98 104 142t121 44q43 0 87 -11t87 -25.5t84 -25.5t76 -11l123 79l67 -63q-41 -92 -96 -141.5t-125 -49.5q-49 0 -96 12.5t-90 28t-81 27.5t-69 12l-119 -80zM356 371 q0 -100 34 -149.5t87 -49.5q33 0 70 18.5t73.5 62.5t74.5 117.5t73 184.5l39 231q-53 18 -97 24.5t-75 6.5q-80 0 -133 -44t-86 -110.5t-46.5 -145.5t-13.5 -146z" />
<glyph unicode="&#xe4;" horiz-adv-x="1239" d="M82 326q0 143 34 270t101.5 222t169 150.5t234.5 55.5q119 0 243 -59l47 59l199 -12q-37 -236 -67.5 -444t-47.5 -373q43 4 78 16t76 33q2 -6 10 -23.5t18.5 -39t18.5 -39t12 -23.5q-33 -31 -73.5 -57.5t-83.5 -47t-84 -32t-76 -11.5q-80 0 -116 37t-42 98q-2 35 2 71 t10 75h-10q-45 -80 -92 -133t-94 -85t-95 -44.5t-96 -12.5q-127 0 -201.5 86.5t-74.5 262.5zM356 371q0 -100 34 -149.5t87 -49.5q33 0 70 18.5t73.5 62.5t74.5 117.5t73 184.5l39 231q-53 18 -97 24.5t-75 6.5q-80 0 -133 -44t-86 -110.5t-46.5 -145.5t-13.5 -146z M358 1266q2 63 48.5 104t99.5 41t87 -34t32 -87q-4 -61 -47 -104t-103 -43q-53 0 -87 34.5t-30 88.5zM762 1266q2 63 47 104t98 41t87 -34t30 -87q-2 -61 -45 -104t-105 -43q-51 0 -82.5 34.5t-29.5 88.5z" />
<glyph unicode="&#xe5;" horiz-adv-x="1239" d="M82 326q0 143 34 270t101.5 222t169 150.5t234.5 55.5q119 0 243 -59l47 59l199 -12q-37 -236 -67.5 -444t-47.5 -373q43 4 78 16t76 33q2 -6 10 -23.5t18.5 -39t18.5 -39t12 -23.5q-33 -31 -73.5 -57.5t-83.5 -47t-84 -32t-76 -11.5q-80 0 -116 37t-42 98q-2 35 2 71 t10 75h-10q-45 -80 -92 -133t-94 -85t-95 -44.5t-96 -12.5q-127 0 -201.5 86.5t-74.5 262.5zM356 371q0 -100 34 -149.5t87 -49.5q33 0 70 18.5t73.5 62.5t74.5 117.5t73 184.5l39 231q-53 18 -97 24.5t-75 6.5q-80 0 -133 -44t-86 -110.5t-46.5 -145.5t-13.5 -146z M471 1374q6 51 29.5 96.5t60.5 79t85 53t104 19.5q51 0 92 -19.5t68.5 -53t40 -79t5.5 -96.5q-6 -51 -29.5 -95t-60.5 -77t-83 -52.5t-95 -19.5q-51 0 -94 19.5t-71.5 52.5t-43 78t-8.5 94zM600 1370q-6 -47 20.5 -83t81.5 -36q51 0 85 36t40 83q6 49 -19.5 85t-76.5 36 q-53 0 -89 -35t-42 -86z" />
<glyph unicode="&#xe6;" horiz-adv-x="1667" d="M63 211q0 63 23 129t93.5 117t201.5 80.5t348 23.5q2 20 6 55t4 50q0 90 -42 123.5t-146 33.5q-76 0 -158 -13t-151 -36l-39 170q92 39 201.5 60.5t213.5 21.5q43 0 86.5 -4t82 -20.5t68.5 -48t48 -85.5q66 80 160 121t227 41q141 0 228.5 -71.5t87.5 -202.5 q0 -147 -148.5 -232.5t-472.5 -97.5q0 -16 -1 -32.5t-1 -33.5q0 -39 7 -72.5t27.5 -59t57.5 -41t96 -15.5q74 0 153 18.5t151 47.5l53 -156q-86 -47 -202 -73.5t-220 -26.5q-137 0 -217 43t-119 114q-115 -92 -232.5 -130t-211.5 -38q-84 0 -135.5 21.5t-79 56.5t-38 78 t-10.5 84zM358 258q0 -49 27 -78.5t82 -29.5q20 0 49 4t62.5 16t70.5 33.5t72 56.5q-6 51 -6 111v67q-115 -2 -184.5 -17t-108.5 -40t-51.5 -56.5t-12.5 -66.5zM991 551q180 4 276.5 44t96.5 130q0 47 -28 78t-87 31t-105 -21.5t-78 -59.5t-51.5 -90.5t-23.5 -111.5z" />
<glyph unicode="&#xe7;" horiz-adv-x="991" d="M82 362q0 117 25.5 236t89 214t170 154.5t268.5 59.5q31 0 63.5 -3t64.5 -8t57.5 -12.5t39.5 -13.5q45 -16 64.5 -40.5t19.5 -65.5q0 -18 -6 -48t-15.5 -66t-22.5 -71.5t-26 -66.5l-145 8l6 174q-18 6 -44.5 9t-55.5 3q-70 0 -121 -33.5t-85 -91t-50.5 -134.5t-16.5 -160 q0 -104 46.5 -160t150.5 -56q61 0 121.5 10.5t138.5 32.5l53 -170q-66 -31 -156.5 -52t-180.5 -27l-84 -97q92 -10 141 -50t49 -109q0 -41 -20.5 -84t-68.5 -79t-127 -60.5t-196 -24.5q-2 29 -2 53.5v52.5q113 10 182.5 41t69.5 80q0 20 -17.5 32.5t-43 18.5t-57 8.5 t-60.5 2.5l-25 51q70 86 142 166q-94 8 -158.5 38.5t-103.5 80t-56.5 115t-17.5 142.5z" />
<glyph unicode="&#xe8;" horiz-adv-x="1036" d="M82 383q0 111 27.5 225.5t94 207.5t177 153.5t276.5 60.5q141 0 229.5 -71.5t88.5 -202.5q0 -154 -147.5 -248t-473.5 -113q-2 -10 -2 -21.5v-21.5q0 -35 7.5 -67.5t29 -57t57 -40t95.5 -15.5q72 0 150.5 18.5t150.5 47.5l51 -156q-86 -47 -199.5 -73.5t-218.5 -26.5 q-121 0 -197.5 31.5t-119.5 87t-59.5 128t-16.5 154.5zM332 1425l157 146l259 -367l-99 -90zM360 526q365 16 365 199q0 47 -26 78t-83 31q-113 0 -177 -82t-79 -226z" />
<glyph unicode="&#xe9;" horiz-adv-x="1036" d="M82 383q0 111 27.5 225.5t94 207.5t177 153.5t276.5 60.5q141 0 229.5 -71.5t88.5 -202.5q0 -154 -147.5 -248t-473.5 -113q-2 -10 -2 -21.5v-21.5q0 -35 7.5 -67.5t29 -57t57 -40t95.5 -15.5q72 0 150.5 18.5t150.5 47.5l51 -156q-86 -47 -199.5 -73.5t-218.5 -26.5 q-121 0 -197.5 31.5t-119.5 87t-59.5 128t-16.5 154.5zM360 526q365 16 365 199q0 47 -26 78t-83 31q-113 0 -177 -82t-79 -226zM524 1198l316 369l137 -148l-365 -311z" />
<glyph unicode="&#xea;" horiz-adv-x="1036" d="M82 383q0 111 27.5 225.5t94 207.5t177 153.5t276.5 60.5q141 0 229.5 -71.5t88.5 -202.5q0 -154 -147.5 -248t-473.5 -113q-2 -10 -2 -21.5v-21.5q0 -35 7.5 -67.5t29 -57t57 -40t95.5 -15.5q72 0 150.5 18.5t150.5 47.5l51 -156q-86 -47 -199.5 -73.5t-218.5 -26.5 q-121 0 -197.5 31.5t-119.5 87t-59.5 128t-16.5 154.5zM223 1178l340 305h174l273 -303l-78 -86l-301 206l-348 -204zM360 526q365 16 365 199q0 47 -26 78t-83 31q-113 0 -177 -82t-79 -226z" />
<glyph unicode="&#xeb;" horiz-adv-x="1036" d="M82 383q0 111 27.5 225.5t94 207.5t177 153.5t276.5 60.5q141 0 229.5 -71.5t88.5 -202.5q0 -154 -147.5 -248t-473.5 -113q-2 -10 -2 -21.5v-21.5q0 -35 7.5 -67.5t29 -57t57 -40t95.5 -15.5q72 0 150.5 18.5t150.5 47.5l51 -156q-86 -47 -199.5 -73.5t-218.5 -26.5 q-121 0 -197.5 31.5t-119.5 87t-59.5 128t-16.5 154.5zM317 1266q2 63 48.5 104t99.5 41t87 -34t32 -87q-4 -61 -47 -104t-103 -43q-53 0 -87 34.5t-30 88.5zM360 526q365 16 365 199q0 47 -26 78t-83 31q-113 0 -177 -82t-79 -226zM721 1266q2 63 47 104t98 41t87 -34 t30 -87q-2 -61 -45 -104t-104 -43q-51 0 -83 34.5t-30 88.5z" />
<glyph unicode="&#xec;" horiz-adv-x="722" d="M96 844l8 133q100 29 178.5 40t131.5 11q82 0 110.5 -26.5t28.5 -79.5q0 -10 -6 -61.5t-14.5 -123t-19.5 -155.5t-21.5 -161t-18.5 -138.5t-10 -87.5q39 4 80 14t78 29l55 -123q-78 -72 -170 -109t-158 -37q-96 0 -132 43t-36 113q0 12 1 25.5t3 27.5l82 637zM104 1425 l158 146l258 -367l-98 -90z" />
<glyph unicode="&#xed;" horiz-adv-x="755" d="M96 844l8 133q100 29 178.5 40t131.5 11q82 0 110.5 -26.5t28.5 -79.5q0 -10 -6 -61.5t-14.5 -123t-19.5 -155.5t-21.5 -161t-18.5 -138.5t-10 -87.5q39 4 80 14t78 29l55 -123q-78 -72 -170 -109t-158 -37q-96 0 -132 43t-36 113q0 12 1 25.5t3 27.5l82 637zM326 1198 l315 369l137 -148l-364 -311z" />
<glyph unicode="&#xee;" horiz-adv-x="747" d="M4 1178l340 305h174l273 -303l-78 -86l-301 206l-349 -204zM96 844l8 133q100 29 178.5 40t131.5 11q82 0 110.5 -26.5t28.5 -79.5q0 -10 -6 -61.5t-14.5 -123t-19.5 -155.5t-21.5 -161t-18.5 -138.5t-10 -87.5q39 4 80 14t78 29l55 -123q-78 -72 -170 -109t-158 -37 q-96 0 -132 43t-36 113q0 12 1 25.5t3 27.5l82 637z" />
<glyph unicode="&#xef;" horiz-adv-x="741" d="M74 1266q2 63 48 104t99 41t87 -34t32 -87q-4 -61 -47 -104t-103 -43q-53 0 -86.5 34.5t-29.5 88.5zM96 844l8 133q100 29 178.5 40t131.5 11q82 0 110.5 -26.5t28.5 -79.5q0 -10 -6 -61.5t-14.5 -123t-19.5 -155.5t-21.5 -161t-18.5 -138.5t-10 -87.5q39 4 80 14t78 29 l55 -123q-78 -72 -170 -109t-158 -37q-96 0 -132 43t-36 113q0 12 1 25.5t3 27.5l82 637zM477 1266q2 63 47 104t99 41q53 0 86.5 -34t29.5 -87q-2 -61 -45 -104t-104 -43q-51 0 -83 34.5t-30 88.5z" />
<glyph unicode="&#xf0;" horiz-adv-x="1146" d="M82 371q0 135 40 241.5t109.5 180t160.5 112.5t194 39q59 0 122.5 -14.5t104.5 -38.5q-10 78 -41 154.5t-86 146.5q-51 -31 -101 -63.5t-100 -63.5q-14 20 -26.5 39.5t-24.5 40.5l182 119q-63 61 -155 112l84 144q150 -63 252 -144l192 123q12 -20 25.5 -39.5t27.5 -40.5 l-172 -108q115 -119 166 -268.5t51 -325.5q0 -66 -8 -147t-30.5 -161.5t-62.5 -157.5t-104.5 -136.5t-156.5 -95t-217 -35.5q-111 0 -190.5 29.5t-132 80.5t-78 122t-25.5 155zM360 379q0 -39 7.5 -76t28 -64.5t54 -45t87.5 -17.5q88 0 141 56.5t81.5 136.5t38 168t11.5 151 q-51 35 -104.5 50.5t-92.5 15.5q-72 0 -120 -37t-76.5 -93.5t-42 -122t-13.5 -122.5z" />
<glyph unicode="&#xf1;" horiz-adv-x="1308" d="M70 842l8 133q102 29 177 40t134 11q84 0 108.5 -28.5t24.5 -84.5q0 -33 -5 -80t-13 -102h8q49 88 106.5 145.5t112.5 90t105.5 46t85.5 13.5q117 0 167 -67.5t50 -182.5q0 -45 -18.5 -198.5t-45.5 -382.5q39 2 74 13t74 30q2 -6 10 -23.5t17.5 -39t16.5 -39t11 -23.5 q-41 -37 -87 -63.5t-91 -44t-85 -26t-71 -8.5q-90 0 -119.5 37t-29.5 109q0 10 2 34.5t4 41.5q10 100 20 187t17.5 154.5l12.5 112.5t5 64q0 41 -18.5 71.5t-63.5 30.5q-72 0 -152.5 -89t-140.5 -284l-59 -440h-272q18 139 30.5 239.5t23.5 188.5t21.5 177t24.5 206z M297 1241q47 98 104.5 142t120.5 44q43 0 87 -11t87 -25.5t84 -25.5t76 -11l123 80l68 -64q-41 -92 -96.5 -141t-125.5 -49q-49 0 -96 12t-90 27.5t-81 28t-69 12.5l-118 -80z" />
<glyph unicode="&#xf2;" horiz-adv-x="1136" d="M82 401q0 119 32.5 230.5t100.5 200t173.5 141.5t250.5 53q117 0 199 -32.5t135 -91t77.5 -137.5t24.5 -171q0 -111 -31.5 -220.5t-99 -196.5t-174 -141t-256.5 -54q-117 0 -199 31.5t-134 88t-75.5 133t-23.5 166.5zM360 385q0 -43 8.5 -81t29 -66.5t54 -45t85.5 -16.5 q76 0 125 41t77.5 104.5t40 138.5t11.5 140q0 45 -8.5 86t-27 71.5t-51 48t-81.5 17.5q-78 0 -129.5 -45t-81 -110.5t-41 -142t-11.5 -140.5zM375 1425l157 146l259 -367l-99 -90z" />
<glyph unicode="&#xf3;" horiz-adv-x="1136" d="M82 401q0 119 32.5 230.5t100.5 200t173.5 141.5t250.5 53q117 0 199 -32.5t135 -91t77.5 -137.5t24.5 -171q0 -111 -31.5 -220.5t-99 -196.5t-174 -141t-256.5 -54q-117 0 -199 31.5t-134 88t-75.5 133t-23.5 166.5zM360 385q0 -43 8.5 -81t29 -66.5t54 -45t85.5 -16.5 q76 0 125 41t77.5 104.5t40 138.5t11.5 140q0 45 -8.5 86t-27 71.5t-51 48t-81.5 17.5q-78 0 -129.5 -45t-81 -110.5t-41 -142t-11.5 -140.5zM541 1198l315 369l137 -148l-364 -311z" />
<glyph unicode="&#xf4;" horiz-adv-x="1136" d="M82 401q0 119 32.5 230.5t100.5 200t173.5 141.5t250.5 53q117 0 199 -32.5t135 -91t77.5 -137.5t24.5 -171q0 -111 -31.5 -220.5t-99 -196.5t-174 -141t-256.5 -54q-117 0 -199 31.5t-134 88t-75.5 133t-23.5 166.5zM268 1178l340 305h174l273 -303l-78 -86l-301 206 l-348 -204zM360 385q0 -43 8.5 -81t29 -66.5t54 -45t85.5 -16.5q76 0 125 41t77.5 104.5t40 138.5t11.5 140q0 45 -8.5 86t-27 71.5t-51 48t-81.5 17.5q-78 0 -129.5 -45t-81 -110.5t-41 -142t-11.5 -140.5z" />
<glyph unicode="&#xf5;" horiz-adv-x="1136" d="M82 401q0 119 32.5 230.5t100.5 200t173.5 141.5t250.5 53q117 0 199 -32.5t135 -91t77.5 -137.5t24.5 -171q0 -111 -31.5 -220.5t-99 -196.5t-174 -141t-256.5 -54q-117 0 -199 31.5t-134 88t-75.5 133t-23.5 166.5zM307 1225q47 98 104.5 142t120.5 44q43 0 87.5 -11 t87.5 -25.5t83.5 -26t75.5 -11.5l123 80l68 -63q-41 -92 -96 -141.5t-125 -49.5q-49 0 -96.5 12.5t-90.5 28t-81 27.5t-68 12l-119 -80zM360 385q0 -43 8.5 -81t29 -66.5t54 -45t85.5 -16.5q76 0 125 41t77.5 104.5t40 138.5t11.5 140q0 45 -8.5 86t-27 71.5t-51 48 t-81.5 17.5q-78 0 -129.5 -45t-81 -110.5t-41 -142t-11.5 -140.5z" />
<glyph unicode="&#xf6;" horiz-adv-x="1136" d="M82 401q0 119 32.5 230.5t100.5 200t173.5 141.5t250.5 53q117 0 199 -32.5t135 -91t77.5 -137.5t24.5 -171q0 -111 -31.5 -220.5t-99 -196.5t-174 -141t-256.5 -54q-117 0 -199 31.5t-134 88t-75.5 133t-23.5 166.5zM348 1266q2 63 48 104t100 41q53 0 86.5 -34 t31.5 -87q-4 -61 -47 -104t-102 -43q-53 0 -87 34.5t-30 88.5zM360 385q0 -43 8.5 -81t29 -66.5t54 -45t85.5 -16.5q76 0 125 41t77.5 104.5t40 138.5t11.5 140q0 45 -8.5 86t-27 71.5t-51 48t-81.5 17.5q-78 0 -129.5 -45t-81 -110.5t-41 -142t-11.5 -140.5zM752 1266 q2 63 47 104t98 41t87 -34t30 -87q-2 -61 -45 -104t-105 -43q-51 0 -82.5 34.5t-29.5 88.5z" />
<glyph unicode="&#xf7;" d="M193 535l20 170h827l-20 -170h-827zM442 264q4 57 48.5 97t99.5 40q53 0 86 -36t29 -89q-4 -59 -48.5 -101t-97.5 -42t-87 39t-30 92zM528 967q4 55 49.5 96t98.5 41t86 -36t29 -89q-4 -59 -48.5 -101t-97.5 -42t-87 38.5t-30 92.5z" />
<glyph unicode="&#xf8;" horiz-adv-x="1142" d="M25 -14q35 35 67.5 68.5t67.5 68.5q-35 47 -54.5 107.5t-23.5 127.5q0 129 27.5 249t92 212t171 148.5t262.5 56.5q100 0 175 -24.5t128 -71.5l88 96h104l-139 -147q43 -59 62.5 -137t19.5 -171q0 -113 -33.5 -218t-103.5 -187t-175.5 -131t-248.5 -49q-195 0 -301 88 q-23 -23 -42 -44.5t-42 -39.5q-25 0 -50.5 -1t-51.5 -1zM362 420q0 -25 2.5 -48.5t8.5 -45.5l381 428q-18 33 -50 51t-81 18q-72 0 -122 -41t-81 -101t-44.5 -131t-13.5 -130zM393 246q40 -70 142 -70q70 0 118.5 38t77.5 94.5t42 123t13 123.5q0 29 -1 58.5t-11 58.5 q-94 -106 -189.5 -212t-191.5 -214z" />
<glyph unicode="&#xf9;" horiz-adv-x="1300" d="M72 844l12 129q98 29 179 41t140 12q78 0 105 -37t27 -100q0 -23 -5.5 -70t-11.5 -105.5t-15 -123t-15.5 -121.5t-11.5 -103.5t-5 -68.5q0 -47 17.5 -74.5t64.5 -27.5q33 0 69.5 19t75.5 64.5t75 117t67 173.5l59 435h262q-27 -197 -53.5 -406t-50.5 -405q43 2 80 13 t73 27l56 -120q-39 -37 -82 -62.5t-86 -43t-83 -26t-71 -8.5q-82 0 -114.5 37t-32.5 90q0 35 4 76t8 74h-10q-47 -80 -99.5 -132t-104.5 -83t-101.5 -43t-87.5 -12q-221 0 -222 208q0 90 20.5 241t49.5 386zM416 1425l157 146l258 -367l-98 -90z" />
<glyph unicode="&#xfa;" horiz-adv-x="1300" d="M72 844l12 129q98 29 179 41t140 12q78 0 105 -37t27 -100q0 -23 -5.5 -70t-11.5 -105.5t-15 -123t-15.5 -121.5t-11.5 -103.5t-5 -68.5q0 -47 17.5 -74.5t64.5 -27.5q33 0 69.5 19t75.5 64.5t75 117t67 173.5l59 435h262q-27 -197 -53.5 -406t-50.5 -405q43 2 80 13 t73 27l56 -120q-39 -37 -82 -62.5t-86 -43t-83 -26t-71 -8.5q-82 0 -114.5 37t-32.5 90q0 35 4 76t8 74h-10q-47 -80 -99.5 -132t-104.5 -83t-101.5 -43t-87.5 -12q-221 0 -222 208q0 90 20.5 241t49.5 386zM598 1198l315 369l138 -148l-365 -311z" />
<glyph unicode="&#xfb;" horiz-adv-x="1300" d="M72 844l12 129q98 29 179 41t140 12q78 0 105 -37t27 -100q0 -23 -5.5 -70t-11.5 -105.5t-15 -123t-15.5 -121.5t-11.5 -103.5t-5 -68.5q0 -47 17.5 -74.5t64.5 -27.5q33 0 69.5 19t75.5 64.5t75 117t67 173.5l59 435h262q-27 -197 -53.5 -406t-50.5 -405q43 2 80 13 t73 27l56 -120q-39 -37 -82 -62.5t-86 -43t-83 -26t-71 -8.5q-82 0 -114.5 37t-32.5 90q0 35 4 76t8 74h-10q-47 -80 -99.5 -132t-104.5 -83t-101.5 -43t-87.5 -12q-221 0 -222 208q0 90 20.5 241t49.5 386zM332 1178l340 305h174l272 -303l-78 -86l-301 206l-348 -204z" />
<glyph unicode="&#xfc;" horiz-adv-x="1300" d="M72 844l12 129q98 29 179 41t140 12q78 0 105 -37t27 -100q0 -23 -5.5 -70t-11.5 -105.5t-15 -123t-15.5 -121.5t-11.5 -103.5t-5 -68.5q0 -47 17.5 -74.5t64.5 -27.5q33 0 69.5 19t75.5 64.5t75 117t67 173.5l59 435h262q-27 -197 -53.5 -406t-50.5 -405q43 2 80 13 t73 27l56 -120q-39 -37 -82 -62.5t-86 -43t-83 -26t-71 -8.5q-82 0 -114.5 37t-32.5 90q0 35 4 76t8 74h-10q-47 -80 -99.5 -132t-104.5 -83t-101.5 -43t-87.5 -12q-221 0 -222 208q0 90 20.5 241t49.5 386zM395 1266q2 63 48 104t100 41q53 0 87 -34t32 -87 q-4 -61 -47.5 -104t-102.5 -43q-53 0 -87 34.5t-30 88.5zM799 1266q2 63 47 104t98 41t87 -34t30 -87q-2 -61 -45 -104t-105 -43q-51 0 -82.5 34.5t-29.5 88.5z" />
<glyph unicode="&#xfd;" horiz-adv-x="1167" d="M-254 -309q0 16 2 26l90 72q55 -41 98.5 -49t86.5 -8q98 0 208.5 45t200.5 137q-23 104 -49.5 226t-54 243t-54 228.5t-47.5 181.5q-39 -8 -75.5 -15.5t-73.5 -17.5q-10 29 -20.5 59.5t-20.5 59.5q86 74 166 107.5t131 33.5q53 0 82.5 -19.5t44.5 -80.5q14 -61 34.5 -161 t42 -210.5t42 -219t34.5 -188.5q53 63 95.5 148.5t72 176.5t46 181t16.5 164q-35 -6 -69 -12t-68 -15l-33 125q76 59 149.5 90t139.5 31q72 0 104.5 -49t32.5 -160q0 -131 -45 -277.5t-124 -289.5t-187.5 -274.5t-235.5 -231.5t-267.5 -159.5t-283.5 -59.5q-33 0 -70 8 t-68.5 26.5t-52 49.5t-20.5 78zM518 1198l316 369l137 -148l-365 -311z" />
<glyph unicode="&#xfe;" horiz-adv-x="1196" d="M-70 -428l23 186h127q18 156 41.5 356.5t48.5 408.5t47.5 404.5t38.5 344.5l-178 31l8 133q80 25 164 39t153 14q72 0 99.5 -28.5t27.5 -84.5q0 -14 -2 -22q-4 -35 -13 -120t-19.5 -183.5t-20.5 -188.5t-16 -133h10q92 162 192.5 225.5t192.5 63.5q121 0 194.5 -88 t73.5 -273q0 -141 -33.5 -265t-101 -216t-168 -145.5t-235.5 -53.5q-47 0 -96.5 9.5t-102.5 23.5q-8 -59 -15.5 -122.5t-17.5 -129.5h166q-4 -47 -10 -93t-12 -93h-566zM406 209q51 -18 95 -24.5t72 -6.5q80 0 134.5 42t86 105.5t45 137.5t13.5 139q0 104 -35 154.5 t-90 50.5q-33 0 -69.5 -18.5t-74.5 -62.5t-76 -117.5t-71 -184.5q-10 -53 -16 -106.5t-14 -108.5z" />
<glyph unicode="&#xff;" horiz-adv-x="1167" d="M-254 -309q0 16 2 26l90 72q55 -41 98.5 -49t86.5 -8q98 0 208.5 45t200.5 137q-23 104 -49.5 226t-54 243t-54 228.5t-47.5 181.5q-39 -8 -75.5 -15.5t-73.5 -17.5q-10 29 -20.5 59.5t-20.5 59.5q86 74 166 107.5t131 33.5q53 0 82.5 -19.5t44.5 -80.5q14 -61 34.5 -161 t42 -210.5t42 -219t34.5 -188.5q53 63 95.5 148.5t72 176.5t46 181t16.5 164q-35 -6 -69 -12t-68 -15l-33 125q76 59 149.5 90t139.5 31q72 0 104.5 -49t32.5 -160q0 -131 -45 -277.5t-124 -289.5t-187.5 -274.5t-235.5 -231.5t-267.5 -159.5t-283.5 -59.5q-33 0 -70 8 t-68.5 26.5t-52 49.5t-20.5 78zM330 1266q2 63 48 104t99 41t87 -34t32 -87q-4 -61 -47 -104t-103 -43q-53 0 -86.5 34.5t-29.5 88.5zM733 1266q2 63 47 104t99 41q53 0 86.5 -34t29.5 -87q-2 -61 -45 -104t-104 -43q-51 0 -83 34.5t-30 88.5z" />
<glyph unicode="&#x131;" horiz-adv-x="722" d="M96 844l8 133q100 29 178.5 40t131.5 11q82 0 110.5 -26.5t28.5 -79.5q0 -10 -6 -61.5t-14.5 -123t-19.5 -155.5t-21.5 -161t-18.5 -138.5t-10 -87.5q39 4 80 14t78 29l55 -123q-78 -72 -170 -109t-158 -37q-96 0 -132 43t-36 113q0 12 1 25.5t3 27.5l82 637z" />
<glyph unicode="&#x152;" horiz-adv-x="1783" d="M117 563q0 172 43 329t132 277.5t225.5 192.5t324.5 72q57 0 111.5 -8.5t101.5 -20.5h762q-12 -102 -25.5 -202.5t-24.5 -203.5h-200q6 53 12 107.5t14 107.5h-438l-49 -395l387 10q-4 -49 -10 -101t-13 -99l-385 8l-55 -447h467q6 57 13.5 113.5t15.5 112.5h203 q-12 -104 -25.5 -208t-24.5 -208h-825q-88 -16 -172 -16q-150 0 -257.5 41t-176 116.5t-100 183t-31.5 238.5zM410 545q0 -174 66 -267.5t224 -93.5h21.5t21.5 2q35 262 66 517t63 518q-10 2 -19 3t-24 1q-119 0 -198.5 -61.5t-128.5 -159t-70.5 -219t-21.5 -240.5z" />
<glyph unicode="&#x153;" horiz-adv-x="1740" d="M82 401q0 119 31.5 230.5t99.5 199t172 140.5t250 53q125 0 211 -46t129 -122q68 78 161 125t234 47q145 0 232.5 -71.5t87.5 -200.5q0 -154 -148.5 -251t-476.5 -112q0 -10 -1 -20.5t-1 -20.5q0 -35 8 -66.5t28.5 -57t57.5 -41t96 -15.5q74 0 152 18.5t151 45.5 q2 -6 10.5 -29t15.5 -47.5t14.5 -47t11.5 -30.5q-86 -49 -201 -73.5t-219 -24.5q-127 0 -200 42t-111 111q-61 -66 -152.5 -109.5t-210.5 -43.5q-121 0 -203 31.5t-133 87t-73.5 132t-22.5 166.5zM360 385q0 -43 8.5 -81t29 -66.5t54 -45t85.5 -16.5q76 0 125 41t77.5 104.5 t40 138.5t11.5 140q0 45 -8.5 86t-27 71.5t-51 48t-81.5 17.5q-78 0 -129.5 -45t-81 -110.5t-41 -142t-11.5 -140.5zM1075 522q180 8 275.5 58.5t95.5 144.5q0 47 -28 76.5t-85 29.5q-119 0 -181 -83.5t-77 -225.5z" />
<glyph unicode="&#x178;" horiz-adv-x="1323" d="M123 1214l22 195h506l-24 -195h-119l186 -458h8l304 458h-123l24 195h512l-24 -195h-101l-469 -657l-43 -364h154l-21 -193h-616l20 193h158l43 360l-297 661h-100zM483 1626q4 57 47 95t93 38q53 0 85.5 -34t28.5 -87q-4 -57 -46 -96t-95 -39t-85 36t-28 87zM874 1626 q4 57 45.5 95t94.5 38t84.5 -34t27.5 -87q-4 -57 -45 -96t-98 -39q-53 0 -83 35t-26 88z" />
<glyph unicode="&#x192;" d="M29 -209l47 184q84 -14 137 -14q45 0 80 14.5t61.5 47t46 86t31.5 131.5q20 111 31.5 182.5t18.5 115.5t9.5 67.5t4.5 37.5h-164l4 172h184l15 103q12 86 34.5 171t69.5 151.5t124 108.5t198 42q47 0 107 -6.5t126 -28.5l-43 -191q-41 10 -70.5 13.5t-60.5 3.5 q-43 0 -78 -10.5t-61.5 -38t-46 -77.5t-31.5 -130q0 -4 -3 -20.5t-6 -35t-5.5 -35t-2.5 -20.5h197l-4 -172h-215q-2 -14 -8 -54t-13.5 -86t-14.5 -88t-9 -61q-16 -96 -36.5 -200.5t-67 -192.5t-126 -145.5t-215.5 -57.5q-47 0 -112.5 6.5t-132.5 26.5z" />
<glyph unicode="&#x2c6;" horiz-adv-x="1110" d="M252 1178l340 305h174l272 -303l-77 -86l-302 206l-348 -204z" />
<glyph unicode="&#x2c7;" horiz-adv-x="1110" d="M285 1430l73 81l299 -204l355 204l59 -84l-346 -303h-174z" />
<glyph unicode="&#x2d8;" horiz-adv-x="1136" d="M313 1391l125 92q53 -90 118 -134t118 -44q18 0 44.5 2t64.5 17t89.5 49t120.5 95l68 -77q-111 -150 -219.5 -207.5t-196.5 -57.5q-59 0 -107.5 21.5t-89 57.5t-74.5 84t-61 102z" />
<glyph unicode="&#x2d9;" horiz-adv-x="1110" d="M506 1303q2 33 17.5 62.5t38 51t52 33.5t60.5 12q59 0 97 -44t34 -105q-4 -33 -18.5 -62.5t-38 -51t-52 -34t-61.5 -12.5q-61 0 -98 43t-31 107z" />
<glyph unicode="&#x2da;" horiz-adv-x="1110" d="M436 1374q6 51 29.5 96.5t60.5 79t85 53t104 19.5q51 0 92 -19.5t68.5 -53t40 -79t6.5 -96.5t-30 -95t-60.5 -77t-83 -52.5t-95.5 -19.5q-51 0 -94 19.5t-71.5 52.5t-43 78t-8.5 94zM565 1370q-6 -47 20.5 -83t82.5 -36q51 0 84.5 36t40.5 83q6 49 -20 85t-77 36 q-53 0 -89 -35t-42 -86z" />
<glyph unicode="&#x2db;" horiz-adv-x="1136" d="M530 -342q0 31 11.5 75t43 96t87 108.5t143.5 111.5q18 -23 41 -41q-31 -31 -58.5 -68.5t-49 -75.5t-34 -73t-12.5 -61q0 -47 28 -65.5t73 -18.5q39 0 77 6t72 14q4 -23 6.5 -44t6.5 -44q-59 -29 -123 -46t-123 -17q-94 0 -141.5 37.5t-47.5 105.5z" />
<glyph unicode="&#x2dc;" horiz-adv-x="1110" d="M291 1225q47 98 104.5 142t120.5 44q43 0 87 -11t87 -25.5t84 -26t76 -11.5l123 80l67 -63q-41 -92 -96 -141.5t-125 -49.5q-49 0 -96 12.5t-90 28t-81 27.5t-69 12l-118 -80z" />
<glyph unicode="&#x2dd;" horiz-adv-x="1110" d="M365 1190l303 381l147 -139l-358 -326zM680 1190l303 381l145 -139l-358 -326z" />
<glyph unicode="&#x3a9;" horiz-adv-x="1499" d="M12 0q6 47 12.5 95t10.5 95h227l4 5q-66 59 -95.5 158.5t-29.5 215.5q0 174 43 331t131 275.5t223.5 188.5t321.5 70q154 0 262.5 -44t178 -123t101.5 -186.5t32 -232.5q0 -90 -18.5 -189.5t-52.5 -189.5t-81 -165t-102 -114h219q-8 -47 -13.5 -95t-11.5 -95h-571l24 199 q74 20 133.5 75.5t100.5 139.5t63.5 193.5t22.5 238.5q0 174 -74 276.5t-225 102.5q-111 0 -189.5 -55.5t-129 -149.5t-74 -220t-23.5 -268q0 -135 50 -222t126 -109q-14 -100 -24 -201h-572z" />
<glyph unicode="&#x3c0;" horiz-adv-x="1323" d="M70 819l22 180h1170q-4 -47 -9.5 -90t-11.5 -90h-141q-14 -127 -24.5 -220t-18.5 -163.5t-15.5 -128t-13.5 -114.5q41 2 80 13t78 27q12 -31 25.5 -60.5t27.5 -59.5q-39 -37 -85 -62.5t-92 -42t-87 -25t-72 -8.5q-86 0 -122 40t-36 112v21.5t3 21.5l77 649h-344 q-23 -207 -48 -410.5t-50 -408.5h-274q27 205 51 408.5t49 410.5h-139z" />
<glyph unicode="&#x401;" horiz-adv-x="1290" d="M35 0l20 193h140l124 1024h-133l23 190h1104l-51 -406h-201l26 216h-483l-49 -398l440 10l-22 -198l-441 10l-53 -448h520l29 225h205l-51 -418h-1147zM504 1626q4 57 47 95t92 38q53 0 86 -34t29 -87q-4 -57 -46 -96t-96 -39q-53 0 -84.5 36t-27.5 87zM895 1626 q4 57 45 95t94 38t85 -34t28 -87q-4 -57 -45 -96t-98 -39q-53 0 -83 35t-26 88z" />
<glyph unicode="&#x402;" horiz-adv-x="1675" d="M123 1049l43 358h1317l-45 -358h-199l18 168h-380l-52 -414q94 35 187.5 51t173.5 16q188 0 299.5 -95t111.5 -292q0 -131 -44 -244.5t-114.5 -205.5t-159.5 -164t-181 -119l-97 152q135 98 214 229t79 291q0 129 -56 184.5t-161 55.5q-61 0 -133 -13.5t-143 -40.5 l-51 -415h147l-20 -193h-568l23 193h137l125 1024h-250l-20 -168h-201z" />
<glyph unicode="&#x403;" horiz-adv-x="1230" d="M35 0l20 193h142l125 1024h-136l23 190h1110l-51 -406h-201l27 216h-488l-127 -1024h187l-23 -193h-608zM715 1604l385 288l108 -170l-424 -225z" />
<glyph unicode="&#x404;" horiz-adv-x="1236" d="M125 557q0 94 12.5 195.5t44 199t86 184.5t137 153.5t199.5 105.5t273 39q111 0 199.5 -16.5t160.5 -39.5q-12 -94 -22.5 -186t-22.5 -186h-205l25 182q-33 10 -74 15t-82 5q-168 0 -269.5 -105.5t-137.5 -283.5l477 6q-6 -47 -10.5 -95t-8.5 -95l-477 4q-2 -18 -2 -35.5 v-34.5q0 -82 18.5 -147.5t61.5 -111.5t113.5 -70.5t173.5 -24.5q25 0 62.5 3t79.5 8t86 13.5t85 18.5q8 -51 17.5 -102.5t19.5 -104.5q-45 -16 -100.5 -29.5t-115 -21.5t-118.5 -12t-111 -4q-164 0 -273.5 42t-177 117.5t-96 181t-28.5 232.5z" />
<glyph unicode="&#x405;" horiz-adv-x="1220" d="M49 84l37 326h201l-21 -168q59 -27 132 -37t126 -10q152 0 227.5 57t75.5 149q0 49 -19.5 82t-59 55.5t-99 41t-137.5 38.5q-80 23 -145.5 52.5t-110.5 71.5t-69.5 98.5t-24.5 134.5q0 111 41 195.5t114.5 142t177 87.5t226.5 30q43 0 99.5 -4.5t114.5 -15.5t113.5 -27.5 t100.5 -41.5l-41 -321h-201l21 166q-53 20 -108.5 27.5t-102.5 7.5q-109 0 -180.5 -52.5t-71.5 -154.5q0 -39 22.5 -69t60.5 -51.5t86 -38.5t97 -32q84 -25 160 -51.5t132 -68t90 -104t34 -157.5q0 -119 -45 -205.5t-127 -144t-197.5 -86.5t-255.5 -29q-53 0 -114.5 5.5 t-125 17.5t-123 32.5t-110.5 51.5z" />
<glyph unicode="&#x406;" horiz-adv-x="831" d="M88 0l23 193h135l125 1024h-135l24 192h553l-25 -192h-133l-127 -1024h136l-23 -193h-553z" />
<glyph unicode="&#x407;" horiz-adv-x="831" d="M88 0l23 193h135l125 1024h-135l24 192h553l-25 -192h-133l-127 -1024h136l-23 -193h-553zM223 1632q2 63 48 104.5t100 41.5q53 0 86.5 -34t31.5 -87q-4 -61 -47 -104.5t-102 -43.5q-53 0 -87 35t-30 88zM627 1632q2 63 47 104.5t98 41.5t87 -34t30 -87 q-2 -61 -45 -104.5t-105 -43.5q-51 0 -82.5 35t-29.5 88z" />
<glyph unicode="&#x408;" horiz-adv-x="868" d="M-119 -170q125 43 203 91t123 107.5t65.5 131t32.5 157.5l111 900l-201 2l23 190h661l-22 -192h-177l-110 -889q-18 -145 -61.5 -263t-121 -206t-194.5 -145.5t-281 -84.5z" />
<glyph unicode="&#x409;" horiz-adv-x="2064" d="M-14 168q129 53 206.5 115.5t123.5 157t73 233.5t51 346l25 197h-176l24 192h1166l-23 -192h-143l-47 -361h270q100 0 183 -23.5t142.5 -70.5t92.5 -119t33 -168q0 -121 -40 -210t-107.5 -147.5t-159 -88t-195.5 -29.5h-735l22 193h127l129 1024h-301l-16 -144 q-27 -223 -63 -412.5t-107.5 -334t-190.5 -239.5t-311 -132zM1186 193h254q51 0 97 17t80 51t54.5 85t20.5 117q0 104 -62.5 153.5t-159.5 49.5h-227z" />
<glyph unicode="&#x40a;" horiz-adv-x="2134" d="M39 0l20 193h140l125 1024h-138l25 190h541l-23 -190h-121l-47 -375h490l45 375h-129l22 192h559l-22 -192h-148l-43 -371h269q98 0 181 -22.5t143.5 -67.5t93 -116t32.5 -165q0 -115 -39 -204t-106.5 -149.5t-158.5 -91t-196 -30.5h-733l23 193h125l57 466h-485 l-58 -466h121l-22 -193h-543zM1255 193h254q104 0 177 67.5t73 202.5q0 100 -61.5 147t-155.5 47h-231z" />
<glyph unicode="&#x40b;" horiz-adv-x="1781" d="M127 1049l43 358h1307l-45 -358h-199l20 168h-370l-52 -408q92 29 190.5 46t184.5 17q92 0 168 -19t127 -61t74.5 -109t11.5 -163l-41 -327h131l-20 -193h-545l25 193h125l34 286q14 109 -40 150t-160 41q-76 0 -155 -19.5t-136 -44.5l-49 -413h131l-23 -193h-551l23 193 h137l127 1024h-252l-18 -168h-203z" />
<glyph unicode="&#x40c;" horiz-adv-x="1433" d="M35 0l20 193h135l127 1024h-135l23 190h549l-21 -190h-133l-125 -1024h131l-22 -193h-549zM598 680l10 90l432 543q49 66 96.5 90t106.5 22q119 0 213 -53l-33 -162l-166 -14l-399 -467l303 -528l185 -15l4 -163q-27 -10 -57.5 -18.5t-61.5 -13.5t-58.5 -7t-46.5 -2 q-74 -4 -119.5 17t-80.5 81zM762 1610l385 288l108 -169l-424 -226z" />
<glyph unicode="&#x40e;" horiz-adv-x="1331" d="M131 1214l21 193h503l-22 -193h-123q10 -35 25.5 -82t31 -97t30.5 -98t26 -83l86 -272h12q8 25 24.5 58.5t34 70.5t34.5 71.5t28 57.5l178 374h-125l25 193h507l-22 -193h-109l-510 -1019q-35 -66 -67.5 -110t-70.5 -70.5t-83 -38t-102 -11.5q-55 0 -121 8.5t-152 32.5 l52 189q53 -10 98 -15.5t74 -5.5q41 0 72.5 22.5t62.5 82.5l59 122h-80q-14 45 -37.5 111t-51 140.5t-57.5 155.5t-57.5 155.5t-50 140t-36.5 110.5h-107zM481 1769l125 93q53 -88 117.5 -134.5t118.5 -46.5q18 0 44.5 3.5t64.5 19.5t89.5 49t120.5 94l68 -75 q-55 -76 -110.5 -127.5t-110 -82t-103.5 -44t-92 -13.5q-59 0 -107.5 21.5t-89.5 57.5t-74.5 84t-60.5 101z" />
<glyph unicode="&#x40f;" horiz-adv-x="1560" d="M31 0q2 14 5 40t7 55.5t7 55t5 39.5h135l129 1024h-139q2 14 5 41t6.5 55.5t7.5 54.5t6 40h547q-2 -14 -5.5 -40t-6.5 -54.5t-6 -55t-5 -41.5h-125l-129 -1024h547l129 1024h-125q2 14 5 41t6 55.5t7.5 54.5t6.5 40h544l-22 -191h-137q-12 -102 -29.5 -236t-34 -275.5 t-33 -275.5t-28.5 -237h135l-21 -190h-585l-49 -387h-218q4 35 11.5 87t13.5 107.5t12 106.5t11 86h-590z" />
<glyph unicode="&#x410;" horiz-adv-x="1462" d="M-12 0l20 193h115l561 1216h350l252 -1216h109l-23 -193h-514l21 193h127l-37 196h-486l-86 -196h129l-22 -193h-516zM567 578h369l-62 340l-43 262h-6l-106 -250z" />
<glyph unicode="&#x411;" horiz-adv-x="1355" d="M29 0l20 193h141l127 1024h-133l25 190h1055l-43 -348h-203l20 158h-436l-45 -361h270q100 0 182.5 -23.5t141.5 -70.5t92 -119t33 -168q0 -121 -40 -210t-107.5 -147.5t-158.5 -88t-194 -29.5h-747zM477 193h254q51 0 97 17t80 52t53.5 86t19.5 119q0 100 -60.5 149.5 t-156.5 49.5h-229z" />
<glyph unicode="&#x412;" horiz-adv-x="1361" d="M31 0q2 14 5 41t7 55.5t7 55t5 41.5h142l125 1024h-138l25 190h731q195 0 285 -90t90 -234q0 -49 -10.5 -97t-36 -93t-68.5 -85t-108 -69v-2q57 -20 95 -54t58.5 -75t28.5 -85t8 -83q0 -106 -38 -188t-103.5 -138.5t-151.5 -85t-184 -28.5h-774zM481 193h248 q129 0 191.5 70.5t62.5 180.5q0 76 -48 132.5t-151 56.5h-249q-6 -47 -13.5 -104.5t-14.5 -117t-13.5 -116.5t-12.5 -102zM557 813h223q111 0 175.5 65.5t64.5 165.5q0 78 -45 125.5t-146 47.5h-223z" />
<glyph unicode="&#x413;" horiz-adv-x="1230" d="M35 0l20 193h142l125 1024h-136l23 190h1110l-51 -406h-201l27 216h-488l-127 -1024h187l-23 -193h-608z" />
<glyph unicode="&#x414;" horiz-adv-x="1538" d="M-55 -362l65 548l117 7q84 76 143.5 174t100.5 216.5t67.5 255t44.5 287.5l11 91h-152l25 190h1183l-24 -190h-137l-125 -1024l141 -7l-68 -548h-209l46 362h-973l-45 -362h-211zM444 193h537l125 1024h-354l-13 -109q-18 -160 -41.5 -297t-58.5 -251t-82 -205t-113 -162 z" />
<glyph unicode="&#x415;" horiz-adv-x="1290" d="M35 0l20 193h140l124 1024h-133l23 190h1104l-51 -406h-201l26 216h-483l-49 -398l440 10l-22 -198l-441 10l-53 -448h520l29 225h205l-51 -418h-1147z" />
<glyph unicode="&#x416;" horiz-adv-x="2064" d="M-2 20q2 41 5 81t7 81l187 21l430 524l-291 465l-90 8t-92 8q-2 41 -2 81v81q47 25 109.5 39t115.5 16q35 0 70.5 -10t66.5 -61l363 -598q-4 -23 -6.5 -45.5t-4.5 -44.5l-493 -605q-25 -29 -52.5 -45t-55 -23t-54.5 -8t-49 -1q-37 0 -83 10t-81 26zM713 0l22 190h131 l125 1024h-131q6 47 12.5 95.5t10.5 95.5h540q-6 -47 -12 -95t-10 -96h-133q-31 -258 -64 -511.5t-61 -512.5h133q-6 -47 -12.5 -95t-10.5 -95h-540zM1257 670l9 88l497 600q35 41 73 52t79 11q57 0 108.5 -14t98.5 -37l-31 -162q-47 -4 -91 -8t-91 -8l-391 -475 q70 -129 138 -257t136 -257l188 -21q2 -41 2 -81t5 -81q-27 -10 -58 -16t-61.5 -11t-58 -7t-46.5 -2q-35 0 -62.5 2t-52 13t-46 32.5t-39.5 58.5z" />
<glyph unicode="&#x417;" horiz-adv-x="1220" d="M25 74l81 194q104 -35 196.5 -48t160.5 -13q186 0 276 70.5t90 189.5q0 86 -64.5 134t-184.5 48h-170l20 191h156q68 0 121 17t88.5 48t54 71t18.5 85q0 47 -18.5 78.5t-50 52t-74.5 29t-94 8.5q-55 0 -111.5 -11.5t-107.5 -27.5l-25 -203h-207q12 90 21.5 178t19.5 176 q55 25 117.5 42.5t124 28.5t119 16.5t102.5 5.5q94 0 180 -18.5t152.5 -58.5t105.5 -102.5t39 -152.5q0 -111 -62.5 -201t-183.5 -137v-2q109 -39 161 -120t52 -175q0 -121 -52 -211t-140 -149.5t-206 -89t-247 -29.5q-55 0 -117.5 6t-124 16t-117.5 26.5t-99 37.5z" />
<glyph unicode="&#x418;" horiz-adv-x="1599" d="M29 0l22 190h146l125 1024h-142l23 191h557l-23 -191h-135l-86 -706h2l672 651l6 55h-149l24 191h567l-24 -191h-141l-127 -1024h143l-23 -190h-555l25 190h133l88 717h-4l-670 -653l-8 -64h133l-22 -190h-557z" />
<glyph unicode="&#x419;" horiz-adv-x="1599" d="M29 0l22 190h146l125 1024h-142l23 191h557l-23 -191h-135l-86 -706h2l672 651l6 55h-149l24 191h567l-24 -191h-141l-127 -1024h143l-23 -190h-555l25 190h133l88 717h-4l-670 -653l-8 -64h133l-22 -190h-557zM604 1808l125 93q53 -90 117.5 -134.5t118.5 -44.5 q18 0 44.5 2t64.5 17.5t89 49.5t121 95l68 -78q-111 -150 -219.5 -207t-196.5 -57q-59 0 -107.5 21.5t-89.5 57.5t-74.5 84t-60.5 101z" />
<glyph unicode="&#x41a;" horiz-adv-x="1433" d="M35 0l20 193h135l127 1024h-135l23 190h549l-21 -190h-133l-125 -1024h131l-22 -193h-549zM598 680l10 90l432 543q49 66 96.5 90t106.5 22q119 0 213 -53l-33 -162l-166 -14l-399 -467l303 -528l185 -15l4 -163q-27 -10 -57.5 -18.5t-61.5 -13.5t-58.5 -7t-46.5 -2 q-74 -4 -119.5 17t-80.5 81z" />
<glyph unicode="&#x41b;" horiz-adv-x="1501" d="M-14 168q129 53 206.5 115.5t123.5 157t73 233.5t51 346l25 197h-176l24 192h1209l-25 -192h-137l-125 -1024h137l-22 -193h-545l22 193h123l125 1024h-348l-16 -144q-27 -223 -63 -412.5t-107.5 -334t-190.5 -239.5t-311 -132z" />
<glyph unicode="&#x41c;" horiz-adv-x="1912" d="M31 0l22 190h140l122 1024h-135q4 47 10.5 96.5t12.5 96.5h485l105 -338q27 -78 50 -158t48 -161l72 -248h10l98 190q53 100 105.5 198.5t105.5 196.5l170 320h498q-6 -47 -13.5 -96t-11.5 -97h-127q-31 -256 -61.5 -510.5t-63.5 -513.5h125l-22 -190h-519q4 47 9.5 95 t11.5 95h119l100 830h-4q-23 -41 -44.5 -84t-43.5 -84l-148 -274q-51 -94 -102 -187.5t-100 -185.5h-238l-104 323l-152 492h-6l-100 -830h127q-6 -47 -12.5 -95t-10.5 -95h-528z" />
<glyph unicode="&#x41d;" horiz-adv-x="1560" d="M35 0l20 193h138l126 1024h-137l23 192h547l-23 -192h-125l-49 -392h547l49 392h-125l25 192h546l-22 -192h-137l-125 -1024h135l-21 -193h-548l24 193h123l53 446h-547l-53 -446h125l-22 -193h-547z" />
<glyph unicode="&#x41e;" horiz-adv-x="1470" d="M127 565q0 170 43 328t132 277.5t225.5 191.5t320.5 72q154 0 260 -46.5t174 -127t98.5 -190t30.5 -239.5q0 -182 -47 -337.5t-137 -269t-223.5 -179t-305.5 -65.5q-150 0 -257 41.5t-176.5 118.5t-103.5 184.5t-34 240.5zM424 559q0 -180 68.5 -275.5t222.5 -95.5 q106 0 181 52.5t123 142.5t69.5 209t21.5 252q0 78 -12.5 147.5t-43 121.5t-83.5 83t-135 31q-117 0 -196 -59.5t-127 -154.5t-68.5 -215t-20.5 -239z" />
<glyph unicode="&#x41f;" horiz-adv-x="1560" d="M35 0l20 193h138l124 1021h-137l25 195h1392l-24 -195h-137l-123 -1021h135l-21 -193h-548l24 193h123l125 1021h-547l-125 -1021h125l-22 -193h-547z" />
<glyph unicode="&#x420;" horiz-adv-x="1257" d="M35 0l20 193h135l125 1024h-133l23 192h651q215 0 316.5 -100.5t101.5 -278.5q0 -88 -28.5 -175t-90 -155.5t-157 -111.5t-226.5 -43h-254l-45 -352h176l-22 -193h-592zM541 731h182q49 0 94 17.5t80 52.5t55.5 87t20.5 124q0 104 -51.5 154.5t-141.5 50.5h-180z" />
<glyph unicode="&#x421;" horiz-adv-x="1236" d="M127 559q0 92 12.5 193.5t44 199t86 185.5t138.5 154.5t199.5 105.5t271.5 39q109 0 200.5 -15.5t163.5 -42.5l-49 -395h-203l25 207q-31 8 -71 14t-81 6q-113 0 -194.5 -46t-136 -129t-80 -197.5t-25.5 -251.5q0 -190 87 -274.5t280 -84.5q25 0 61.5 3t79.5 8.5t87 13.5 t85 18l37 -217q-43 -16 -98.5 -30.5t-115 -23.5t-118.5 -14t-111 -5q-164 0 -273.5 43t-177 119.5t-96 183t-28.5 233.5z" />
<glyph unicode="&#x422;" horiz-adv-x="1251" d="M104 991l52 418h1181l-51 -418h-201l29 226h-250l-125 -1024h164l-22 -193h-609l23 193h162l127 1024h-252l-27 -226h-201z" />
<glyph unicode="&#x423;" horiz-adv-x="1331" d="M131 1214l21 193h503l-22 -193h-123q10 -35 25.5 -82t31 -97t30.5 -98t26 -83l86 -272h12q8 25 24.5 58.5t34 70.5t34.5 71.5t28 57.5l178 374h-125l25 193h507l-22 -193h-109l-510 -1019q-35 -66 -67.5 -110t-70.5 -70.5t-83 -38t-102 -11.5q-55 0 -121 8.5t-152 32.5 l52 189q53 -10 98 -15.5t74 -5.5q41 0 72.5 22.5t62.5 82.5l59 122h-80q-14 45 -37.5 111t-51 140.5t-57.5 155.5t-57.5 155.5t-50 140t-36.5 110.5h-107z" />
<glyph unicode="&#x424;" horiz-adv-x="1646" d="M104 655q0 123 53.5 239t148.5 206t229.5 148.5t298.5 66.5l12 92h276l-12 -94q145 -10 252.5 -56.5t179.5 -118t108 -164.5t36 -200q0 -131 -55.5 -243.5t-153 -196.5t-228.5 -136.5t-282 -60.5l-17 -137h-276l16 137q-139 6 -247.5 46t-184.5 107.5t-115 160t-39 204.5 zM377 676q0 -143 88 -227t250 -103l94 756q-94 -8 -174 -44t-137.5 -92.5t-89 -130t-31.5 -159.5zM991 346q86 8 163 41t134.5 86t91 126t33.5 161q0 66 -19.5 125t-59.5 105t-101.5 76t-145.5 36z" />
<glyph unicode="&#x425;" horiz-adv-x="1402" d="M-16 0l22 195h96l439 557l-246 462h-143l24 195h569l-24 -195h-111l172 -335l271 335h-115l23 195h516l-23 -195h-108l-418 -501l282 -518h127l-20 -195h-576l25 195h117l-197 378l-293 -378h131l-22 -195h-518z" />
<glyph unicode="&#x426;" horiz-adv-x="1560" d="M29 0q8 47 13 94t9 94h139l125 1026h-135q4 47 10.5 95.5t12.5 95.5h547l-25 -191h-125l-125 -1026h547l125 1026h-123q6 47 11 95.5t14 95.5h544l-22 -191h-139q-29 -258 -61 -513t-62 -513h172q-16 -135 -32.5 -271t-33.5 -275h-211q12 90 23.5 179t21.5 179h-1220z " />
<glyph unicode="&#x427;" horiz-adv-x="1478" d="M131 1214q14 94 25 191h540l-22 -191h-125l-33 -266q-2 -10 -2 -18v-19q0 -86 58.5 -124.5t166.5 -38.5q68 0 140.5 11t134.5 34l51 421h-121q6 47 12.5 95.5t10.5 95.5h540l-20 -191h-139q-29 -258 -62 -511.5t-63 -512.5h137l-23 -190h-555l23 190h135 q10 98 23.5 196.5t25.5 197.5q-90 -25 -178 -35t-170 -10q-92 0 -170 18t-134 56t-87 96.5t-31 136.5q0 12 1 24.5t3 26.5l41 317h-133z" />
<glyph unicode="&#x428;" horiz-adv-x="2129" d="M35 0l20 190h138l126 1024h-137l23 193h534l-22 -193h-121l-127 -1024h428l125 1024h-115l23 193h510l-23 -193h-119l-124 -1024h432l125 1024h-121l22 193h535l-25 -193h-135l-125 -1024h135l-22 -190h-1960z" />
<glyph unicode="&#x429;" horiz-adv-x="2129" d="M35 0l20 190h138l126 1024h-137l23 193h534l-22 -193h-121l-127 -1024h428l125 1024h-115l23 193h510l-23 -193h-119l-124 -1024h432l125 1024h-121l22 193h535l-25 -193h-135l-125 -1024h170l-67 -552h-209l45 362h-1786z" />
<glyph unicode="&#x42a;" horiz-adv-x="1669" d="M102 981l54 426h919l-24 -190h-133l-48 -361h273q98 0 180 -23.5t142.5 -69.5t93 -118t32.5 -166q0 -121 -40 -211t-107.5 -149.5t-158.5 -89t-195 -29.5h-748l23 193h141l125 1024h-297l-31 -236h-201zM791 193h253q104 0 178 70.5t74 205.5q0 98 -61 147.5t-156 49.5 h-229z" />
<glyph unicode="&#x42b;" horiz-adv-x="2011" d="M35 0l20 193h142l127 1024h-142l23 192h571l-24 -192h-146l-43 -361h271q98 0 181 -23.5t142.5 -69.5t92 -118t32.5 -166q0 -119 -40 -209t-107.5 -149.5t-158.5 -90t-196 -30.5h-745zM483 193h252q104 0 178 70.5t74 205.5q0 98 -61.5 147.5t-155.5 49.5h-231zM1317 0 l22 193h136l127 1024h-136l23 190h553l-23 -190h-135l-123 -1024h133l-22 -193h-555z" />
<glyph unicode="&#x42c;" horiz-adv-x="1372" d="M45 0l21 193h141l127 1024h-141l22 192h571l-24 -192h-146l-43 -361h271q98 0 181 -22.5t142.5 -68.5t93 -116.5t33.5 -165.5q0 -123 -40 -213t-108.5 -150.5t-159.5 -90t-195 -29.5h-746zM494 193h251q104 0 178 70.5t74 205.5q0 98 -61.5 147.5t-155.5 49.5h-231z" />
<glyph unicode="&#x42d;" horiz-adv-x="1236" d="M41 51q16 53 34.5 103.5t35.5 101.5q74 -18 155.5 -30.5t141.5 -12.5q104 0 185 30.5t137 87t91 135.5t47 175q-115 -2 -227.5 -4t-226.5 -2q8 47 13 95t13 95l451 -6q4 20 4 39v37q0 70 -17.5 128t-54.5 100t-96 65.5t-143 23.5q-41 0 -92.5 -7t-85.5 -15 q-6 -47 -12.5 -93t-10.5 -93h-205l47 370q78 27 179.5 43.5t209.5 16.5q170 0 281 -47.5t176.5 -127t91 -186t25.5 -225.5q0 -172 -41 -327.5t-131 -275.5t-232.5 -190.5t-347.5 -70.5q-104 0 -210.5 16t-184.5 51z" />
<glyph unicode="&#x42e;" horiz-adv-x="2091" d="M31 0l22 190h137q31 258 64 512t63 512h-137q4 47 10.5 95.5t12.5 95.5h553l-25 -191h-129l-49 -393h260q27 125 79 236.5t134 194.5t195.5 132.5t267.5 49.5q147 0 250.5 -45.5t169 -125t95.5 -189t30 -236.5q0 -182 -44 -339t-132.5 -271.5t-217.5 -179t-299 -64.5 q-150 0 -255 42t-172.5 119.5t-98.5 188t-31 248.5q0 14 1 27.5t1 27.5h-256l-55 -447h125l-22 -190h-547zM1071 545q0 -176 65.5 -268.5t221.5 -92.5q102 0 176 53.5t121 144.5t68.5 211t21.5 255q0 78 -14.5 146.5t-46 119.5t-85 81t-131.5 30q-115 0 -190.5 -60.5 t-121.5 -158t-65.5 -219t-19.5 -242.5z" />
<glyph unicode="&#x42f;" horiz-adv-x="1396" d="M-10 10l14 160l164 23l254 436q-59 18 -99 53t-63.5 80t-34 94t-10.5 96q0 104 34 188.5t98.5 143.5t157.5 92t214 33h690l-23 -192h-131l-127 -1024h136l-23 -193h-551l23 193h133l47 389h-215l-256 -453q-20 -37 -41 -65.5t-45.5 -48t-56 -29t-74.5 -9.5q-18 0 -46 2.5 t-57.5 6.5t-59.5 10t-52 14zM510 948q0 -57 20.5 -93t52 -55.5t69.5 -26.5t73 -7h190l56 451h-213q-49 0 -94.5 -15.5t-79 -48.5t-54 -84t-20.5 -121z" />
<glyph unicode="&#x430;" horiz-adv-x="1239" d="M82 326q0 143 34 270t101.5 222t169 150.5t234.5 55.5q119 0 243 -59l47 59l199 -12q-37 -236 -67.5 -444t-47.5 -373q43 4 78 16t76 33q2 -6 10 -23.5t18.5 -39t18.5 -39t12 -23.5q-33 -31 -73.5 -57.5t-83.5 -47t-84 -32t-76 -11.5q-80 0 -116 37t-42 98q-2 35 2 71 t10 75h-10q-45 -80 -92 -133t-94 -85t-95 -44.5t-96 -12.5q-127 0 -201.5 86.5t-74.5 262.5zM356 371q0 -100 34 -149.5t87 -49.5q33 0 70 18.5t73.5 62.5t74.5 117.5t73 184.5l39 231q-53 18 -97 24.5t-75 6.5q-80 0 -133 -44t-86 -110.5t-46.5 -145.5t-13.5 -146z" />
<glyph unicode="&#x431;" horiz-adv-x="1136" d="M82 418q0 55 5 118.5t14.5 129t21.5 130t27 119.5q53 205 147 338t250 181q49 14 107.5 23t121 15.5t127 14.5t125.5 20q2 -14 6 -40.5t8.5 -55.5t8.5 -55.5t8 -40.5q-98 -23 -186.5 -31t-147.5 -18q-80 -10 -138.5 -40t-101.5 -85.5t-72.5 -139t-50.5 -206.5l11 -9 q47 72 97 114t97 64.5t88 29.5t70 7q174 0 261 -103t87 -296q0 -109 -31.5 -218.5t-99.5 -198.5t-175.5 -145t-258.5 -56q-129 0 -212 32.5t-130 91t-65.5 137.5t-18.5 173zM344 391q0 -43 8 -81t27.5 -66.5t53.5 -45t85 -16.5q59 0 108.5 31t84 86t53 135t18.5 178 q0 106 -46 148.5t-105 42.5t-138 -57.5t-133 -188.5q-8 -47 -12 -90t-4 -76z" />
<glyph unicode="&#x432;" horiz-adv-x="1083" d="M39 90l59 498q8 96 43 177t94.5 140.5t146.5 92t202 32.5q78 0 145.5 -18.5t118.5 -54t80.5 -86t29.5 -113.5q0 -57 -28.5 -115.5t-100.5 -91.5v-2q90 -14 131 -74.5t41 -124.5q0 -98 -41.5 -169.5t-113.5 -117t-166.5 -67t-198.5 -21.5q-86 0 -200.5 16.5t-225.5 69.5z M315 193q41 -14 92.5 -20.5t86.5 -6.5t73.5 8t72.5 27.5t56.5 53.5t22.5 85q0 57 -43 88t-115 31h-88l14 147h74q59 0 93 35t34 88q0 41 -30.5 78t-102.5 37q-49 0 -83 -19.5t-57.5 -54.5t-35.5 -81t-19 -101z" />
<glyph unicode="&#x433;" horiz-adv-x="954" d="M61 229q0 68 34 123.5t87.5 100.5t120 81.5t133.5 67.5q37 16 70 34.5t59.5 38t42 42t15.5 47.5q0 47 -35 62.5t-76 15.5q-59 0 -136 -23.5t-161 -58.5l-61 147q92 57 204.5 89t223.5 32q147 0 233 -58.5t86 -174.5q0 -61 -30.5 -111.5t-84 -94.5t-126 -82t-158.5 -75 q-72 -31 -120 -69.5t-48 -98.5q0 -47 36 -70.5t101 -23.5q68 0 157 25.5t181 66.5l65 -149q-53 -35 -113.5 -60.5t-120.5 -42t-117.5 -25t-106.5 -8.5q-166 0 -260.5 57.5t-94.5 194.5z" />
<glyph unicode="&#x434;" horiz-adv-x="1196" d="M80 387q0 115 30.5 226.5t94 200.5t159 144.5t224.5 55.5q57 0 124.5 -10.5t127.5 -40.5l4 6q4 68 -4.5 126t-36 102t-76.5 68.5t-129 24.5q-27 0 -53.5 -1t-59 -5t-73.5 -13t-97 -24q-10 47 -19 92t-20 93q180 67 332 67q266 0 380 -147.5t114 -427.5 q-2 -82 -9.5 -184.5t-31 -207t-63.5 -203t-106.5 -175t-161.5 -123.5t-226 -47q-127 0 -209 30.5t-129 85t-66.5 128t-19.5 159.5zM354 365q0 -92 36 -137.5t118 -45.5q68 0 122 34t93 104.5t62.5 183t29.5 270.5q-47 20 -96 26.5t-90 6.5q-72 0 -123 -38t-85 -100.5 t-50.5 -142.5t-16.5 -161z" />
<glyph unicode="&#x435;" horiz-adv-x="1036" d="M82 383q0 111 27.5 225.5t94 207.5t177 153.5t276.5 60.5q141 0 229.5 -71.5t88.5 -202.5q0 -154 -147.5 -248t-473.5 -113q-2 -10 -2 -21.5v-21.5q0 -35 7.5 -67.5t29 -57t57 -40t95.5 -15.5q72 0 150.5 18.5t150.5 47.5l51 -156q-86 -47 -199.5 -73.5t-218.5 -26.5 q-121 0 -197.5 31.5t-119.5 87t-59.5 128t-16.5 154.5zM360 526q365 16 365 199q0 47 -26 78t-83 31q-113 0 -177 -82t-79 -226z" />
<glyph unicode="&#x436;" horiz-adv-x="1794" d="M6 141l98 101q29 -23 54.5 -40.5t64.5 -27.5q63 59 151.5 163.5t180.5 229.5q-20 47 -52 91t-69 79t-77 55.5t-74 20.5q-23 0 -47.5 -4t-53.5 -21l-69 97q27 51 73.5 94t128.5 43q61 0 130 -43t132.5 -110.5t111.5 -150.5t71 -163l-12 -68q-45 -74 -104.5 -164 t-125 -168.5t-136.5 -131t-138 -52.5q-66 0 -124.5 39t-113.5 131zM709 838l10 141q94 29 160 41t125 12q57 0 83.5 -33.5t26.5 -83.5q0 -14 -2 -22q-10 -84 -25.5 -198.5t-32 -238.5t-32.5 -244t-29 -212h-272q31 225 56.5 420.5t51.5 400.5zM1098 492l10 77 q47 98 107.5 181.5t125 144.5t129 96t121.5 35q41 0 70 -12.5t48.5 -32.5t29.5 -44t14 -48l-90 -94q-29 16 -51.5 21t-42.5 5q-33 0 -68 -20.5t-69.5 -53t-68.5 -75.5t-65 -86q33 -68 69 -132.5t69.5 -118.5t62.5 -96t47 -63q41 12 72 29.5t61 40.5l82 -92 q-78 -100 -154.5 -141.5t-154.5 -41.5q-57 0 -108.5 55.5t-96.5 135.5t-83 170t-66 160z" />
<glyph unicode="&#x437;" horiz-adv-x="985" d="M18 47q16 43 29.5 85t28.5 85q72 -25 146.5 -37t137.5 -12q55 0 103.5 10t84.5 31.5t56.5 55.5t20.5 81q0 31 -14.5 52.5t-37 33.5t-50 17.5t-54.5 5.5h-113l17 153h98q27 0 55.5 6.5t52 20.5t39 36.5t15.5 53.5q0 61 -50.5 87t-115.5 26q-35 0 -71 -7.5t-66 -17.5 l-58 -166l-137 10q-6 59 -9 109.5t1 103.5q2 49 36 75t75 42q53 18 127.5 29.5t146.5 11.5q180 0 285.5 -64.5t105.5 -181.5q0 -29 -9 -60.5t-29.5 -64t-54.5 -61.5t-85 -47v-8q92 -23 135 -85.5t43 -136.5q0 -78 -36 -140t-101.5 -106t-158.5 -67.5t-208 -23.5 q-117 0 -217 17t-164 48z" />
<glyph unicode="&#x438;" horiz-adv-x="1300" d="M72 844l12 129q98 29 179 41t140 12q78 0 105 -37t27 -100q0 -23 -5.5 -70t-11.5 -105.5t-15 -123t-15.5 -121.5t-11.5 -103.5t-5 -68.5q0 -47 17.5 -74.5t64.5 -27.5q33 0 69.5 19t75.5 64.5t75 117t67 173.5l59 435h262q-27 -197 -53.5 -406t-50.5 -405q43 2 80 13 t73 27l56 -120q-39 -37 -82 -62.5t-86 -43t-83 -26t-71 -8.5q-82 0 -114.5 37t-32.5 90q0 35 4 76t8 74h-10q-47 -80 -99.5 -132t-104.5 -83t-101.5 -43t-87.5 -12q-221 0 -222 208q0 90 20.5 241t49.5 386z" />
<glyph unicode="&#x439;" horiz-adv-x="1300" d="M72 844l12 129q98 29 179 41t140 12q78 0 105 -37t27 -100q0 -23 -5.5 -70t-11.5 -105.5t-15 -123t-15.5 -121.5t-11.5 -103.5t-5 -68.5q0 -47 17.5 -74.5t64.5 -27.5q33 0 69.5 19t75.5 64.5t75 117t67 173.5l59 435h262q-27 -197 -53.5 -406t-50.5 -405q43 2 80 13 t73 27l56 -120q-39 -37 -82 -62.5t-86 -43t-83 -26t-71 -8.5q-82 0 -114.5 37t-32.5 90q0 35 4 76t8 74h-10q-47 -80 -99.5 -132t-104.5 -83t-101.5 -43t-87.5 -12q-221 0 -222 208q0 90 20.5 241t49.5 386zM377 1391l125 92q53 -90 117.5 -134t117.5 -44q18 0 45 2t65 17 t89 49t121 95l67 -77q-111 -150 -219 -207.5t-196 -57.5q-59 0 -107.5 21.5t-89.5 57.5t-75 84t-60 102z" />
<glyph unicode="&#x43a;" horiz-adv-x="1200" d="M74 842l10 135q94 27 169 41t134 14q66 0 97.5 -28.5t31.5 -81.5q0 -10 -6 -58.5t-15.5 -122t-21.5 -166t-25.5 -191.5t-27.5 -198.5t-25 -185.5h-270l106 817zM496 504l10 74q43 82 104.5 162.5t130 144t140.5 102.5t133 39q70 0 109.5 -43t52.5 -94l-103 -96 q-27 16 -49.5 21t-44.5 5q-37 0 -73 -18.5t-71.5 -49t-69.5 -69.5t-65 -82q33 -61 72 -126.5t78 -125t70.5 -105.5t50.5 -67q41 12 73.5 31.5t61.5 38.5l80 -99q-84 -106 -157 -140t-130 -34q-41 0 -71.5 14.5t-56.5 42t-52.5 67.5t-56.5 89q-49 78 -92.5 163t-73.5 155z " />
<glyph unicode="&#x43b;" horiz-adv-x="1214" d="M20 31q63 121 126 236.5t124.5 233t124 238.5t127.5 252l330 33l29 -23q23 -227 51.5 -427.5t66.5 -370.5q33 4 67 16t67 31l55 -123q-66 -66 -146.5 -108t-150.5 -42q-72 0 -107.5 27t-52.5 107q-29 147 -44 302.5t-30 329.5h-10q-45 -98 -87 -191t-83 -183t-85 -182.5 t-91 -186.5h-254z" />
<glyph unicode="&#x43c;" horiz-adv-x="1636" d="M27 35q104 291 194 532.5t176 427.5q72 10 133.5 17.5t131.5 17.5l38 -35q10 -109 19.5 -199.5t19 -170.5t20.5 -153.5t23 -147.5q2 0 4 -1t5 -1q18 41 33.5 79.5t29.5 75.5q59 143 112.5 269t114.5 249q70 10 144.5 16.5t146.5 16.5q4 -6 11.5 -12t11.5 -10v-150 q0 -186 5 -353t21 -306q37 4 70 16t68 33q12 -33 26 -62.5t27 -60.5q-78 -72 -163 -107.5t-151 -35.5q-59 0 -97 18t-46 72q-12 74 -14 141.5t-2 150.5q0 68 2 143t4 157q-2 0 -4 1t-4 1q-37 -84 -66 -151t-56.5 -132.5t-58 -140t-71.5 -172.5q-59 -6 -118.5 -13.5 t-119.5 -11.5l-37 25q-27 133 -47 290.5t-37 335.5q-4 0 -5 1t-5 1q-51 -145 -105.5 -311t-123.5 -385h-232z" />
<glyph unicode="&#x43d;" horiz-adv-x="1325" d="M70 842l8 131q100 29 180 41t141 12q137 0 138 -102q0 -10 -3.5 -41t-8.5 -75t-11 -98.5t-14 -111.5h356q14 102 26.5 202.5t28.5 200.5h275q-10 -78 -24.5 -181t-30 -213.5t-30 -219t-24.5 -194.5q43 2 82 13t74 27l55 -120q-49 -47 -96 -75t-90 -42t-80 -18.5t-66 -4.5 q-61 0 -96 21.5t-49 57.5t-14 80t6 91l28 217h-352q-10 -74 -20 -143.5t-18.5 -127.5t-14.5 -103.5t-10 -65.5h-273q16 111 45 312.5t64 500.5q-47 6 -92 13.5t-90 15.5z" />
<glyph unicode="&#x43e;" horiz-adv-x="1136" d="M82 401q0 119 32.5 230.5t100.5 200t173.5 141.5t250.5 53q117 0 199 -32.5t135 -91t77.5 -137.5t24.5 -171q0 -111 -31.5 -220.5t-99 -196.5t-174 -141t-256.5 -54q-117 0 -199 31.5t-134 88t-75.5 133t-23.5 166.5zM360 385q0 -43 8.5 -81t29 -66.5t54 -45t85.5 -16.5 q76 0 125 41t77.5 104.5t40 138.5t11.5 140q0 45 -8.5 86t-27 71.5t-51 48t-81.5 17.5q-78 0 -129.5 -45t-81 -110.5t-41 -142t-11.5 -140.5z" />
<glyph unicode="&#x43f;" horiz-adv-x="1308" d="M70 842l8 133q102 29 177 40t134 11q84 0 108.5 -28.5t24.5 -84.5q0 -33 -5 -80t-13 -102h8q49 88 106.5 145.5t112.5 90t105.5 46t85.5 13.5q117 0 167 -67.5t50 -182.5q0 -45 -18.5 -198.5t-45.5 -382.5q39 2 74 13t74 30q2 -6 10 -23.5t17.5 -39t16.5 -39t11 -23.5 q-41 -37 -87 -63.5t-91 -44t-85 -26t-71 -8.5q-90 0 -119.5 37t-29.5 109q0 10 2 34.5t4 41.5q10 100 20 187t17.5 154.5l12.5 112.5t5 64q0 41 -18.5 71.5t-63.5 30.5q-72 0 -152.5 -89t-140.5 -284l-59 -440h-272q18 139 30.5 239.5t23.5 188.5t21.5 177t24.5 206z" />
<glyph unicode="&#x440;" horiz-adv-x="1220" d="M-47 -428l22 186h129q14 125 31 261.5t33 272.5t32.5 269t28.5 250l-180 29l10 133q78 27 162 40t156 13q80 0 105.5 -31.5t21.5 -91.5q-2 -16 -7 -57t-16 -117h11q92 164 192 227.5t195 63.5q121 0 194.5 -88t73.5 -273q0 -143 -34 -268t-101.5 -217t-169 -145.5 t-234.5 -53.5q-47 0 -97 10.5t-101 26.5q-6 -53 -16.5 -125.5t-16.5 -128.5h164l-21 -186h-567zM428 211q51 -18 95 -25.5t75 -7.5q80 0 133 42t85 106.5t45 138.5t13 139q0 104 -33.5 153.5t-86.5 49.5q-33 0 -71 -17.5t-76 -61.5t-75.5 -117.5t-72.5 -184.5z" />
<glyph unicode="&#x441;" horiz-adv-x="991" d="M82 362q0 117 25.5 236t89 214t170 154.5t268.5 59.5q31 0 63.5 -3t64.5 -8t57.5 -12.5t39.5 -13.5q45 -16 64.5 -40.5t19.5 -65.5q0 -18 -6 -48t-15.5 -66t-22.5 -71.5t-26 -66.5l-145 8l6 174q-18 6 -44.5 9t-55.5 3q-70 0 -121 -33.5t-85 -91t-50.5 -134.5t-16.5 -160 q0 -104 46.5 -160t150.5 -56q61 0 121.5 10.5t138.5 32.5l53 -170q-37 -18 -84 -32.5t-99 -25.5t-105.5 -17t-102.5 -6q-113 0 -189.5 27.5t-122.5 78.5t-66.5 121t-20.5 153z" />
<glyph unicode="&#x442;" horiz-adv-x="1861" d="M70 844l8 131q102 31 177 42t134 11q84 0 109.5 -29.5t25.5 -78.5q0 -31 -6 -79t-14 -110h10q49 88 100.5 146.5t100.5 91t94 46t80 13.5q115 0 160 -64.5t45 -170.5v-26.5t-2 -33.5h8q45 82 97 139.5t102.5 92t95.5 50t80 15.5q111 0 164 -62.5t53 -170.5 q0 -47 -18.5 -193.5t-47.5 -406.5q41 2 76 13t74 30l53 -123q-78 -74 -167 -110t-155 -36q-96 0 -127.5 39t-31.5 111v26.5t4 32.5q16 137 27.5 230.5t17.5 155t9 96t3 53.5q0 41 -15.5 71.5t-62.5 30.5q-66 0 -136.5 -92t-125.5 -283q-4 -37 -13 -109.5t-18.5 -146 t-16.5 -130.5l-7 -56h-271q25 219 40.5 350t23.5 206t11 106.5t3 50.5q0 41 -16.5 70.5t-63.5 29.5q-66 0 -134 -89t-126 -282l-57 -442h-274q18 139 30.5 240.5t23.5 189.5t21.5 177t22.5 206z" />
<glyph unicode="&#x443;" horiz-adv-x="1167" d="M-254 -309q0 16 2 26l90 72q55 -41 98.5 -49t86.5 -8q98 0 208.5 45t200.5 137q-23 104 -49.5 226t-54 243t-54 228.5t-47.5 181.5q-39 -8 -75.5 -15.5t-73.5 -17.5q-10 29 -20.5 59.5t-20.5 59.5q86 74 166 107.5t131 33.5q53 0 82.5 -19.5t44.5 -80.5q14 -61 34.5 -161 t42 -210.5t42 -219t34.5 -188.5q53 63 95.5 148.5t72 176.5t46 181t16.5 164q-35 -6 -69 -12t-68 -15l-33 125q76 59 149.5 90t139.5 31q72 0 104.5 -49t32.5 -160q0 -131 -45 -277.5t-124 -289.5t-187.5 -274.5t-235.5 -231.5t-267.5 -159.5t-283.5 -59.5q-33 0 -70 8 t-68.5 26.5t-52 49.5t-20.5 78z" />
<glyph unicode="&#x444;" horiz-adv-x="1515" d="M82 428q0 127 40 234.5t117.5 186.5t191.5 125t263 50q4 53 13.5 125t13.5 125l-191 31l9 131q100 29 184 41t137 12q82 0 113 -27.5t31 -83.5q0 -14 -3.5 -49t-8.5 -83t-12 -105.5t-15 -116.5q127 -4 219 -37t152.5 -90t89 -137t28.5 -178q0 -125 -38 -231.5 t-114.5 -186.5t-192.5 -127t-273 -53q-8 -51 -15.5 -118t-13.5 -116h143l-22 -178h-549l20 178h140l28 234q-145 6 -239.5 45t-148.5 100t-75.5 139t-21.5 160zM340 430q0 -119 58.5 -186.5t191.5 -73.5q8 68 18 155t21.5 178t22 178t18.5 155q-90 -6 -152.5 -41 t-101.5 -90.5t-57.5 -126t-18.5 -148.5zM858 170q86 4 148.5 36t103.5 84t60.5 122.5t19.5 156.5q0 55 -12.5 102.5t-42 82t-77.5 56t-118 26.5z" />
<glyph unicode="&#x445;" horiz-adv-x="1134" d="M35 115q0 10 1 17t1 15q94 90 186 178.5t191 178.5q-35 72 -66 142.5t-63 141.5l-160 -43q-14 29 -27.5 60t-29.5 59q96 86 179 120t144 34q51 0 77 -21.5t42 -52.5q18 -39 32.5 -69.5t28 -59.5t27.5 -58.5t33 -66.5q66 82 129 165t129 165h29l149 -152q0 -18 -2 -28 l-346 -330l137 -301q45 6 83 22.5t77 38.5l92 -112q-43 -57 -90 -94t-90 -57.5t-82 -29t-68 -8.5q-53 0 -90 27t-66.5 75t-57 112.5t-62.5 142.5q-72 -92 -146.5 -183.5t-150.5 -179.5q-6 0 -12.5 -1t-12.5 -1q-37 35 -72.5 74t-72.5 80z" />
<glyph unicode="&#x446;" horiz-adv-x="1349" d="M72 842l12 131q98 29 179 41t140 12q76 0 104 -32.5t28 -119.5q0 -20 -5.5 -65t-11.5 -102.5t-15 -120t-15.5 -119.5t-11.5 -102.5t-5 -67.5q0 -47 17.5 -74.5t64.5 -27.5q35 0 73 21.5t74.5 68.5t72.5 121.5t69 183.5l55 414h266l-106 -811q45 2 92 17t84 36l100 -105 q-37 -123 -72.5 -250t-74.5 -251h-191l-12 22q29 90 65.5 184t71.5 166q-2 2 -4 2t-6 4q-41 -23 -88 -34t-76 -11q-78 0 -113.5 38t-35.5 118q0 29 4 59.5t8 61.5h-10q-47 -84 -100.5 -136.5t-106.5 -82t-102.5 -40.5t-88.5 -11q-104 0 -160.5 53t-56.5 155q0 23 6 82 q2 31 10.5 102.5t18.5 153.5t19.5 161t15.5 126q-45 6 -90 13.5t-92 15.5z" />
<glyph unicode="&#x447;" horiz-adv-x="1306" d="M70 844q0 6 1 25.5t3 41t4 41t2 25.5q100 29 181 40t140 11q76 0 105 -26.5t29 -92.5q0 -23 -5.5 -66.5t-12.5 -90.5t-12 -90.5t-5 -61.5q0 -102 84 -102q29 0 66.5 17t75.5 55t73 98.5t59 144.5l25 193h272q-23 -174 -47.5 -384t-48.5 -427q39 2 79 13t76 30 q2 -6 10.5 -23.5t17.5 -39t17.5 -39t12.5 -23.5q-78 -72 -170 -107t-158 -35q-96 0 -131 43t-35 119q0 37 6.5 88t13.5 106.5t15 106.5t14 88l-8 2q-43 -70 -95 -118t-104.5 -78.5t-101.5 -44t-84 -13.5q-113 0 -167 54.5t-54 156.5q0 20 4 61.5t10 89.5t12.5 96t12.5 83 q-16 2 -41 7t-50.5 9t-51 9.5t-39.5 7.5z" />
<glyph unicode="&#x448;" horiz-adv-x="1867" d="M70 844q2 33 4 65.5t6 65.5q102 29 182 41t139 12q78 0 104.5 -28.5t26.5 -96.5q0 -20 -5 -65t-12 -103.5t-15 -124t-15.5 -127t-12.5 -114t-5 -80.5q0 -41 16.5 -72t61.5 -31q68 0 137.5 92.5t126.5 284.5l53 441h273q-27 -209 -42.5 -340.5t-23.5 -208t-10 -111.5 t-2 -53q0 -41 16.5 -71t63.5 -30q59 0 124.5 72t116.5 215q23 109 43.5 250t40.5 277h271q-29 -205 -56.5 -412t-50.5 -395q41 4 79 15t73 28q14 -31 27.5 -62t29.5 -61q-41 -37 -85 -62.5t-87 -42t-81 -24.5t-69 -8q-82 0 -118.5 32.5t-36.5 98.5q0 39 5 82t11 77h-8 q-49 -88 -102.5 -144t-104.5 -88t-97 -44t-81 -12q-104 0 -150.5 52t-46.5 148v38t2 50q-4 0 -6 -1t-4 -1q-45 -82 -96 -137t-101.5 -89t-95.5 -48t-80 -14q-115 0 -166 64.5t-51 176.5q0 45 7.5 118t17.5 156t21.5 166.5t19.5 151.5z" />
<glyph unicode="&#x449;" horiz-adv-x="1906" d="M70 844q2 33 4 65.5t6 65.5q102 29 182 41t139 12q74 0 102.5 -28.5t28.5 -94.5q0 -41 -10 -126t-22.5 -179t-22.5 -181t-10 -130q0 -41 16.5 -72t61.5 -31q68 0 138.5 92.5t127.5 284.5q12 84 18.5 140.5t11.5 101.5t9 90t12 109h273q-29 -209 -44.5 -341.5t-22.5 -209 t-9 -111.5t-2 -51q0 -41 16.5 -71t63.5 -30q27 0 59.5 20.5t67 66t68.5 118t65 174.5l57 435h266q-29 -197 -55.5 -408t-50.5 -403q45 2 91 17t85 36l100 -105l-147 -501h-193l-12 22q29 90 66.5 184.5t72.5 165.5q-6 4 -8 6q-43 -23 -89 -34t-75 -11q-86 0 -117.5 39 t-31.5 113q0 53 12 125h-10q-49 -86 -99.5 -138.5t-98.5 -81t-92 -38.5t-81 -10q-111 0 -158 50t-47 161q0 16 1 35.5t3 41.5q-4 0 -6 -1t-4 -1q-45 -82 -96 -137t-101.5 -89t-95.5 -48t-80 -14q-63 0 -104 18t-65.5 51t-35 74t-10.5 88q0 63 7.5 142t17.5 161t21.5 160 t17.5 139z" />
<glyph unicode="&#x44a;" horiz-adv-x="1304" d="M27 702q8 94 18 158t31.5 101.5t58.5 54t101 16.5q20 0 62 -1t95 -3t111.5 -4t111 -3t92.5 -3t56 -2l29 -80q-23 -18 -54.5 -61.5t-64.5 -93.5t-59.5 -102t-36.5 -91l8 -4q100 119 200.5 164t176.5 45q123 0 195.5 -78t72.5 -215q0 -80 -33 -172t-103.5 -170t-182 -130.5 t-267.5 -52.5q-109 0 -182.5 25t-119.5 64.5t-66.5 93t-20.5 112.5q0 76 16.5 152t43 148.5t61.5 140t72 123.5l-213 -17l-78 -135zM541 289q0 -45 18.5 -70.5t44 -38t51 -15.5t37.5 -3q61 0 108.5 29.5t78 75.5t46 101.5t15.5 106.5q0 129 -115 129q-18 0 -50 -9t-69.5 -36 t-77.5 -73t-77 -119q-4 -23 -7 -42.5t-3 -35.5z" />
<glyph unicode="&#x44b;" horiz-adv-x="1781" d="M72 852l2 133q100 29 184 40t145 11q78 0 113 -24.5t35 -73.5q0 -23 -4 -63.5t-10.5 -89t-14.5 -100.5t-14 -95h10q96 111 198.5 157t178.5 46q123 0 194.5 -76t71.5 -213q0 -84 -30.5 -177.5t-97 -170t-169 -126.5t-246.5 -50q-35 0 -86 3t-109 11t-119.5 24.5 t-115.5 40.5l-14 27q27 205 48.5 390.5t39.5 344.5zM457 197q41 -12 82 -18.5t69 -6.5q66 0 116 25.5t85 66.5t52.5 93.5t17.5 105.5q0 66 -33 99.5t-88 33.5q-25 0 -59.5 -12.5t-71.5 -41t-76 -76.5t-72 -118zM1255 125q0 12 1 25.5t4 29.5l110 824h275l-111 -809 q41 4 82 14t78 29l55 -123q-78 -72 -170 -109t-156 -37q-98 0 -133 43t-35 113z" />
<glyph unicode="&#x44c;" horiz-adv-x="1222" d="M66 852l2 133q100 29 184 40t147 11q78 0 112 -24.5t34 -73.5q0 -23 -4 -63.5t-10.5 -89t-13.5 -100.5t-15 -95h10q96 111 198.5 157t178.5 46q123 0 194.5 -76t71.5 -213q0 -84 -30.5 -177.5t-97 -170t-169 -126.5t-246.5 -50q-33 0 -84 3t-110.5 11t-120.5 24.5 t-115 40.5l-12 27l86 735zM453 197q41 -12 80.5 -18.5t68.5 -6.5q66 0 116 25.5t85 66.5t52 93.5t17 105.5q0 66 -32.5 99.5t-87.5 33.5q-27 0 -61 -12.5t-70.5 -41t-74.5 -76.5t-73 -118z" />
<glyph unicode="&#x44d;" horiz-adv-x="970" d="M39 35l53 170q53 -12 114.5 -24.5t121.5 -12.5q131 0 209.5 73.5t85.5 211.5l-308 -2l15 149l301 -12q0 8 1 15t1 13q0 117 -61.5 169.5t-155.5 52.5q-37 0 -72 -9l-55 -172l-148 13q-4 55 -8 98t-4 74q0 35 10.5 70.5t46.5 58.5q63 35 143.5 46t145.5 11q113 0 196 -35 t136 -95t78.5 -140t25.5 -168q0 -106 -25.5 -216t-87 -198t-164.5 -143.5t-259 -55.5q-117 0 -200 17.5t-136 40.5z" />
<glyph unicode="&#x44e;" horiz-adv-x="1648" d="M70 842q2 33 3 65.5t5 65.5q100 29 178 41t131 12q74 0 105.5 -29.5t31.5 -89.5q0 -6 -3 -34.5t-8 -70.5t-12 -93.5t-14 -102.5h160q23 88 65 164t106.5 133.5t150 90t194.5 32.5q115 0 196 -34t131 -92t72.5 -138t22.5 -170q0 -115 -30.5 -224.5t-96 -194.5t-168 -137 t-246.5 -52q-115 0 -193.5 29.5t-127.5 85t-71.5 132t-22.5 170.5q0 10 1 22.5t1 25.5h-166l-59 -449h-273q29 205 55.5 406.5t53.5 406.5q-45 6 -88 13.5t-84 15.5zM895 381q0 -41 7 -79t26.5 -65.5t52.5 -44t82 -16.5q74 0 121 42t74.5 105.5t38 137.5t10.5 139 q0 45 -7.5 86t-26 71.5t-49 49t-77.5 18.5q-76 0 -124 -45t-76.5 -112.5t-40 -145.5t-11.5 -141z" />
<glyph unicode="&#x44f;" horiz-adv-x="1189" d="M25 27l337 399q-106 16 -166.5 78.5t-60.5 161.5q0 92 35 160.5t97.5 113.5t150.5 67.5t194 22.5q94 0 210 -20.5t212 -57.5l-88 -757q82 6 158 43l55 -123q-76 -72 -164 -109t-151 -37q-98 0 -136 43t-38 113q0 12 1 25.5t3 29.5l78 633q-29 12 -70 18.5t-72 6.5 q-37 0 -71.5 -8.5t-61 -29t-43 -53t-16.5 -81.5q0 -66 59.5 -96.5t138.5 -43.5l17 -102l-316 -426l-266 -8z" />
<glyph unicode="&#x451;" horiz-adv-x="1036" d="M82 383q0 111 27.5 225.5t94 207.5t177 153.5t276.5 60.5q141 0 229.5 -71.5t88.5 -202.5q0 -154 -147.5 -248t-473.5 -113q-2 -10 -2 -21.5v-21.5q0 -35 7.5 -67.5t29 -57t57 -40t95.5 -15.5q72 0 150.5 18.5t150.5 47.5l51 -156q-86 -47 -199.5 -73.5t-218.5 -26.5 q-121 0 -197.5 31.5t-119.5 87t-59.5 128t-16.5 154.5zM295 1280q2 63 48 104t99 41t87 -33.5t32 -86.5q-4 -61 -47 -104.5t-102 -43.5q-53 0 -87 35t-30 88zM360 526q365 16 365 199q0 47 -26 78t-83 31q-113 0 -177 -82t-79 -226zM698 1280q2 63 47.5 104t98.5 41 t87 -33.5t30 -86.5q-2 -61 -45.5 -104.5t-104.5 -43.5q-51 0 -83 35t-30 88z" />
<glyph unicode="&#x452;" horiz-adv-x="1202" d="M63 1307l13 131q100 29 182 40t143 11q80 0 114 -24.5t34 -75.5q0 -23 -6 -70t-17 -148h318l-13 -106h-319q-4 -35 -9 -87t-11.5 -102.5t-11.5 -91.5t-7 -55l8 -2q43 74 94.5 124t101.5 81t96 44t81 13q78 0 130 -34.5t83 -92t44 -133.5t13 -156q0 -145 -29.5 -274 t-83 -224t-126 -150.5t-158.5 -55.5q-53 0 -110.5 16.5t-116.5 69.5l63 137q29 -16 49.5 -23.5t42.5 -7.5q41 0 77 41t62.5 111t42 162t15.5 194q0 92 -26.5 153.5t-92.5 61.5q-35 0 -72.5 -20.5t-77.5 -65.5t-78 -117.5t-71 -177.5l-55 -403h-273q31 236 62 505t65 560 h-131l13 106h129l12 105z" />
<glyph unicode="&#x453;" horiz-adv-x="954" d="M61 229q0 68 34 123.5t87.5 100.5t120 81.5t133.5 67.5q37 16 70 34.5t59.5 38t42 42t15.5 47.5q0 47 -35 62.5t-76 15.5q-59 0 -136 -23.5t-161 -58.5l-61 147q92 57 204.5 89t223.5 32q147 0 233 -58.5t86 -174.5q0 -61 -30.5 -111.5t-84 -94.5t-126 -82t-158.5 -75 q-72 -31 -120 -69.5t-48 -98.5q0 -47 36 -70.5t101 -23.5q68 0 157 25.5t181 66.5l65 -149q-53 -35 -113.5 -60.5t-120.5 -42t-117.5 -25t-106.5 -8.5q-166 0 -260.5 57.5t-94.5 194.5zM483 1198l316 369l137 -148l-365 -311z" />
<glyph unicode="&#x454;" horiz-adv-x="976" d="M82 377q0 59 9 131t32.5 144.5t62.5 141t100.5 121t147.5 84t201 31.5q66 0 117 -7t90 -19q104 -35 104 -113q0 -43 -21.5 -111.5t-45.5 -124.5l-148 9l6 159q-20 6 -45.5 10.5t-52.5 4.5q-104 0 -172 -70t-88 -193l303 7l-14 -152l-301 8q-6 -37 -7 -71 q2 -90 49.5 -138.5t141.5 -48.5q66 0 133.5 12.5t142.5 36.5l45 -163q-74 -37 -178.5 -60.5t-204.5 -23.5q-117 0 -195.5 29.5t-125.5 82.5t-66.5 126t-19.5 157z" />
<glyph unicode="&#x455;" horiz-adv-x="1007" d="M55 147q0 39 22.5 100.5t59.5 114.5l137 -6l-6 -172q29 -14 72 -20t84 -6q39 0 78 7t68.5 21.5t48 37t18.5 52.5q0 31 -18.5 53.5t-49 41t-69.5 35t-80 32.5q-59 25 -112.5 52.5t-93.5 60.5t-63.5 74t-23.5 92q0 76 35 134t95 98t143 60.5t182 20.5q55 0 116.5 -9 t111.5 -27.5t83 -47t33 -69.5q0 -18 -8.5 -47t-20.5 -60t-27.5 -60.5t-29.5 -52.5l-133 9l6 157q-49 25 -127 25q-33 0 -63.5 -5t-55.5 -17.5t-39 -34t-14 -52.5q0 -27 20.5 -48t53 -39.5t72.5 -35t79 -32.5q51 -23 101.5 -48.5t90 -59.5t64.5 -78t27 -101q0 -76 -35 -134.5 t-99.5 -98t-154.5 -61t-199 -21.5q-168 0 -273.5 42t-105.5 123z" />
<glyph unicode="&#x456;" horiz-adv-x="722" d="M96 844l8 133q100 29 178.5 40t131.5 11q82 0 110.5 -26.5t28.5 -79.5q0 -10 -6 -61.5t-14.5 -123t-19.5 -155.5t-21.5 -161t-18.5 -138.5t-10 -87.5q39 4 80 14t78 29l55 -123q-78 -72 -170 -109t-158 -37q-96 0 -132 43t-36 113q0 12 1 25.5t3 29.5l82 635zM266 1282 q0 84 50 136t124 52q61 0 104.5 -44t43.5 -109q0 -74 -48 -127t-126 -53q-61 0 -104.5 42t-43.5 103z" />
<glyph unicode="&#x457;" horiz-adv-x="722" d="M63 1266q2 63 48.5 104t99.5 41t87 -34t32 -87q-4 -61 -47 -104t-103 -43q-53 0 -87 34.5t-30 88.5zM96 844l8 133q100 29 178.5 40t131.5 11q82 0 110.5 -26.5t28.5 -79.5q0 -10 -6 -61.5t-14.5 -123t-19.5 -155.5t-21.5 -161t-18.5 -138.5t-10 -87.5q39 4 80 14t78 29 l55 -123q-78 -72 -170 -109t-158 -37q-96 0 -132 43t-36 113q0 12 1 25.5t3 27.5l82 637zM467 1266q2 63 47 104t98 41t87 -34t30 -87q-2 -61 -45 -104t-104 -43q-51 0 -83 34.5t-30 88.5z" />
<glyph unicode="&#x458;" horiz-adv-x="651" d="M-115 -291q94 41 149.5 89t86.5 106.5t45 130t24 158.5l66 622l-170 29l10 133q100 29 176 40t129 11q82 0 114 -26.5t32 -79.5q0 -8 -4 -49.5t-10.5 -103.5t-14.5 -138t-17 -155t-17.5 -151.5t-14.5 -125.5q-16 -135 -50 -246t-96.5 -195t-157.5 -140t-233 -83z M256 1282q0 84 50 136t126 52q61 0 104.5 -44t43.5 -109q0 -74 -48.5 -127t-128.5 -53q-59 0 -103 42t-44 103z" />
<glyph unicode="&#x459;" horiz-adv-x="1634" d="M23 14q119 227 244.5 470t256.5 509q80 8 155 16.5t155 14.5l32 -18q14 -123 23.5 -225.5t19.5 -200.5h2q98 102 198.5 154t195.5 52q53 0 100 -16t82 -51t55.5 -91.5t20.5 -135.5q0 -86 -38 -177.5t-115 -167t-192.5 -124t-271.5 -48.5q-82 0 -130 11.5t-73.5 34 t-35 56.5t-13.5 77q-2 14 -6 60t-9 107.5t-10 130t-10.5 129t-9.5 105.5t-4 59h-10q-45 -98 -84 -187t-78 -179t-81 -182.5t-93 -196.5q-66 0 -129.5 -2t-128.5 -4zM934 440q4 -66 10 -136.5t17 -137.5q12 -2 23 -2h22q123 0 198.5 82t75.5 217q-4 61 -30.5 95t-71.5 34 q-31 0 -65 -14.5t-66.5 -36t-62.5 -49t-50 -52.5z" />
<glyph unicode="&#x45a;" horiz-adv-x="1843" d="M72 844l8 133q102 29 182 40t139 11q80 0 110 -26.5t30 -79.5q0 -23 -11.5 -113t-27.5 -207h352q18 123 30.5 227.5t20.5 174.5h277q-6 -39 -13.5 -95.5t-14.5 -116t-14 -113.5t-14 -89h9q96 111 197.5 157t176.5 46q125 0 196 -76t71 -213q0 -84 -31 -177.5t-97.5 -170 t-169 -126.5t-245.5 -50q-33 0 -84 3t-110.5 11t-121 24.5t-114.5 40.5l-15 27q8 72 20.5 164t25.5 192h-355l-59 -442h-275q0 8 7.5 53t16.5 111.5t20.5 150.5t22.5 171t22.5 172t19.5 157zM1073 197q41 -12 81 -18.5t71 -6.5q66 0 116 25.5t83.5 66.5t51 93.5t17.5 105.5 q0 66 -33 99.5t-88 33.5q-25 0 -59.5 -12.5t-71.5 -41t-75 -76.5t-70 -118z" />
<glyph unicode="&#x45b;" horiz-adv-x="1292" d="M78 1307l12 131q102 29 185 40t145 11q86 0 115.5 -29.5t29.5 -87.5q0 -14 -6 -72.5t-16 -136.5h327l-14 -100h-324q-12 -100 -25 -198.5t-22 -153.5h9q45 76 98 127t105.5 82.5t100.5 45t83 13.5q123 0 172 -60.5t49 -170.5q0 -23 -3 -64t-10.5 -107.5t-17.5 -159.5 t-24 -222q76 6 153 43l53 -123q-80 -74 -171 -110t-154 -36q-96 0 -130 41t-34 113q0 14 1 27.5t3 29.5q16 139 26.5 228.5t15.5 141.5t7 76.5t2 37.5q0 47 -19.5 74.5t-62.5 27.5q-31 0 -68.5 -19.5t-76.5 -62.5t-77 -111.5t-69 -169.5l-51 -403h-274q14 113 30.5 246 t34 273t32.5 278.5t30 265.5h-139l14 100h135q4 31 7 60.5t5 52.5z" />
<glyph unicode="&#x45c;" horiz-adv-x="1200" d="M74 842l10 135q94 27 169 41t134 14q66 0 97.5 -28.5t31.5 -81.5q0 -10 -6 -58.5t-15.5 -122t-21.5 -166t-25.5 -191.5t-27.5 -198.5t-25 -185.5h-270l106 817zM496 504l10 74q43 82 104.5 162.5t130 144t140.5 102.5t133 39q70 0 109.5 -43t52.5 -94l-103 -96 q-27 16 -49.5 21t-44.5 5q-37 0 -73 -18.5t-71.5 -49t-69.5 -69.5t-65 -82q33 -61 72 -126.5t78 -125t70.5 -105.5t50.5 -67q41 12 73.5 31.5t61.5 38.5l80 -99q-84 -106 -157 -140t-130 -34q-41 0 -71.5 14.5t-56.5 42t-52.5 67.5t-56.5 89q-49 78 -92.5 163t-73.5 155z M543 1198l315 369l137 -148l-364 -311z" />
<glyph unicode="&#x45e;" horiz-adv-x="1167" d="M-254 -309q0 16 2 26l90 72q55 -41 98.5 -49t86.5 -8q98 0 208.5 45t200.5 137q-23 104 -49.5 226t-54 243t-54 228.5t-47.5 181.5q-39 -8 -75.5 -15.5t-73.5 -17.5q-10 29 -20.5 59.5t-20.5 59.5q86 74 166 107.5t131 33.5q53 0 82.5 -19.5t44.5 -80.5q14 -61 34.5 -161 t42 -210.5t42 -219t34.5 -188.5q53 63 95.5 148.5t72 176.5t46 181t16.5 164q-35 -6 -69 -12t-68 -15l-33 125q76 59 149.5 90t139.5 31q72 0 104.5 -49t32.5 -160q0 -131 -45 -277.5t-124 -289.5t-187.5 -274.5t-235.5 -231.5t-267.5 -159.5t-283.5 -59.5q-33 0 -70 8 t-68.5 26.5t-52 49.5t-20.5 78zM291 1391l125 92q53 -90 117.5 -134t117.5 -44q18 0 45 2t65 17t89 49t121 95l67 -77q-111 -150 -219 -207.5t-196 -57.5q-59 0 -107.5 21.5t-89.5 57.5t-75 84t-60 102z" />
<glyph unicode="&#x45f;" horiz-adv-x="1300" d="M72 844l12 129q98 29 179 41t140 12q78 0 105 -37t27 -100q0 -23 -5.5 -70t-11.5 -105.5t-15 -123t-15.5 -121.5t-11.5 -103.5t-5 -68.5q0 -47 17.5 -74.5t64.5 -27.5q33 0 69.5 19t75.5 64.5t75 117t67 173.5l59 435h262q-27 -197 -53.5 -406t-50.5 -405q43 2 80 13 t73 27l56 -120q-39 -37 -82 -62.5t-86 -43t-83 -26t-71 -8.5q-82 0 -114.5 37t-32.5 90q0 35 4 76t8 74h-10q-47 -80 -99.5 -132t-104.5 -83t-101.5 -43t-87.5 -12q-221 0 -222 208q0 90 20.5 241t49.5 386zM528 -430q29 117 57.5 227.5t63.5 196.5q39 -6 78 -13.5t76 -17.5 q-16 -102 -35.5 -204.5t-38.5 -204.5l-188 -5z" />
<glyph unicode="&#x490;" horiz-adv-x="1230" d="M35 0l20 193h142l125 1024h-136l23 190h911l35 250h197l-56 -440h-690l-127 -1024h187l-23 -193h-608z" />
<glyph unicode="&#x491;" horiz-adv-x="989" d="M111 0q25 205 51 409.5t51 411.5h-102q4 47 10 91t12 89h660l63 250h139q0 -47 2 -82.5t3 -67.5t2.5 -62.5t1.5 -65.5q0 -78 -32 -113t-79 -39q-102 -4 -211 -1t-195 1l-98 -821h-278z" />
<glyph unicode="&#x4d9;" horiz-adv-x="1036" d="M78 254q0 156 146.5 250t473.5 112q2 10 2 21.5v21.5q0 35 -8 68t-28.5 57.5t-58.5 40t-95 15.5q-72 0 -150.5 -18.5t-150.5 -47.5l-53 156q43 25 94 43t106.5 31.5t111.5 19.5t107 6q123 0 200 -33.5t120 -91t59.5 -131.5t16.5 -156q0 -111 -28 -223t-94.5 -204.5 t-177 -150.5t-276.5 -58q-141 0 -229 71.5t-88 200.5zM326 287q0 -47 25.5 -78t82.5 -31q113 0 177.5 83t78.5 226q-365 -18 -364 -200z" />
<glyph unicode="&#x2000;" horiz-adv-x="982" />
<glyph unicode="&#x2001;" horiz-adv-x="1964" />
<glyph unicode="&#x2002;" horiz-adv-x="982" />
<glyph unicode="&#x2003;" horiz-adv-x="1964" />
<glyph unicode="&#x2004;" horiz-adv-x="654" />
<glyph unicode="&#x2005;" horiz-adv-x="491" />
<glyph unicode="&#x2006;" horiz-adv-x="327" />
<glyph unicode="&#x2007;" horiz-adv-x="327" />
<glyph unicode="&#x2008;" horiz-adv-x="245" />
<glyph unicode="&#x2009;" horiz-adv-x="392" />
<glyph unicode="&#x200a;" horiz-adv-x="109" />
<glyph unicode="&#x2010;" horiz-adv-x="780" d="M119 449l26 202h545l-26 -202h-545z" />
<glyph unicode="&#x2011;" horiz-adv-x="780" d="M119 449l26 202h545l-26 -202h-545z" />
<glyph unicode="&#x2012;" horiz-adv-x="780" d="M119 449l26 202h545l-26 -202h-545z" />
<glyph unicode="&#x2013;" horiz-adv-x="993" d="M80 438l20 176h842l-22 -176h-840z" />
<glyph unicode="&#x2014;" horiz-adv-x="1986" d="M100 438l21 176h1784l-21 -176h-1784z" />
<glyph unicode="&#x2018;" horiz-adv-x="507" d="M184 1079q0 57 24.5 119t65.5 117t96.5 100t114.5 74l58 -92q-53 -41 -87 -86t-48 -107q84 -27 84 -121q0 -63 -47 -111t-119 -48t-107 46t-35 109z" />
<glyph unicode="&#x2019;" horiz-adv-x="507" d="M174 1016q55 41 88 87t47 105q-43 12 -62.5 42t-19.5 73q0 66 44 116t122 50q70 0 103.5 -45t33.5 -109q0 -59 -23.5 -119.5t-64.5 -116t-96 -101.5t-117 -74z" />
<glyph unicode="&#x201a;" horiz-adv-x="520" d="M16 -172q53 41 86 82t48 100q-41 10 -64 42t-20 77q4 63 48.5 111.5t116.5 48.5t107 -49.5t31 -118.5q-2 -57 -29 -114.5t-69 -108t-93 -92.5t-104 -68z" />
<glyph unicode="&#x201c;" horiz-adv-x="835" d="M190 1079q0 57 25 119t67 117t97 100t115 74l55 -92q-53 -41 -87 -86t-48 -107q84 -27 84 -121q0 -31 -12.5 -60.5t-35 -51t-53 -34.5t-67.5 -13q-72 0 -106 46t-34 109zM539 1079q0 57 24.5 119t65.5 117t95 100t114 74l57 -92q-53 -41 -86 -86t-49 -107 q43 -12 62.5 -43t19.5 -76q0 -63 -45 -112t-119 -49q-72 0 -105.5 46t-33.5 109z" />
<glyph unicode="&#x201d;" horiz-adv-x="835" d="M172 1016q53 41 86 87t47 105q-43 12 -62.5 42t-19.5 73q0 66 44 116t122 50q72 0 105.5 -45t33.5 -109q0 -59 -23.5 -119.5t-65.5 -116t-96 -101.5t-116 -74zM514 1016q53 41 86 87t47 105q-82 25 -82 115q0 66 44 116t120 50q72 0 106.5 -46t34.5 -108 q0 -59 -24.5 -119.5t-65.5 -116t-95 -101.5t-116 -74z" />
<glyph unicode="&#x201e;" horiz-adv-x="876" d="M66 -172q53 41 85.5 82t47.5 100q-41 10 -63.5 42t-18.5 77q0 63 46 111.5t118 48.5t106.5 -49.5t30.5 -118.5q-2 -57 -29 -114.5t-68.5 -108t-93 -92.5t-104.5 -68zM424 -172q53 41 86 82t47 100q-41 10 -63.5 42t-20.5 77q4 63 49 111.5t117 48.5t106.5 -49.5 t32.5 -118.5q-4 -57 -30.5 -114.5t-67.5 -108t-93 -92.5t-106 -68z" />
<glyph unicode="&#x2020;" horiz-adv-x="980" d="M129 819l25 195h292l52 403h225l-49 -403h301l-25 -195h-299l-121 -960h-223l117 960h-295z" />
<glyph unicode="&#x2021;" horiz-adv-x="980" d="M55 225l27 195h293l49 399h-295l25 195h292l52 403h225l-49 -403h301l-25 -195h-299l-49 -399h301l-26 -195h-299l-48 -366h-223l43 366h-295z" />
<glyph unicode="&#x2022;" horiz-adv-x="788" d="M143 543q0 57 22.5 107t60.5 88t87 59.5t105 21.5q51 0 96 -19.5t78 -53t52.5 -80t19.5 -97.5q0 -57 -23 -107t-59.5 -88t-87 -60.5t-105.5 -22.5q-51 0 -96 19.5t-78 54t-52.5 79.5t-19.5 99z" />
<glyph unicode="&#x2026;" horiz-adv-x="1501" d="M68 117q0 37 14 67.5t37.5 53t54.5 36t64 13.5q57 0 94 -39t37 -96q0 -37 -14.5 -69t-38 -55.5t-54.5 -37t-61 -13.5q-59 0 -96 40t-37 100zM506 117q0 37 14.5 67.5t38 53t54 36t63.5 13.5q57 0 93 -39t36 -96q0 -37 -14.5 -69t-38 -55.5t-53 -37t-62.5 -13.5 q-57 0 -94 40t-37 100zM944 117q0 37 14.5 67.5t38 53t54 36t63.5 13.5q57 0 94 -40t37 -100q0 -37 -14 -67.5t-39 -53t-55.5 -36t-61.5 -13.5q-57 0 -94 40t-37 100z" />
<glyph unicode="&#x202f;" horiz-adv-x="392" />
<glyph unicode="&#x2030;" horiz-adv-x="2584" d="M102 862q0 76 17.5 166t63.5 168t125 129t200 51q90 0 149.5 -26.5t95 -71.5t51 -105.5t15.5 -128.5q0 -90 -20.5 -181t-67.5 -163.5t-124 -117.5t-191 -45q-90 0 -149.5 25.5t-96.5 69.5t-52.5 103.5t-15.5 126.5zM303 848q0 -72 27.5 -117t101.5 -45q53 0 89 33 t57.5 84t30.5 114.5t9 124.5q0 35 -5 68t-18 58.5t-35.5 41t-59.5 15.5q-66 0 -105 -44t-59.5 -104.5t-26.5 -125t-6 -103.5zM483 -41l815 1491h164l-813 -1491h-166zM1081 315q0 78 18.5 168t64.5 168t125 130.5t200 52.5q90 0 149.5 -27t95 -73t50 -106.5t14.5 -125.5 q0 -92 -20.5 -183.5t-66.5 -164t-124 -117.5t-190 -45q-90 0 -150.5 25.5t-97.5 69.5t-52.5 102.5t-15.5 125.5zM1284 303q0 -72 27.5 -116t101.5 -44q51 0 87 32t58.5 82t31.5 113.5t9 127.5q0 35 -5 67.5t-18 58t-36.5 41t-58.5 15.5q-66 0 -105 -44t-59.5 -104.5 t-26.5 -124t-6 -104.5zM1884 315q0 78 18.5 168t64.5 168t125 130.5t200 52.5q90 0 149.5 -27t95 -73t50 -106.5t14.5 -125.5q0 -92 -20.5 -183.5t-66.5 -164t-124 -117.5t-190 -45q-90 0 -150.5 25.5t-97.5 69.5t-52.5 102.5t-15.5 125.5zM2087 303q0 -72 27.5 -116 t101.5 -44q51 0 87 32t58.5 82t31.5 113.5t9 127.5q0 35 -5 67.5t-18.5 58t-36.5 41t-58 15.5q-66 0 -105 -44t-59.5 -104.5t-26.5 -124t-6 -104.5z" />
<glyph unicode="&#x2039;" horiz-adv-x="686" d="M102 365l11 77l374 367l101 -82l-248 -326l166 -319l-123 -84z" />
<glyph unicode="&#x203a;" horiz-adv-x="686" d="M72 86l241 320l-163 323l118 80l285 -367l-10 -77l-371 -367z" />
<glyph unicode="&#x2044;" horiz-adv-x="217" d="M-322 -41l816 1491h163l-813 -1491h-166z" />
<glyph unicode="&#x205f;" horiz-adv-x="491" />
<glyph unicode="&#x20ac;" d="M70 537q4 27 6 51t6 49h846l-10 -100h-474v-43q0 -147 72 -219t252 -72q27 0 66.5 3t78.5 11q4 31 8.5 61.5t8.5 59.5h184q-10 -76 -19.5 -150.5t-17.5 -150.5q-78 -27 -176 -40t-186 -13q-152 0 -255.5 39.5t-168 112.5t-93 175.5t-28.5 225.5h-100zM94 729q4 51 12 102 h99q18 111 64 211.5t125 177t193.5 121.5t270.5 45q100 0 189.5 -16t154.5 -39l-41 -317h-186l18 139q-29 10 -65.5 14t-75.5 4q-152 0 -247 -90t-126 -250h475q-4 -27 -7 -52t-7 -50h-846z" />
<glyph unicode="&#x2122;" horiz-adv-x="1726" d="M104 1178v231h639v-231h-118v116h-117v-483h86v-111h-344v111h86v483h-113v-116h-119zM786 700v111h78v483h-78v115h283l109 -244l69 -157h8q2 8 11.5 30.5t20.5 48t20.5 48t13.5 30.5q10 20 25.5 53t31 68t29.5 67.5t25 55.5h282v-115h-72v-483h72v-111h-301v111h66v367 h-4l-64 -148l-90 -201h-137l-97 201l-63 141h-2v-360h70v-111h-306z" />
<glyph unicode="&#x2202;" horiz-adv-x="1062" d="M61 356q0 127 40 230.5t105.5 177.5t153 114t181.5 40q66 0 136.5 -24t127.5 -89q0 14 1 26.5t1 24.5q0 121 -24.5 206t-72.5 139t-117 79t-157 25h-40.5t-43.5 -5l-4 164q35 4 74 7.5t70 3.5q254 0 385 -160t131 -438q0 -223 -48.5 -391.5t-128 -281t-183 -168.5 t-216.5 -56q-80 0 -148.5 23.5t-117.5 71.5t-77 118.5t-28 162.5zM262 385q0 -123 52.5 -176t140.5 -53q74 0 130 38.5t98 100t67.5 140.5t35.5 159q-57 88 -120.5 123t-135.5 35q-68 0 -118 -35t-83.5 -88.5t-50 -118t-16.5 -125.5z" />
<glyph unicode="&#x220f;" horiz-adv-x="1560" d="M4 -227l25 196h135l153 1245h-137l25 195h1392l-24 -195h-137l-154 -1245h137l-22 -196h-547l22 196h123l156 1245h-547l-155 -1245h124l-20 -196h-549z" />
<glyph unicode="&#x2211;" horiz-adv-x="1236" d="M-25 -227l19 170l457 669l-285 635l20 162h1078l-50 -418h-200l28 226h-524l252 -578l-6 -55l-414 -615h580l28 230h201l-51 -426h-1133z" />
<glyph unicode="&#x221a;" horiz-adv-x="1101" d="M135 655q68 33 135.5 67t132.5 69q29 -152 53.5 -301.5t53.5 -301.5h4q137 334 273.5 672t271.5 668h182q-170 -412 -339 -819.5t-339 -817.5h-182q-31 160 -59.5 322t-59.5 324l-90 -41q-10 41 -18.5 79.5t-18.5 79.5z" />
<glyph unicode="&#x221e;" horiz-adv-x="1609" d="M109 549q0 68 25.5 128t71.5 104t110.5 71t142.5 27q104 0 197.5 -58.5t170.5 -132.5q39 39 79 74t84 60.5t96.5 41t113.5 15.5q76 0 138.5 -25t107.5 -68t69.5 -102t24.5 -131q0 -70 -26.5 -131.5t-74.5 -106.5t-113.5 -71.5t-141.5 -26.5q-96 0 -182.5 52.5 t-176.5 144.5q-39 -37 -78.5 -73t-86 -63.5t-98.5 -44t-113 -16.5q-72 0 -134.5 25.5t-108.5 69.5t-71.5 104.5t-25.5 132.5zM313 549q0 -70 43 -117t109 -47q33 0 66.5 14.5t64.5 37t59.5 51t53.5 57.5q-53 63 -116.5 114.5t-135.5 51.5q-63 0 -103.5 -48.5t-40.5 -113.5z M942 551q70 -72 125 -119t121 -47q33 0 60.5 13.5t47 37t30.5 53t11 62.5q0 76 -43 118t-104 42q-33 0 -65.5 -14.5t-64.5 -37t-61.5 -51t-56.5 -57.5z" />
<glyph unicode="&#x222b;" horiz-adv-x="651" d="M-121 -317l39 153q31 -4 56.5 -6t54.5 -2q90 0 128 46t48 140q18 160 29.5 302.5t19.5 281.5t16.5 282.5t22.5 307.5q16 166 106 259t244 93q41 0 75 -4t89 -18l-35 -156q-29 4 -53.5 7t-52.5 3q-92 0 -130 -48t-53 -150q-18 -164 -26 -300.5t-14.5 -269.5t-15.5 -276.5 t-30 -319.5q-23 -160 -110.5 -256t-239.5 -96q-41 0 -78 5t-90 22z" />
<glyph unicode="&#x2248;" d="M145 430q51 100 116 145.5t140 45.5q47 0 100.5 -13.5t105.5 -30t102.5 -29.5t93.5 -13l135 90l74 -62q-47 -98 -110.5 -149.5t-141.5 -51.5q-59 0 -114.5 13.5t-106 30t-95.5 30t-84 13.5l-139 -89zM180 727q53 102 117.5 149.5t140.5 47.5q49 0 101.5 -13.5t104.5 -30 t102.5 -29.5t93.5 -13l133 90l78 -64q-47 -98 -110.5 -150t-145.5 -52q-57 0 -111.5 13t-106 30.5t-96.5 31t-84 13.5l-137 -88z" />
<glyph unicode="&#x2260;" d="M127 154l199 215h-162l22 163h287l154 164h-422l20 166h551l170 180h154l-166 -180h133l-23 -166h-260l-153 -164h395l-20 -163h-521l-198 -215h-160z" />
<glyph unicode="&#x2264;" d="M57 0l21 170h901l-21 -170h-901zM137 618l17 144l944 344l-27 -205l-676 -211q25 -8 73 -26.5t109.5 -42t129 -49t129 -48t109.5 -40t73 -25.5l-27 -203z" />
<glyph unicode="&#x2265;" d="M90 0l21 170h903l-21 -170h-903zM119 258l26 203l676 231q-37 10 -125 41t-186 64.5t-186 63.5t-125 40l26 207l860 -344l-18 -146z" />
<glyph unicode="&#x25ca;" horiz-adv-x="1085" d="M78 651l358 690h168l352 -690l-354 -688h-168q-8 16 -35.5 69.5t-64.5 124t-78 149.5t-78 149.5t-64.5 124t-35.5 71.5zM315 653q8 -20 39 -79.5t66 -127t64.5 -128t37.5 -78.5q10 20 40 78.5t62.5 126t61.5 127t39 79.5l-207 414q-10 -20 -38.5 -79.5t-62.5 -126 t-63.5 -126t-38.5 -80.5z" />
<glyph unicode="&#x25fc;" horiz-adv-x="1024" d="M0 0v1024h1024v-1024h-1024z" />
</font>
</defs>
</svg>
